<svg width="50" height="51" viewBox="0 0 50 51" fill="none" xmlns="http://www.w3.org/2000/svg">
<path d="M9.76562 40.905C11.1654 40.905 12.3617 40.4086 13.3545 39.4158C14.3473 38.4229 14.8438 37.2266 14.8438 35.8269C14.8438 34.4272 14.3473 33.2309 13.3545 32.238C12.3617 31.2452 11.1654 30.7488 9.76562 30.7488C8.36589 30.7488 7.1696 31.2452 6.17676 32.238C5.18392 33.2309 4.6875 34.4272 4.6875 35.8269C4.6875 37.2266 5.18392 38.4229 6.17676 39.4158C7.1696 40.4086 8.36589 40.905 9.76562 40.905ZM9.76562 32.3113C10.7422 32.3113 11.5723 32.6531 12.2559 33.3367C12.9395 34.0203 13.2812 34.8503 13.2812 35.8269C13.2812 36.8035 12.9395 37.6335 12.2559 38.3171C11.5723 39.0007 10.7422 39.3425 9.76562 39.3425C8.78906 39.3425 7.95898 39.0007 7.27539 38.3171C6.5918 37.6335 6.25 36.8035 6.25 35.8269C6.25 34.8503 6.5918 34.0203 7.27539 33.3367C7.95898 32.6531 8.78906 32.3113 9.76562 32.3113ZM36.8164 41.6863C37.6953 41.6863 38.4521 41.3689 39.0869 40.7341C39.7217 40.0994 40.0391 39.3425 40.0391 38.4636C40.0391 37.5847 39.7217 36.8279 39.0869 36.1931C38.4521 35.5583 37.6953 35.241 36.8164 35.241C35.9375 35.241 35.1807 35.5583 34.5459 36.1931C33.9111 36.8279 33.5938 37.5847 33.5938 38.4636C33.5938 39.3425 33.9111 40.0994 34.5459 40.7341C35.1807 41.3689 35.9375 41.6863 36.8164 41.6863ZM36.8164 36.8035C37.2721 36.8035 37.6628 36.9662 37.9883 37.2917C38.3138 37.6173 38.4766 38.0079 38.4766 38.4636C38.4766 38.9194 38.3138 39.31 37.9883 39.6355C37.6628 39.961 37.2721 40.1238 36.8164 40.1238C36.3607 40.1238 35.9701 39.961 35.6445 39.6355C35.319 39.31 35.1562 38.9194 35.1562 38.4636C35.1562 38.0079 35.319 37.6173 35.6445 37.2917C35.9701 36.9662 36.3607 36.8035 36.8164 36.8035ZM44.5312 33.8738H43.75V27.4773C43.75 26.2403 43.3024 25.1742 42.4072 24.2791C41.512 23.3839 40.446 22.9363 39.209 22.9363H35.1562V19.8113C35.1562 19.5834 35.083 19.3962 34.9365 19.2498C34.79 19.1033 34.6029 19.03 34.375 19.03H33.5938V15.5632L35.5957 14.196C35.6934 14.1309 35.7747 14.0414 35.8398 13.9275C35.9049 13.8136 35.9375 13.6915 35.9375 13.5613C35.9375 13.3334 35.8643 13.1462 35.7178 12.9998C35.5713 12.8533 35.3841 12.78 35.1562 12.78C35.0586 12.78 34.9772 12.7882 34.9121 12.8044C34.847 12.8207 34.7819 12.8614 34.7168 12.9265L32.373 14.489C32.2754 14.5541 32.194 14.6436 32.1289 14.7576C32.0638 14.8715 32.0312 14.9936 32.0312 15.1238V19.03H31.25C31.0221 19.03 30.835 19.1033 30.6885 19.2498C30.542 19.3962 30.4688 19.5834 30.4688 19.8113V22.9363H28.7109L24.4629 8.82495C24.6257 8.75985 24.7559 8.66219 24.8535 8.53198C24.9512 8.40178 25 8.25529 25 8.09253V6.33472C25 5.74878 24.7884 5.24422 24.3652 4.82104C23.9421 4.39787 23.4375 4.18628 22.8516 4.18628H8.39844C7.8125 4.18628 7.30794 4.39787 6.88477 4.82104C6.46159 5.24422 6.25 5.74878 6.25 6.33472V8.09253C6.25 8.28784 6.30697 8.4506 6.4209 8.58081C6.53483 8.71102 6.67318 8.7924 6.83594 8.82495L3.95508 21.032L0.195312 25.573C0.130208 25.6381 0.0813802 25.7113 0.0488281 25.7927C0.016276 25.8741 0 25.9636 0 26.0613C0 26.2891 0.0732422 26.4763 0.219727 26.6228C0.366211 26.7693 0.553385 26.8425 0.78125 26.8425H4.6875C4.78516 26.8425 4.88281 26.8181 4.98047 26.7693C5.07812 26.7205 5.15951 26.6635 5.22461 26.5984L6.15234 25.7195L6.68945 26.5984C4.73633 27.2494 3.13314 28.4132 1.87988 30.0896C0.626628 31.766 0 33.6785 0 35.8269C0 37.1941 0.260417 38.4636 0.78125 39.6355C1.26953 40.8074 1.96126 41.8409 2.85645 42.7361C3.75163 43.6313 4.78516 44.323 5.95703 44.8113C7.12891 45.3321 8.39844 45.5925 9.76562 45.5925C11.9792 45.5925 13.9404 44.9333 15.6494 43.615C17.3584 42.2966 18.5059 40.6283 19.0918 38.6101L19.1406 38.5613H29.6875C29.7201 40.5144 30.4281 42.1746 31.8115 43.5417C33.195 44.9089 34.8633 45.5925 36.8164 45.5925C38.7695 45.5925 40.4378 44.9089 41.8213 43.5417C43.2048 42.1746 43.9128 40.5144 43.9453 38.5613H44.5312C45.1823 38.5613 45.7357 38.3334 46.1914 37.8777C46.6471 37.422 46.875 36.8686 46.875 36.2175C46.875 35.5665 46.6471 35.0131 46.1914 34.5574C45.7357 34.1016 45.1823 33.8738 44.5312 33.8738ZM39.209 24.4988C40.0228 24.4988 40.7227 24.7917 41.3086 25.3777C41.8945 25.9636 42.1875 26.6635 42.1875 27.4773V33.825C41.5365 33.0763 40.7471 32.474 39.8193 32.0183C38.8916 31.5626 37.8906 31.3347 36.8164 31.3347C36.5234 31.3347 36.2305 31.351 35.9375 31.3835C35.6445 31.4161 35.3678 31.4812 35.1074 31.5789L35.1562 31.53V24.4988H39.209ZM32.0312 20.5925H33.5938V32.116C33.3008 32.2787 33.0241 32.4496 32.7637 32.6287C32.5033 32.8077 32.2591 32.9949 32.0312 33.1902V20.5925ZM27.0508 36.9988L25.3906 33.8738H27.3438V36.9988H27.0508ZM5.66406 20.5925L8.44727 8.87378H10.1562V20.5925H5.66406ZM11.7188 8.87378H13.2812V20.5925H11.7188V8.87378ZM14.8438 8.87378H22.8516L27.0508 22.9363H25.5859C25.5534 22.9363 25.5208 22.9363 25.4883 22.9363C25.4557 22.9363 25.4395 22.9363 25.4395 22.9363L24.3164 21.2761L24.707 21.032C24.8047 20.9669 24.8779 20.8774 24.9268 20.7634C24.9756 20.6495 25 20.5274 25 20.3972C25 20.1694 24.9268 19.9822 24.7803 19.8357C24.6338 19.6892 24.4466 19.616 24.2188 19.616C24.1211 19.616 24.0316 19.6322 23.9502 19.6648C23.8688 19.6973 23.7956 19.7299 23.7305 19.7625L21.3867 21.5203C21.2891 21.5854 21.2158 21.6749 21.167 21.7888C21.1182 21.9028 21.0938 22.0248 21.0938 22.155C21.0938 22.3829 21.167 22.5701 21.3135 22.7166C21.46 22.863 21.6471 22.9363 21.875 22.9363C21.9727 22.9363 22.0622 22.92 22.1436 22.8875C22.2249 22.8549 22.2982 22.8223 22.3633 22.7898L23.0957 22.2527L23.877 23.4734C23.5189 23.7338 23.2259 24.0756 22.998 24.4988C22.7702 24.922 22.6562 25.3777 22.6562 25.866V28.6492L18.6523 21.032C18.5872 20.9018 18.4977 20.796 18.3838 20.7146C18.2699 20.6332 18.1315 20.5925 17.9688 20.5925H14.8438V8.87378ZM25.5859 24.4988H27.3438V26.0613H24.2188V25.866C24.2188 25.4753 24.349 25.1498 24.6094 24.8894C24.8698 24.629 25.1953 24.4988 25.5859 24.4988ZM24.2188 27.6238H27.3438V29.1863H24.2188V27.6238ZM24.2188 31.6277C24.2188 31.5951 24.2188 31.5707 24.2188 31.5544C24.2188 31.5382 24.2188 31.53 24.2188 31.53V30.7488H27.3438V32.3113H24.5605L24.2188 31.6277ZM7.8125 6.33472C7.8125 6.17196 7.86947 6.03361 7.9834 5.91968C8.09733 5.80574 8.23568 5.74878 8.39844 5.74878H22.8516C23.0143 5.74878 23.1527 5.80574 23.2666 5.91968C23.3805 6.03361 23.4375 6.17196 23.4375 6.33472V7.31128H7.8125V6.33472ZM1.66016 37.0476L3.61328 35.7292C3.74349 35.6316 3.84115 35.5258 3.90625 35.4119C3.97135 35.2979 4.00391 35.1759 4.00391 35.0457C4.00391 34.8503 3.92253 34.6713 3.75977 34.5085C3.59701 34.3458 3.41797 34.2644 3.22266 34.2644C3.125 34.2644 3.04362 34.2807 2.97852 34.3132C2.91341 34.3458 2.84831 34.3783 2.7832 34.4109L1.61133 35.1921C1.67643 34.3783 1.84733 33.6134 2.12402 32.8972C2.40072 32.1811 2.76693 31.53 3.22266 30.9441H3.17383L5.51758 31.4324C5.55013 31.4324 5.57454 31.4324 5.59082 31.4324C5.6071 31.4324 5.63151 31.4324 5.66406 31.4324C5.89193 31.4324 6.0791 31.3591 6.22559 31.2126C6.37207 31.0662 6.44531 30.879 6.44531 30.6511C6.44531 30.4558 6.38835 30.2849 6.27441 30.1384C6.16048 29.9919 6.00586 29.9024 5.81055 29.8699L4.44336 29.6257C4.99674 29.1375 5.62337 28.7306 6.32324 28.405C7.02311 28.0795 7.7474 27.8516 8.49609 27.7214H8.54492L9.86328 29.7234C9.96094 29.821 10.0667 29.9024 10.1807 29.9675C10.2946 30.0326 10.4167 30.0652 10.5469 30.0652C10.7422 30.0652 10.9212 29.9919 11.084 29.8455C11.2467 29.699 11.3281 29.5118 11.3281 29.2839C11.3281 29.1863 11.3118 29.1049 11.2793 29.0398C11.2467 28.9747 11.2142 28.9096 11.1816 28.8445L10.4004 27.6726C11.2142 27.7377 11.9792 27.9086 12.6953 28.1853C13.4115 28.462 14.0625 28.8282 14.6484 29.2839L14.1602 31.5789C14.1602 31.6114 14.1602 31.644 14.1602 31.6765C14.1602 31.7091 14.1602 31.7416 14.1602 31.7742C14.1602 31.9695 14.2334 32.1485 14.3799 32.3113C14.5264 32.474 14.7135 32.5554 14.9414 32.5554C15.1367 32.5554 15.3076 32.4903 15.4541 32.3601C15.6006 32.2299 15.6901 32.0834 15.7227 31.9207L15.9668 30.5046C16.4551 31.0906 16.862 31.7253 17.1875 32.4089C17.513 33.0925 17.7409 33.825 17.8711 34.6062V34.655L15.8691 35.9734C15.7715 36.0385 15.6901 36.128 15.625 36.2419C15.5599 36.3559 15.5273 36.4779 15.5273 36.6082C15.5273 36.836 15.6006 37.0232 15.7471 37.1697C15.8936 37.3162 16.0807 37.3894 16.3086 37.3894C16.3737 37.3894 16.4469 37.3813 16.5283 37.365C16.6097 37.3487 16.6829 37.3243 16.748 37.2917L17.9199 36.4617C17.8548 37.2755 17.6839 38.0404 17.4072 38.7566C17.1305 39.4727 16.7643 40.1401 16.3086 40.7585V40.7097L14.0137 40.2703C13.9811 40.2703 13.9486 40.2621 13.916 40.2458C13.8835 40.2296 13.8509 40.2214 13.8184 40.2214C13.623 40.2214 13.444 40.3028 13.2812 40.4656C13.1185 40.6283 13.0371 40.8074 13.0371 41.0027C13.0371 41.198 13.1022 41.3689 13.2324 41.5154C13.3626 41.6619 13.5091 41.7514 13.6719 41.7839L15.0879 42.0769C14.502 42.5652 13.8672 42.9639 13.1836 43.2732C12.5 43.5824 11.7676 43.8022 10.9863 43.9324H10.9375L9.61914 41.9792C9.55404 41.849 9.46452 41.7514 9.35059 41.6863C9.23665 41.6212 9.11458 41.5886 8.98438 41.5886C8.75651 41.5886 8.56934 41.67 8.42285 41.8328C8.27637 41.9955 8.20312 42.1746 8.20312 42.3699C8.20312 42.4675 8.21126 42.5489 8.22754 42.614C8.24382 42.6791 8.26823 42.7442 8.30078 42.8093L9.13086 43.9812C8.31706 43.9161 7.55208 43.7452 6.83594 43.4685C6.11979 43.1918 5.45247 42.8256 4.83398 42.3699L4.88281 42.4187L5.32227 40.075C5.32227 40.0424 5.3304 40.018 5.34668 40.0017C5.36296 39.9854 5.37109 39.961 5.37109 39.9285C5.37109 39.7006 5.28971 39.5134 5.12695 39.3669C4.96419 39.2205 4.78516 39.1472 4.58984 39.1472C4.39453 39.1472 4.22363 39.2042 4.07715 39.3181C3.93066 39.432 3.84115 39.5867 3.80859 39.782L3.51562 41.1492C3.02734 40.5958 2.62858 39.9692 2.31934 39.2693C2.01009 38.5694 1.79036 37.8451 1.66016 37.0964V37.0476ZM9.76562 26.0613C9.50521 26.0613 9.25293 26.0776 9.00879 26.1101C8.76465 26.1427 8.51237 26.1752 8.25195 26.2078H8.30078L7.71484 25.28H15.918L22.1191 36.9988H19.4336C19.4661 36.836 19.4906 36.657 19.5068 36.4617C19.5231 36.2664 19.5312 36.0548 19.5312 35.8269C19.5312 34.4923 19.2708 33.2227 18.75 32.0183C18.2292 30.8464 17.5293 29.821 16.6504 28.9421C15.7715 28.0632 14.7461 27.3634 13.5742 26.8425C12.3698 26.3217 11.1003 26.0613 9.76562 26.0613ZM23.9258 36.9988L17.0898 24.157C17.0247 24.0268 16.9352 23.921 16.8213 23.8396C16.7074 23.7582 16.569 23.7175 16.4062 23.7175H6.25C6.15234 23.7175 6.05469 23.7419 5.95703 23.7908C5.85938 23.8396 5.77799 23.8966 5.71289 23.9617L4.3457 25.28H2.44141L5.0293 22.155H17.4805L25.293 36.9988H23.9258ZM28.9062 24.4988H30.4688V35.241C30.3385 35.5014 30.2165 35.7781 30.1025 36.071C29.9886 36.364 29.8991 36.657 29.834 36.95V36.9988H28.9062V24.4988ZM31.3965 39.6355L32.373 38.9519C32.4707 38.8542 32.5521 38.7566 32.6172 38.6589C32.6823 38.5613 32.7148 38.4473 32.7148 38.3171C32.7148 38.0893 32.6416 37.9021 32.4951 37.7556C32.3486 37.6091 32.1615 37.5359 31.9336 37.5359C31.8685 37.5359 31.7952 37.544 31.7139 37.5603C31.6325 37.5766 31.5592 37.601 31.4941 37.6335L31.2988 37.78C31.3639 37.3569 31.4697 36.95 31.6162 36.5593C31.7627 36.1687 31.9499 35.7944 32.1777 35.4363H32.1289L33.3496 35.6804C33.3822 35.6804 33.4066 35.6804 33.4229 35.6804C33.4391 35.6804 33.4635 35.6804 33.4961 35.6804C33.724 35.6804 33.9111 35.6072 34.0576 35.4607C34.2041 35.3142 34.2773 35.127 34.2773 34.8992C34.2773 34.7039 34.2122 34.533 34.082 34.3865C33.9518 34.24 33.8053 34.1505 33.6426 34.1179L33.3984 34.0691C33.724 33.8412 34.0658 33.6378 34.4238 33.4587C34.7819 33.2797 35.1725 33.1414 35.5957 33.0437H35.6445L36.3281 34.0691C36.4258 34.1667 36.5234 34.2481 36.6211 34.3132C36.7188 34.3783 36.8327 34.4109 36.9629 34.4109C37.1908 34.4109 37.3779 34.3295 37.5244 34.1667C37.6709 34.004 37.7441 33.825 37.7441 33.6296C37.7441 33.532 37.736 33.4425 37.7197 33.3611C37.7034 33.2797 37.679 33.2065 37.6465 33.1414L37.5 32.946C37.9232 33.0111 38.3301 33.1169 38.7207 33.2634C39.1113 33.4099 39.4857 33.5971 39.8438 33.825L39.5996 34.9968C39.5996 35.0294 39.5996 35.0619 39.5996 35.0945C39.5996 35.127 39.5996 35.1433 39.5996 35.1433C39.5996 35.3712 39.6729 35.5583 39.8193 35.7048C39.9658 35.8513 40.153 35.9246 40.3809 35.9246C40.5762 35.9246 40.7471 35.8676 40.8936 35.7537C41.04 35.6397 41.1296 35.4851 41.1621 35.2898L41.2109 35.0457C41.4388 35.3712 41.6423 35.7211 41.8213 36.0955C42.0003 36.4698 42.1387 36.8523 42.2363 37.2429V37.2917L41.2109 38.0242C41.1133 38.0893 41.0319 38.1788 40.9668 38.2927C40.9017 38.4067 40.8691 38.5287 40.8691 38.6589C40.8691 38.8542 40.9505 39.0333 41.1133 39.196C41.276 39.3588 41.4551 39.4402 41.6504 39.4402C41.748 39.4402 41.8376 39.4239 41.9189 39.3914C42.0003 39.3588 42.0736 39.3263 42.1387 39.2937L42.334 39.1472C42.2689 39.6029 42.1631 40.0261 42.0166 40.4167C41.8701 40.8074 41.6829 41.1654 41.4551 41.491L40.2832 41.2468C40.2507 41.2468 40.2262 41.2468 40.21 41.2468C40.1937 41.2468 40.1693 41.2468 40.1367 41.2468C39.9089 41.2468 39.7217 41.3282 39.5752 41.491C39.4287 41.6537 39.3555 41.8328 39.3555 42.0281C39.3555 42.2234 39.4124 42.3943 39.5264 42.5408C39.6403 42.6873 39.7949 42.7768 39.9902 42.8093L40.2344 42.8582C39.9089 43.086 39.5589 43.2895 39.1846 43.4685C38.8102 43.6475 38.4277 43.7859 38.0371 43.8835H37.9883L37.2559 42.907C37.1908 42.8093 37.1012 42.7279 36.9873 42.6628C36.8734 42.5977 36.7513 42.5652 36.6211 42.5652C36.4258 42.5652 36.2467 42.6384 36.084 42.7849C35.9212 42.9314 35.8398 43.1186 35.8398 43.3464C35.8398 43.4115 35.8561 43.4848 35.8887 43.5662C35.9212 43.6475 35.9538 43.7208 35.9863 43.7859L36.1328 43.9812C35.6771 43.9161 35.2539 43.8103 34.8633 43.6638C34.4727 43.5173 34.1146 43.3302 33.7891 43.1023V43.1511L34.0332 41.9304C34.0332 41.8979 34.0332 41.8735 34.0332 41.8572C34.0332 41.8409 34.0332 41.8165 34.0332 41.7839C34.0332 41.5886 33.9518 41.4096 33.7891 41.2468C33.6263 41.0841 33.4473 41.0027 33.252 41.0027C33.0566 41.0027 32.8857 41.0678 32.7393 41.198C32.5928 41.3282 32.5033 41.4747 32.4707 41.6375L32.4219 41.8816C32.194 41.5886 31.9906 41.255 31.8115 40.8806C31.6325 40.5063 31.4941 40.1075 31.3965 39.6843V39.6355ZM44.5312 36.9988H43.7988C43.7337 36.7058 43.6523 36.4291 43.5547 36.1687C43.457 35.9083 43.3431 35.6479 43.2129 35.3875L43.2617 35.4363H44.5312C44.7591 35.4363 44.9463 35.5095 45.0928 35.656C45.2393 35.8025 45.3125 35.9897 45.3125 36.2175C45.3125 36.4454 45.2393 36.6326 45.0928 36.7791C44.9463 36.9255 44.7591 36.9988 44.5312 36.9988ZM37.5 29.1863C37.7279 29.1863 37.915 29.113 38.0615 28.9666C38.208 28.8201 38.2812 28.6329 38.2812 28.405V26.8425C38.2812 26.6147 38.208 26.4275 38.0615 26.281C37.915 26.1345 37.7279 26.0613 37.5 26.0613C37.2721 26.0613 37.085 26.1345 36.9385 26.281C36.792 26.4275 36.7188 26.6147 36.7188 26.8425V28.405C36.7188 28.6329 36.792 28.8201 36.9385 28.9666C37.085 29.113 37.2721 29.1863 37.5 29.1863ZM39.8438 29.1863C40.0716 29.1863 40.2588 29.113 40.4053 28.9666C40.5518 28.8201 40.625 28.6329 40.625 28.405V26.8425C40.625 26.6147 40.5518 26.4275 40.4053 26.281C40.2588 26.1345 40.0716 26.0613 39.8438 26.0613C39.6159 26.0613 39.4287 26.1345 39.2822 26.281C39.1357 26.4275 39.0625 26.6147 39.0625 26.8425V28.405C39.0625 28.6329 39.1357 28.8201 39.2822 28.9666C39.4287 29.113 39.6159 29.1863 39.8438 29.1863Z" fill="white"/>
</svg>
