<svg width="50" height="51" viewBox="0 0 50 51" fill="none" xmlns="http://www.w3.org/2000/svg">
<path d="M48.4375 28.3562C48.4375 26.6635 48.0469 25.0522 47.2656 23.5222C46.4844 21.9923 45.4102 20.7065 44.043 19.6648C43.75 19.4695 43.4326 19.3149 43.0908 19.2009C42.749 19.087 42.3991 19.03 42.041 19.03C41.6178 19.03 41.2028 19.1114 40.7959 19.2742C40.389 19.4369 40.0391 19.6648 39.7461 19.9578C39.681 19.9252 39.624 19.8845 39.5752 19.8357C39.5264 19.7869 39.4694 19.7462 39.4043 19.7136C39.209 19.5183 38.9811 19.3718 38.7207 19.2742C38.4603 19.1765 38.1999 19.1114 37.9395 19.0789L38.2812 15.3191C38.2812 15.254 38.2812 15.197 38.2812 15.1482C38.2812 15.0994 38.2812 15.0587 38.2812 15.0261C38.2812 14.1798 37.9883 13.4636 37.4023 12.8777C36.8164 12.2917 36.1003 11.9988 35.2539 11.9988H35.0586C34.2122 11.9988 33.4961 12.2917 32.9102 12.8777C32.3242 13.4636 32.0312 14.1798 32.0312 15.0261C32.0312 15.0587 32.0312 15.0994 32.0312 15.1482C32.0312 15.197 32.0312 15.254 32.0312 15.3191L32.373 19.0789C32.1452 19.144 31.9092 19.2253 31.665 19.323C31.4209 19.4207 31.2012 19.5346 31.0059 19.6648C30.9408 19.7299 30.8757 19.795 30.8105 19.8601C30.7454 19.9252 30.6803 19.974 30.6152 20.0066C30.5827 19.974 30.5501 19.9415 30.5176 19.9089C30.485 19.8764 30.4362 19.8438 30.3711 19.8113C30.4036 19.6811 30.4281 19.5509 30.4443 19.4207C30.4606 19.2904 30.4688 19.1602 30.4688 19.03C30.4688 18.5417 30.3955 18.0616 30.249 17.5896C30.1025 17.1176 29.8828 16.6863 29.5898 16.2957C29.8828 15.905 30.1025 15.4737 30.249 15.0017C30.3955 14.5297 30.4688 14.0496 30.4688 13.5613C30.4688 12.2266 29.9805 11.0955 29.0039 10.1677C28.0273 9.23999 26.8555 8.80867 25.4883 8.87378C25.2604 8.15763 24.8698 7.53914 24.3164 7.01831C23.763 6.49748 23.1283 6.1394 22.4121 5.94409C21.9238 5.35815 21.3379 4.91056 20.6543 4.60132C19.9707 4.29207 19.2383 4.15373 18.457 4.18628C18.1315 3.27482 17.57 2.52612 16.7725 1.94019C15.9749 1.35425 15.0716 1.06128 14.0625 1.06128C13.2161 1.06128 12.4349 1.27287 11.7188 1.69604C11.0026 2.11922 10.4329 2.68888 10.0098 3.40503C8.9681 3.43758 8.04036 3.78752 7.22656 4.45483C6.41276 5.12215 5.87565 5.94409 5.61523 6.92065C4.41081 7.37638 3.43424 8.14136 2.68555 9.21558C1.93685 10.2898 1.5625 11.4779 1.5625 12.78C1.5625 13.8217 1.80664 14.7983 2.29492 15.7097C2.7832 16.6212 3.45052 17.3699 4.29688 17.9558C4.16667 18.2488 4.06901 18.5499 4.00391 18.8591C3.9388 19.1684 3.90625 19.4858 3.90625 19.8113C3.90625 20.5274 4.05273 21.1947 4.3457 21.8132C4.63867 22.4317 5.06185 22.9688 5.61523 23.4246C5.55013 23.5873 5.50944 23.7582 5.49316 23.9373C5.47689 24.1163 5.46875 24.3035 5.46875 24.4988C5.46875 25.7032 5.86751 26.7449 6.66504 27.6238C7.46256 28.5027 8.43099 29.0072 9.57031 29.1375L11.3281 33.9714C10.8724 34.297 10.4574 34.6632 10.083 35.0701C9.70866 35.477 9.375 35.9246 9.08203 36.4128L5.0293 35.4851C4.93164 35.4851 4.84212 35.477 4.76074 35.4607C4.67936 35.4444 4.60612 35.4363 4.54102 35.4363C3.92253 35.4363 3.40169 35.6479 2.97852 36.071C2.55534 36.4942 2.34375 37.0151 2.34375 37.6335V37.9265C2.34375 38.0567 2.35189 38.1707 2.36816 38.2683C2.38444 38.366 2.40885 38.4636 2.44141 38.5613H2.34375C1.69271 38.5613 1.13932 38.7891 0.683594 39.2449C0.227865 39.7006 0 40.254 0 40.905C0 41.5561 0.227865 42.1095 0.683594 42.5652C1.13932 43.0209 1.69271 43.2488 2.34375 43.2488H2.44141C2.40885 43.3464 2.38444 43.4441 2.36816 43.5417C2.35189 43.6394 2.34375 43.7533 2.34375 43.8835V44.1765C2.34375 44.795 2.55534 45.3158 2.97852 45.739C3.40169 46.1622 3.92253 46.3738 4.54102 46.3738C4.60612 46.3738 4.67936 46.3656 4.76074 46.3494C4.84212 46.3331 4.93164 46.325 5.0293 46.325L9.08203 45.3972C9.86328 46.6342 10.8968 47.627 12.1826 48.3757C13.4684 49.1244 14.8763 49.4988 16.4062 49.4988H16.6016C16.7969 49.4988 17.0085 49.4906 17.2363 49.4744C17.4642 49.4581 17.6921 49.4337 17.9199 49.4011L44.6777 45.2996C45.7845 45.1042 46.6878 44.5997 47.3877 43.7859C48.0876 42.9721 48.4375 42.0118 48.4375 40.905C48.4375 40.0261 48.2015 39.2286 47.7295 38.5125C47.2575 37.7963 46.6471 37.2592 45.8984 36.9011C46.7122 35.9571 47.3389 34.891 47.7783 33.7029C48.2178 32.5147 48.4375 31.2859 48.4375 30.0164V28.3562ZM38.4766 20.9343C39.6484 21.8132 40.5599 22.9281 41.2109 24.2791C41.862 25.63 42.1875 27.0541 42.1875 28.5515V31.3835C42.1875 32.1973 42.0898 32.9867 41.8945 33.7517C41.6992 34.5167 41.4062 35.2572 41.0156 35.9734L34.7656 34.9968C34.6354 34.4434 34.5378 33.8738 34.4727 33.2878C34.4076 32.7019 34.375 32.116 34.375 31.53V28.405C34.375 27.9819 34.3913 27.575 34.4238 27.1843C34.4564 26.7937 34.5052 26.4031 34.5703 26.0125C34.668 26.045 34.7656 26.0613 34.8633 26.0613C34.9609 26.0613 35.0586 26.0613 35.1562 26.0613C36.263 26.0613 37.1908 25.8416 37.9395 25.4021C38.6882 24.9626 39.0625 24.4011 39.0625 23.7175C39.0625 23.3595 38.9404 23.0177 38.6963 22.6921C38.4521 22.3666 38.1022 22.1062 37.6465 21.9109L37.793 20.6414C37.9232 20.6739 38.0452 20.7146 38.1592 20.7634C38.2731 20.8123 38.3789 20.8692 38.4766 20.9343ZM35.0586 13.5613H35.2539C35.6445 13.5613 35.9863 13.7078 36.2793 14.0007C36.5723 14.2937 36.7188 14.6355 36.7188 15.0261C36.7188 15.0587 36.7188 15.0831 36.7188 15.0994C36.7188 15.1156 36.7188 15.1401 36.7188 15.1726L35.9863 22.9363L36.6211 23.1316C36.9466 23.2618 37.1745 23.3839 37.3047 23.4978C37.4349 23.6117 37.5 23.685 37.5 23.7175C37.5 23.8152 37.2966 23.9698 36.8896 24.1814C36.4827 24.393 35.9049 24.4988 35.1562 24.4988C34.4076 24.4988 33.8298 24.393 33.4229 24.1814C33.0159 23.9698 32.8125 23.8152 32.8125 23.7175C32.8125 23.685 32.8776 23.6117 33.0078 23.4978C33.138 23.3839 33.3659 23.2618 33.6914 23.1316L34.3262 22.9363L33.5938 15.1726C33.5938 15.1401 33.5938 15.1156 33.5938 15.0994C33.5938 15.0831 33.5938 15.0587 33.5938 15.0261C33.5938 14.6355 33.7402 14.2937 34.0332 14.0007C34.3262 13.7078 34.668 13.5613 35.0586 13.5613ZM32.5195 20.6414L32.666 21.9109C32.2103 22.1062 31.8604 22.3666 31.6162 22.6921C31.3721 23.0177 31.25 23.3595 31.25 23.7175C31.25 24.1407 31.4128 24.5232 31.7383 24.865C32.0638 25.2068 32.5033 25.4916 33.0566 25.7195C32.9915 26.1427 32.9346 26.5821 32.8857 27.0378C32.8369 27.4936 32.8125 27.9493 32.8125 28.405V31.53C32.8125 32.0834 32.8369 32.6287 32.8857 33.1658C32.9346 33.7029 33.0078 34.2319 33.1055 34.7527L28.5156 34.0203C28.3854 33.5971 28.2878 33.1658 28.2227 32.7263C28.1576 32.2869 28.125 31.8393 28.125 31.3835V28.5515C28.125 27.0541 28.4587 25.63 29.126 24.2791C29.7933 22.9281 30.7292 21.8132 31.9336 20.9343C32.0312 20.8692 32.1289 20.8123 32.2266 20.7634C32.3242 20.7146 32.4219 20.6739 32.5195 20.6414ZM24.0723 33.3855C23.877 32.8321 23.7223 32.2787 23.6084 31.7253C23.4945 31.172 23.4375 30.6023 23.4375 30.0164V28.3562C23.4375 26.9239 23.7712 25.5486 24.4385 24.2302C25.1058 22.9119 26.0254 21.8132 27.1973 20.9343C27.36 20.8367 27.5309 20.7553 27.71 20.6902C27.889 20.6251 28.0762 20.5925 28.2715 20.5925C28.4993 20.5925 28.7191 20.6414 28.9307 20.739C29.1423 20.8367 29.3294 20.9506 29.4922 21.0808C28.5482 22.0899 27.8239 23.2374 27.3193 24.5232C26.8148 25.809 26.5625 27.1518 26.5625 28.5515V31.3835C26.5625 31.8067 26.5869 32.2136 26.6357 32.6042C26.6846 32.9949 26.7578 33.3855 26.8555 33.7761L24.0723 33.3855ZM24.1699 9.89917L24.3164 10.6804L25.0977 10.5339C25.2279 10.5014 25.3499 10.477 25.4639 10.4607C25.5778 10.4444 25.6836 10.4363 25.7812 10.4363C26.6276 10.4363 27.36 10.7455 27.9785 11.364C28.597 11.9825 28.9062 12.7149 28.9062 13.5613C28.9062 13.9845 28.833 14.3832 28.6865 14.7576C28.54 15.1319 28.3203 15.4656 28.0273 15.7585L27.4902 16.2957L28.0273 16.8328C28.3203 17.1257 28.54 17.4594 28.6865 17.8337C28.833 18.2081 28.9062 18.6069 28.9062 19.03C28.9062 19.03 28.9062 19.0382 28.9062 19.0544C28.9062 19.0707 28.9062 19.0789 28.9062 19.0789C28.8086 19.0789 28.7028 19.0707 28.5889 19.0544C28.4749 19.0382 28.3691 19.03 28.2715 19.03C27.9134 19.03 27.5635 19.087 27.2217 19.2009C26.8799 19.3149 26.5625 19.4695 26.2695 19.6648C25.5859 20.1856 24.9593 20.7878 24.3896 21.4714C23.82 22.155 23.3561 22.8712 22.998 23.6199C22.8353 23.1641 22.6807 22.7166 22.5342 22.2771C22.3877 21.8376 22.2331 21.4063 22.0703 20.9832C22.4284 19.0951 23.0876 17.6222 24.0479 16.5642C25.0081 15.5063 25.4883 14.961 25.4883 14.9285L25 14.3425L24.5117 13.7566C24.4466 13.7891 24.0072 14.2286 23.1934 15.075C22.3796 15.9213 21.6797 17.1095 21.0938 18.6394C20.2799 16.7839 19.5475 15.2947 18.8965 14.1716C18.2454 13.0486 17.8874 12.4382 17.8223 12.3406L16.5527 13.2195C16.5527 13.2195 16.805 13.6589 17.3096 14.5378C17.8141 15.4167 18.4245 16.6049 19.1406 18.1023C17.9688 17.6466 16.8376 17.4268 15.7471 17.4431C14.6566 17.4594 14.0625 17.4675 13.9648 17.4675L14.1602 19.03C14.7461 18.9649 15.7064 19.0056 17.041 19.1521C18.3757 19.2986 19.4336 19.7625 20.2148 20.5437C20.4753 21.2273 20.7357 21.9353 20.9961 22.6677C21.2565 23.4001 21.5169 24.157 21.7773 24.9382C20.5729 24.3523 19.3929 24.0024 18.2373 23.8884C17.0817 23.7745 16.4714 23.7175 16.4062 23.7175V25.28C16.4388 25.28 17.1224 25.3533 18.457 25.4998C19.7917 25.6462 20.9635 26.1264 21.9727 26.9402C21.9401 27.1681 21.9157 27.4041 21.8994 27.6482C21.8831 27.8923 21.875 28.1283 21.875 28.3562V30.0164C21.875 30.5372 21.9157 31.058 21.9971 31.5789C22.0785 32.0997 22.2005 32.6042 22.3633 33.0925L17.9199 32.4089C17.7897 32.4089 17.6676 32.4008 17.5537 32.3845C17.4398 32.3682 17.3177 32.3438 17.1875 32.3113C16.3411 32.3113 15.6087 32.0102 14.9902 31.408C14.3717 30.8057 14.0625 30.0652 14.0625 29.1863C14.0625 28.991 14.0788 28.8038 14.1113 28.6248C14.1439 28.4457 14.1927 28.2585 14.2578 28.0632L14.502 27.4773L13.9648 27.1355C13.5091 26.8425 13.151 26.46 12.8906 25.988C12.6302 25.516 12.5 25.0196 12.5 24.4988C12.5 24.2058 12.5407 23.9128 12.6221 23.6199C12.7035 23.3269 12.8418 23.0502 13.0371 22.7898L13.5254 22.0574L12.7441 21.6667C11.9303 21.2436 11.2956 20.6576 10.8398 19.9089C10.3841 19.1602 10.1562 18.3464 10.1562 17.4675C10.1562 16.4259 10.4736 15.49 11.1084 14.6599C11.7432 13.8298 12.5651 13.2683 13.5742 12.9753L14.0625 12.8289L14.1113 12.3406C14.209 11.5593 14.5508 10.9164 15.1367 10.4119C15.7227 9.90731 16.4062 9.65503 17.1875 9.65503C17.1875 9.65503 17.1956 9.65503 17.2119 9.65503C17.2282 9.65503 17.2526 9.65503 17.2852 9.65503C17.3177 9.65503 17.3421 9.66317 17.3584 9.67944C17.3747 9.69572 17.3991 9.70386 17.4316 9.70386L18.0176 9.75269L18.2129 9.21558C18.4733 8.62964 18.8639 8.16577 19.3848 7.82397C19.9056 7.48218 20.4753 7.31128 21.0938 7.31128C21.8424 7.31128 22.5098 7.55542 23.0957 8.0437C23.6816 8.53198 24.0397 9.15047 24.1699 9.89917ZM10.6934 27.6238H10.1562C9.3099 27.6238 8.57747 27.3145 7.95898 26.696C7.34049 26.0776 7.03125 25.3451 7.03125 24.4988C7.03125 24.3035 7.04753 24.1163 7.08008 23.9373C7.11263 23.7582 7.16146 23.571 7.22656 23.3757L7.4707 22.7898L6.93359 22.448C6.47786 22.155 6.11979 21.7725 5.85938 21.3005C5.59896 20.8285 5.46875 20.3321 5.46875 19.8113C5.46875 19.5183 5.50944 19.2253 5.59082 18.9324C5.6722 18.6394 5.81055 18.3627 6.00586 18.1023L6.49414 17.3699L5.71289 16.9792C4.89909 16.5561 4.26432 15.9701 3.80859 15.2214C3.35286 14.4727 3.125 13.6589 3.125 12.78C3.125 11.7384 3.44238 10.8025 4.07715 9.97241C4.71191 9.14233 5.53385 8.58081 6.54297 8.28784L7.03125 8.14136L7.08008 7.65308C7.17773 6.87183 7.51953 6.22892 8.10547 5.72437C8.69141 5.21981 9.375 4.96753 10.1562 4.96753C10.1562 4.96753 10.1644 4.96753 10.1807 4.96753C10.1969 4.96753 10.2214 4.96753 10.2539 4.96753C10.2865 4.96753 10.3109 4.97567 10.3271 4.99194C10.3434 5.00822 10.3678 5.01636 10.4004 5.01636L10.9863 5.06519L11.1816 4.52808C11.4421 3.94214 11.8327 3.47827 12.3535 3.13647C12.8743 2.79468 13.444 2.62378 14.0625 2.62378C14.8112 2.62378 15.4785 2.86792 16.0645 3.3562C16.6504 3.84448 17.0085 4.46297 17.1387 5.21167L17.2852 5.99292L18.0664 5.84644C18.1966 5.81388 18.3187 5.78947 18.4326 5.77319C18.5465 5.75692 18.6523 5.74878 18.75 5.74878C18.9453 5.74878 19.1243 5.76506 19.2871 5.79761C19.4499 5.83016 19.6126 5.87899 19.7754 5.94409C19.1895 6.10685 18.6605 6.37541 18.1885 6.74976C17.7165 7.1241 17.334 7.5717 17.041 8.09253C15.9993 8.12508 15.0716 8.47502 14.2578 9.14233C13.444 9.80965 12.9069 10.6316 12.6465 11.6082C11.4421 12.0639 10.4655 12.8289 9.7168 13.9031C8.9681 14.9773 8.59375 16.1654 8.59375 17.4675C8.59375 18.5092 8.83789 19.4858 9.32617 20.3972C9.81445 21.3087 10.4818 22.0574 11.3281 22.6433C11.1979 22.9363 11.1003 23.2374 11.0352 23.5466C10.9701 23.8559 10.9375 24.1733 10.9375 24.4988C10.9375 25.2149 11.084 25.8822 11.377 26.5007C11.6699 27.1192 12.0931 27.6563 12.6465 28.1121C12.5814 28.2748 12.5407 28.4457 12.5244 28.6248C12.5081 28.8038 12.5 28.991 12.5 29.1863C12.5 29.8699 12.6383 30.5128 12.915 31.115C13.1917 31.7172 13.5579 32.2299 14.0137 32.6531C13.7858 32.7182 13.5579 32.7914 13.3301 32.8728C13.1022 32.9542 12.8906 33.06 12.6953 33.1902L10.6934 27.6238ZM3.90625 37.9265V37.6335C3.90625 37.4382 3.98763 37.2755 4.15039 37.1453C4.31315 37.0151 4.49219 36.9662 4.6875 36.9988L8.39844 37.8289C8.33333 37.9591 8.2845 38.0811 8.25195 38.1951C8.2194 38.309 8.18685 38.4311 8.1543 38.5613H4.54102C4.37826 38.5613 4.23177 38.4962 4.10156 38.366C3.97135 38.2358 3.90625 38.0893 3.90625 37.9265ZM1.5625 40.905C1.5625 40.6772 1.63574 40.49 1.78223 40.3435C1.92871 40.197 2.11589 40.1238 2.34375 40.1238H7.86133C7.82878 40.254 7.8125 40.3842 7.8125 40.5144C7.8125 40.6446 7.8125 40.7748 7.8125 40.905C7.8125 41.0352 7.8125 41.1654 7.8125 41.2957C7.8125 41.4259 7.82878 41.5561 7.86133 41.6863H2.34375C2.11589 41.6863 1.92871 41.613 1.78223 41.4666C1.63574 41.3201 1.5625 41.1329 1.5625 40.905ZM4.6875 44.8113C4.49219 44.8438 4.31315 44.795 4.15039 44.6648C3.98763 44.5346 3.90625 44.3718 3.90625 44.1765V43.8835C3.90625 43.7208 3.97135 43.5743 4.10156 43.4441C4.23177 43.3139 4.37826 43.2488 4.54102 43.2488H8.1543C8.18685 43.379 8.2194 43.5011 8.25195 43.615C8.2845 43.7289 8.33333 43.851 8.39844 43.9812L4.6875 44.8113ZM46.875 40.905C46.875 41.6212 46.6471 42.2478 46.1914 42.7849C45.7357 43.322 45.1497 43.6394 44.4336 43.7371L17.6758 47.8386C17.4805 47.8712 17.2933 47.8956 17.1143 47.9119C16.9352 47.9281 16.7643 47.9363 16.6016 47.9363H16.4062C14.4531 47.9363 12.793 47.2527 11.4258 45.8855C10.0586 44.5183 9.375 42.8582 9.375 40.905C9.375 38.9519 10.0586 37.2917 11.4258 35.9246C12.793 34.5574 14.4531 33.8738 16.4062 33.8738H16.6016C16.7643 33.8738 16.9352 33.8819 17.1143 33.8982C17.2933 33.9145 17.4805 33.9389 17.6758 33.9714L44.4336 38.073C45.1497 38.1707 45.7357 38.488 46.1914 39.0251C46.6471 39.5623 46.875 40.1889 46.875 40.905ZM46.875 30.0164C46.875 31.2208 46.639 32.3764 46.167 33.4832C45.695 34.5899 45.0358 35.5828 44.1895 36.4617L42.6758 36.2175C43.0339 35.4688 43.3024 34.6876 43.4814 33.8738C43.6605 33.06 43.75 32.2299 43.75 31.3835V28.5515C43.75 27.1518 43.4977 25.809 42.9932 24.5232C42.4886 23.2374 41.7806 22.0899 40.8691 21.0808C41.0319 20.9181 41.2109 20.796 41.4062 20.7146C41.6016 20.6332 41.8132 20.5925 42.041 20.5925C42.2363 20.5925 42.4235 20.6251 42.6025 20.6902C42.7816 20.7553 42.9525 20.8367 43.1152 20.9343C44.2871 21.8132 45.2067 22.9119 45.874 24.2302C46.5413 25.5486 46.875 26.9239 46.875 28.3562V30.0164ZM15.625 36.9988H17.1875V44.8113H15.625V36.9988ZM21.875 36.9988H23.4375V44.8113H21.875V36.9988ZM28.125 36.9988H29.6875V44.8113H28.125V36.9988ZM34.375 38.5613H35.9375V43.2488H34.375V38.5613ZM40.625 39.3425H42.1875V42.4675H40.625V39.3425Z" fill="white"/>
</svg>
