<svg width="50" height="51" viewBox="0 0 50 51" fill="none" xmlns="http://www.w3.org/2000/svg">
<path d="M7.27539 32.8484C7.60091 33.1739 7.96712 33.4262 8.37402 33.6052C8.78092 33.7843 9.22852 33.8738 9.7168 33.8738H10.5957C11.084 33.8738 11.5316 33.7843 11.9385 33.6052C12.3454 33.4262 12.7116 33.1739 13.0371 32.8484C13.3626 32.5229 13.6149 32.1567 13.7939 31.7498C13.973 31.3429 14.0625 30.8953 14.0625 30.407C14.0625 29.6908 13.9811 28.9828 13.8184 28.283C13.6556 27.5831 13.4115 26.9076 13.0859 26.2566L10.8398 21.8132C10.7096 21.5528 10.4818 21.4226 10.1562 21.4226C9.83073 21.4226 9.60286 21.5528 9.47266 21.8132L7.22656 26.2566C6.90104 26.9076 6.6569 27.5831 6.49414 28.283C6.33138 28.9828 6.25 29.6908 6.25 30.407C6.25 30.8953 6.33952 31.3429 6.51855 31.7498C6.69759 32.1567 6.94987 32.5229 7.27539 32.8484ZM8.64258 26.9402L10.1562 23.9128L11.6699 26.9402C11.9303 27.4936 12.1338 28.0632 12.2803 28.6492C12.4268 29.2351 12.5 29.821 12.5 30.407C12.5 30.6674 12.4512 30.9115 12.3535 31.1394C12.2559 31.3673 12.1257 31.5789 11.9629 31.7742C11.7676 31.9369 11.556 32.0671 11.3281 32.1648C11.1003 32.2625 10.8561 32.3113 10.5957 32.3113H9.7168C9.45638 32.3113 9.21224 32.2625 8.98438 32.1648C8.75651 32.0671 8.54492 31.9369 8.34961 31.7742C8.18685 31.5789 8.05664 31.3673 7.95898 31.1394C7.86133 30.9115 7.8125 30.6674 7.8125 30.407C7.8125 29.821 7.88574 29.2351 8.03223 28.6492C8.17871 28.0632 8.38216 27.4936 8.64258 26.9402ZM34.375 33.8738H35.9375V41.6863H34.375V33.8738ZM34.375 43.2488H35.9375V44.8113H34.375V43.2488ZM46.0938 41.6863H39.0625V22.155C39.0625 21.9272 38.9893 21.74 38.8428 21.5935C38.6963 21.447 38.5091 21.3738 38.2812 21.3738H26.5625V9.65503C26.5625 9.55737 26.5462 9.45972 26.5137 9.36206C26.4811 9.2644 26.416 9.18303 26.3184 9.11792L23.4375 6.18823V1.84253C23.4375 1.61467 23.3643 1.42749 23.2178 1.28101C23.0713 1.13452 22.8841 1.06128 22.6562 1.06128H3.90625C3.67839 1.06128 3.49121 1.13452 3.34473 1.28101C3.19824 1.42749 3.125 1.61467 3.125 1.84253V6.18823L0.244141 9.11792C0.146484 9.18303 0.0813802 9.2644 0.0488281 9.36206C0.016276 9.45972 0 9.55737 0 9.65503V45.5925C0 45.8204 0.0732422 46.0076 0.219727 46.1541C0.366211 46.3005 0.553385 46.3738 0.78125 46.3738H21.9727C22.1354 47.2527 22.5749 47.9932 23.291 48.5955C24.0072 49.1977 24.8372 49.4988 25.7812 49.4988H41.4062C42.0573 49.4988 42.6107 49.2709 43.0664 48.8152C43.5221 48.3595 43.75 47.8061 43.75 47.155C43.75 46.9272 43.8232 46.74 43.9697 46.5935C44.1162 46.447 44.3034 46.3738 44.5312 46.3738H46.0938C46.7448 46.3738 47.2982 46.1459 47.7539 45.6902C48.2096 45.2345 48.4375 44.6811 48.4375 44.03C48.4375 43.379 48.2096 42.8256 47.7539 42.3699C47.2982 41.9141 46.7448 41.6863 46.0938 41.6863ZM37.5 29.7722C37.207 29.5769 36.9059 29.4304 36.5967 29.3328C36.2874 29.2351 35.9538 29.1863 35.5957 29.1863H34.7168C34.2285 29.1863 33.7809 29.2758 33.374 29.4548C32.9671 29.6339 32.6009 29.8861 32.2754 30.2117C32.0801 30.3744 31.8685 30.5046 31.6406 30.6023C31.4128 30.7 31.1686 30.7488 30.9082 30.7488H30.0293C29.7689 30.7488 29.5247 30.7 29.2969 30.6023C29.069 30.5046 28.8574 30.3744 28.6621 30.2117C28.3366 29.8861 27.9704 29.6339 27.5635 29.4548C27.1566 29.2758 26.709 29.1863 26.2207 29.1863H25.3418C24.9837 29.1863 24.6501 29.2351 24.3408 29.3328C24.0316 29.4304 23.7305 29.5769 23.4375 29.7722V22.9363H37.5V29.7722ZM25 21.3738H22.6562C22.4284 21.3738 22.2412 21.447 22.0947 21.5935C21.9482 21.74 21.875 21.9272 21.875 22.155V44.8113H20.3125V9.99683L22.6562 7.65308L25 9.99683V21.3738ZM4.24805 7.31128H20.752L19.1895 8.87378H2.68555L4.24805 7.31128ZM18.75 10.4363V16.6863H1.5625V10.4363H18.75ZM18.75 18.2488V36.9988H1.5625V18.2488H18.75ZM4.6875 2.62378H21.875V5.74878H4.6875V2.62378ZM1.5625 44.8113V38.5613H18.75V44.8113H1.5625ZM25.7812 47.9363C25.1302 47.9363 24.5768 47.7084 24.1211 47.2527C23.6654 46.797 23.4375 46.2436 23.4375 45.5925V31.8718L23.9746 31.2859C24.1699 31.1231 24.3815 30.9929 24.6094 30.8953C24.8372 30.7976 25.0814 30.7488 25.3418 30.7488H26.2207C26.4811 30.7488 26.7253 30.7976 26.9531 30.8953C27.181 30.9929 27.3926 31.1231 27.5879 31.2859C27.9134 31.6114 28.2796 31.8637 28.6865 32.0427C29.0934 32.2218 29.541 32.3113 30.0293 32.3113H30.9082C31.3965 32.3113 31.8441 32.2218 32.251 32.0427C32.6579 31.8637 33.0241 31.6114 33.3496 31.2859C33.5449 31.1231 33.7565 30.9929 33.9844 30.8953C34.2122 30.7976 34.4564 30.7488 34.7168 30.7488H35.5957C35.8561 30.7488 36.1003 30.7976 36.3281 30.8953C36.556 30.9929 36.7676 31.1231 36.9629 31.2859L37.5 31.8718V45.5925C37.5 46.2436 37.2721 46.797 36.8164 47.2527C36.3607 47.7084 35.8073 47.9363 35.1562 47.9363H25.7812ZM46.0938 44.8113H44.5312C43.8802 44.8113 43.3268 45.0391 42.8711 45.4949C42.4154 45.9506 42.1875 46.504 42.1875 47.155C42.1875 47.3829 42.1143 47.5701 41.9678 47.7166C41.8213 47.863 41.6341 47.9363 41.4062 47.9363H38.2812C38.5091 47.6108 38.6963 47.2527 38.8428 46.8621C38.9893 46.4714 39.0625 46.0483 39.0625 45.5925V43.2488H46.0938C46.3216 43.2488 46.5088 43.322 46.6553 43.4685C46.8018 43.615 46.875 43.8022 46.875 44.03C46.875 44.2579 46.8018 44.4451 46.6553 44.5916C46.5088 44.738 46.3216 44.8113 46.0938 44.8113Z" fill="white"/>
</svg>
