<svg width="90" height="67" viewBox="0 0 90 67" fill="none" xmlns="http://www.w3.org/2000/svg">
<rect x="1" y="1.5" width="64" height="64" rx="32" stroke="white" stroke-width="2"/>
<g clip-path="url(#clip0_4138_569)">
<path d="M88.6537 63.9727L70.7579 63.7695C70.0728 63.7617 69.2594 63.7578 68.3175 63.7578C67.3756 63.7578 66.5907 63.7617 65.9628 63.7695C65.2778 63.7773 64.9353 63.7866 64.9353 63.7974C64.9353 63.8081 65.2778 63.8171 65.9628 63.8242L77.9505 63.9609H5.42505C4.45462 63.9609 3.64117 63.9647 2.9847 63.9722C2.32823 63.9797 2 63.9889 2 64C2 64.0111 2.32823 64.0203 2.9847 64.0278C3.64117 64.0353 4.45462 64.0391 5.42505 64.0391H77.9505L65.9628 64.1758C65.2778 64.1829 64.9353 64.1919 64.9353 64.2026C64.9353 64.2134 65.2778 64.2227 65.9628 64.2305C66.5907 64.2383 67.3756 64.2422 68.3175 64.2422C69.2594 64.2422 70.0728 64.2383 70.7579 64.2305L88.6537 64.0273C89.3387 64.0202 89.6812 64.0111 89.6812 64C89.6812 63.9889 89.3387 63.9798 88.6537 63.9727Z" fill="white"/>
</g>
<defs>
<clipPath id="clip0_4138_569">
<rect width="87.6812" height="1" fill="white" transform="matrix(1 0 0 -1 2 64.5)"/>
</clipPath>
</defs>
</svg>
