<svg width="60" height="57" viewBox="0 0 60 57" fill="none" xmlns="http://www.w3.org/2000/svg">
<g clip-path="url(#clip0_4137_1169)">
<path d="M36.3488 32.2969H49.591C50.341 32.2969 50.9816 32.0312 51.5129 31.5C52.0441 30.9688 52.3097 30.3281 52.3097 29.5781V24.0234C52.3097 24.0234 52.3097 24.0195 52.3097 24.0117C52.3097 24.0039 52.3097 24 52.3097 24C52.3097 23.9844 52.3097 23.9766 52.3097 23.9766C52.3097 23.9766 52.3097 23.9688 52.3097 23.9531C52.3097 23.9531 52.3097 23.9492 52.3097 23.9414C52.3097 23.9336 52.3097 23.9297 52.3097 23.9297C52.3097 23.9297 52.3058 23.9258 52.298 23.918C52.2902 23.9102 52.2863 23.8984 52.2863 23.8828C52.2863 23.8828 52.2863 23.8789 52.2863 23.8711C52.2863 23.8633 52.2863 23.8594 52.2863 23.8594C52.2863 23.8594 52.2863 23.8555 52.2863 23.8477C52.2863 23.8398 52.2863 23.8359 52.2863 23.8359C52.2863 23.8203 52.2824 23.8125 52.2746 23.8125C52.2668 23.8125 52.2629 23.8047 52.2629 23.7891C52.2629 23.7891 52.2629 23.7852 52.2629 23.7773C52.2629 23.7695 52.2629 23.7656 52.2629 23.7656C52.2629 23.7656 52.259 23.7617 52.2511 23.7539C52.2433 23.7461 52.2394 23.7422 52.2394 23.7422C52.2394 23.7266 52.2394 23.7188 52.2394 23.7188C52.2238 23.7031 52.216 23.6953 52.216 23.6953C52.216 23.6953 52.216 23.6875 52.216 23.6719C52.216 23.6719 52.2082 23.6641 52.1926 23.6484C52.1926 23.6484 52.1926 23.6445 52.1926 23.6367C52.1926 23.6289 52.1926 23.625 52.1926 23.625C52.1769 23.625 52.1691 23.6211 52.1691 23.6133C52.1691 23.6055 52.1691 23.6016 52.1691 23.6016C52.1691 23.6016 52.1652 23.5977 52.1574 23.5898C52.1496 23.582 52.1457 23.5781 52.1457 23.5781C52.1457 23.5781 52.1418 23.5742 52.134 23.5664C52.1261 23.5586 52.1222 23.5547 52.1222 23.5547C52.1222 23.5547 52.1183 23.5508 52.1105 23.543C52.1027 23.5352 52.0988 23.5312 52.0988 23.5312C52.0988 23.5312 52.0949 23.5273 52.0871 23.5195C52.0793 23.5117 52.0754 23.5078 52.0754 23.5078C52.0754 23.5078 52.0715 23.5039 52.0636 23.4961C52.0558 23.4883 52.0519 23.4844 52.0519 23.4844C52.0519 23.4844 52.048 23.4805 52.0402 23.4727C52.0324 23.4648 52.0285 23.4609 52.0285 23.4609C52.0129 23.4609 52.0051 23.4609 52.0051 23.4609C51.9894 23.4609 51.9816 23.457 51.9816 23.4492C51.9816 23.4414 51.9738 23.4375 51.9582 23.4375C51.9582 23.4375 51.9582 23.4336 51.9582 23.4258C51.9582 23.418 51.9504 23.4141 51.9347 23.4141C51.9347 23.4141 51.9308 23.4141 51.923 23.4141C51.9152 23.4141 51.9113 23.4141 51.9113 23.4141C51.9113 23.3984 51.9074 23.3906 51.8996 23.3906C51.8918 23.3906 51.8879 23.3906 51.8879 23.3906C51.8722 23.3906 51.8644 23.3906 51.8644 23.3906C51.8644 23.3906 51.8566 23.3906 51.841 23.3906C51.841 23.375 51.8371 23.3672 51.8293 23.3672C51.8215 23.3672 51.8176 23.3672 51.8176 23.3672C51.8176 23.3672 51.8136 23.3672 51.8058 23.3672C51.798 23.3672 51.7941 23.3672 51.7941 23.3672C51.7941 23.3672 51.7902 23.3672 51.7824 23.3672C51.7746 23.3672 51.7629 23.3672 51.7472 23.3672C51.7472 23.3672 51.7472 23.3633 51.7472 23.3555C51.7472 23.3477 51.7394 23.3438 51.7238 23.3438L34.966 21.0469V18.7031C34.966 18.6875 34.966 18.6758 34.966 18.668C34.966 18.6602 34.966 18.6484 34.966 18.6328C34.966 18.6328 34.966 18.625 34.966 18.6094C34.966 18.6094 34.966 18.6055 34.966 18.5977C34.966 18.5898 34.966 18.5781 34.966 18.5625C34.9504 18.5625 34.9426 18.5586 34.9426 18.5508C34.9426 18.543 34.9426 18.5391 34.9426 18.5391C34.9426 18.5234 34.9426 18.5156 34.9426 18.5156C34.9426 18.5 34.9426 18.4883 34.9426 18.4805C34.9426 18.4727 34.9347 18.4688 34.9191 18.4688C34.9191 18.4688 34.9191 18.4648 34.9191 18.457C34.9191 18.4492 34.9191 18.4453 34.9191 18.4453C34.9191 18.4297 34.9191 18.4219 34.9191 18.4219C34.9191 18.4219 34.9113 18.4141 34.8957 18.3984C34.8957 18.3984 34.8957 18.3945 34.8957 18.3867C34.8957 18.3789 34.8957 18.375 34.8957 18.375C34.8957 18.375 34.8918 18.3711 34.884 18.3633C34.8761 18.3555 34.8722 18.3516 34.8722 18.3516C34.8722 18.3516 34.8722 18.3477 34.8722 18.3398C34.8722 18.332 34.8644 18.3281 34.8488 18.3281C34.8488 18.3281 34.8488 18.3242 34.8488 18.3164C34.8488 18.3086 34.8488 18.3047 34.8488 18.3047C34.8488 18.3047 34.8449 18.3008 34.8371 18.293C34.8293 18.2852 34.8254 18.2812 34.8254 18.2812C34.8254 18.2812 34.8215 18.2773 34.8136 18.2695C34.8058 18.2617 34.8019 18.2578 34.8019 18.2578C34.8019 18.2578 34.798 18.2539 34.7902 18.2461C34.7824 18.2383 34.7785 18.2344 34.7785 18.2344C34.7785 18.2344 34.7785 18.2305 34.7785 18.2227C34.7785 18.2148 34.7707 18.2109 34.7551 18.2109C34.7551 18.2109 34.7511 18.207 34.7433 18.1992C34.7355 18.1914 34.7316 18.1875 34.7316 18.1875C34.7316 18.1875 34.7277 18.1836 34.7199 18.1758C34.7121 18.168 34.7082 18.1641 34.7082 18.1641C34.7082 18.1641 34.7043 18.1641 34.6965 18.1641C34.6886 18.1641 34.6847 18.1562 34.6847 18.1406C34.6691 18.1406 34.6574 18.1367 34.6496 18.1289C34.6418 18.1211 34.6379 18.1172 34.6379 18.1172C34.6222 18.1016 34.6066 18.0938 34.591 18.0938C34.5754 18.0938 34.5676 18.0859 34.5676 18.0703L30.9347 16.5469C30.7629 16.4844 30.591 16.4883 30.4191 16.5586C30.2472 16.6289 30.1222 16.7422 30.0441 16.8984C29.9816 17.0703 29.9855 17.2422 30.0558 17.4141C30.1261 17.5859 30.2472 17.7109 30.4191 17.7891L33.6301 19.1484V33.7266C33.6301 34.4141 33.8605 35.0156 34.3215 35.5312C34.7824 36.0469 35.341 36.3438 35.9972 36.4219C35.8879 36.625 35.798 36.8438 35.7277 37.0781C35.6574 37.3125 35.6222 37.5547 35.6222 37.8047C35.6222 38.5547 35.884 39.1914 36.4074 39.7148C36.9308 40.2383 37.5676 40.5 38.3176 40.5C39.0519 40.5 39.6808 40.2383 40.2043 39.7148C40.7277 39.1914 40.9894 38.5547 40.9894 37.8047C40.9894 37.5703 40.9582 37.3359 40.8957 37.1016C40.8332 36.8672 40.7472 36.6484 40.6379 36.4453H46.6144C46.5051 36.6484 46.4152 36.8672 46.3449 37.1016C46.2746 37.3359 46.2394 37.5703 46.2394 37.8047C46.2394 38.5547 46.5051 39.1914 47.0363 39.7148C47.5676 40.2383 48.2004 40.5 48.9347 40.5C49.6691 40.5 50.3019 40.2383 50.8332 39.7148C51.3644 39.1914 51.6301 38.5547 51.6301 37.8047C51.6301 37.0703 51.3644 36.4414 50.8332 35.918C50.3019 35.3945 49.6691 35.1328 48.9347 35.1328H36.3488C35.9738 35.1328 35.6496 34.9961 35.3761 34.7227C35.1027 34.4492 34.966 34.1172 34.966 33.7266V31.9219C35.1691 32.0469 35.3879 32.1406 35.6222 32.2031C35.8566 32.2656 36.0988 32.2969 36.3488 32.2969ZM39.6769 37.8047C39.6769 38.1797 39.5441 38.5 39.2785 38.7656C39.0129 39.0312 38.6926 39.1641 38.3176 39.1641C37.9426 39.1641 37.6222 39.0312 37.3566 38.7656C37.091 38.5 36.9582 38.1797 36.9582 37.8047C36.9582 37.4297 37.091 37.1094 37.3566 36.8438C37.6222 36.5781 37.9426 36.4453 38.3176 36.4453C38.6926 36.4453 39.0129 36.5781 39.2785 36.8438C39.5441 37.1094 39.6769 37.4297 39.6769 37.8047ZM50.2941 37.8047C50.2941 38.1797 50.1613 38.5 49.8957 38.7656C49.6301 39.0312 49.3097 39.1641 48.9347 39.1641C48.5597 39.1641 48.2394 39.0312 47.9738 38.7656C47.7082 38.5 47.5754 38.1797 47.5754 37.8047C47.5754 37.4297 47.7082 37.1094 47.9738 36.8438C48.2394 36.5781 48.5597 36.4453 48.9347 36.4453C49.3097 36.4453 49.6301 36.5781 49.8957 36.8438C50.1613 37.1094 50.2941 37.4297 50.2941 37.8047ZM49.591 30.9609H36.3488C35.9738 30.9609 35.6496 30.8281 35.3761 30.5625C35.1027 30.2969 34.966 29.9688 34.966 29.5781V22.3828L50.9738 24.5859V29.5781C50.9738 29.9688 50.8371 30.2969 50.5636 30.5625C50.2902 30.8281 49.966 30.9609 49.591 30.9609Z" fill="#1F1E17"/>
</g>
<rect x="44" y="12.5" width="16" height="16" rx="8" fill="#4BAF47"/>
<path d="M52.1779 24.165C51.6389 24.165 51.1623 24.0477 50.7479 23.813C50.3336 23.5747 50.0073 23.2483 49.7689 22.834C49.5343 22.4197 49.4169 21.943 49.4169 21.404V18.676C49.4169 18.137 49.5343 17.6603 49.7689 17.246C50.0073 16.8317 50.3336 16.5072 50.7479 16.2725C51.1623 16.0342 51.6389 15.915 52.1779 15.915C52.7169 15.915 53.1936 16.0342 53.6079 16.2725C54.0223 16.5072 54.3468 16.8317 54.5814 17.246C54.8198 17.6603 54.9389 18.137 54.9389 18.676V21.404C54.9389 21.943 54.8198 22.4197 54.5814 22.834C54.3468 23.2483 54.0223 23.5747 53.6079 23.813C53.1936 24.0477 52.7169 24.165 52.1779 24.165ZM52.1779 23.065C52.4713 23.065 52.7371 22.9953 52.9754 22.856C53.2174 22.713 53.4099 22.5223 53.5529 22.284C53.6959 22.042 53.7674 21.7725 53.7674 21.4755V18.5935C53.7674 18.3002 53.6959 18.0343 53.5529 17.796C53.4099 17.554 53.2174 17.3633 52.9754 17.224C52.7371 17.081 52.4713 17.0095 52.1779 17.0095C51.8846 17.0095 51.6169 17.081 51.3749 17.224C51.1366 17.3633 50.9459 17.554 50.8029 17.796C50.6599 18.0343 50.5884 18.3002 50.5884 18.5935V21.4755C50.5884 21.7725 50.6599 22.042 50.8029 22.284C50.9459 22.5223 51.1366 22.713 51.3749 22.856C51.6169 22.9953 51.8846 23.065 52.1779 23.065Z" fill="white"/>
<defs>
<clipPath id="clip0_4137_1169">
<rect width="24" height="24" fill="white" transform="matrix(1 0 0 -1 30 40.5)"/>
</clipPath>
</defs>
</svg>
