<svg width="50" height="51" viewBox="0 0 50 51" fill="none" xmlns="http://www.w3.org/2000/svg">
<rect y="0.0299072" width="50" height="50" rx="25" fill="#4BAF47"/>
<g clip-path="url(#clip0_4133_2498)">
<path d="M39.0694 33.0924C39.7323 33.0924 40.2957 33.1015 40.7598 33.1198C41.2238 33.138 41.4558 33.1601 41.4558 33.1862V33.6549C41.4558 33.6979 41.2487 33.7386 40.8344 33.777C40.42 33.8147 39.8524 33.8478 39.1315 33.8761C38.4106 33.9044 37.5695 33.9267 36.6083 33.943C35.6305 33.9593 34.5947 33.9674 33.5009 33.9674H33.1031C32.7717 33.9674 32.49 33.9628 32.2579 33.9537C32.0259 33.9446 31.9099 33.9336 31.9099 33.9205V33.8268C31.9099 33.8138 32.0259 33.8027 32.2579 33.7936C32.49 33.7845 32.7717 33.7799 33.1031 33.7799H33.5009C34.3793 33.7799 35.1292 33.7677 35.7507 33.7433C36.3721 33.7189 36.6829 33.6894 36.6829 33.6549V33.5299H32.7054C32.0425 33.5299 31.479 33.5208 31.015 33.5026C30.5509 33.4843 30.3189 33.4622 30.3189 33.4362V33.1862C30.3189 33.1601 30.5509 33.138 31.015 33.1198C31.479 33.1015 32.0425 33.0924 32.7054 33.0924H39.0694ZM24.7504 33.0924C25.4134 33.0924 25.9768 33.1015 26.4409 33.1198C26.9049 33.138 27.1369 33.1601 27.1369 33.1862V33.6549C27.1369 33.6979 26.9298 33.7386 26.5155 33.777C26.1011 33.8147 25.5335 33.8478 24.8126 33.8761C24.0917 33.9044 23.2506 33.9267 22.2894 33.943C21.3116 33.9593 20.2758 33.9674 19.182 33.9674H18.7842C18.4528 33.9674 18.171 33.9628 17.939 33.9537C17.707 33.9446 17.591 33.9336 17.591 33.9205V33.8268C17.591 33.8138 17.707 33.8027 17.939 33.7936C18.171 33.7845 18.4528 33.7799 18.7842 33.7799H19.182C20.0603 33.7799 20.8103 33.7677 21.4317 33.7433C22.0532 33.7189 22.364 33.6894 22.364 33.6549V33.5299H18.3865C17.7236 33.5299 17.1601 33.5208 16.6961 33.5026C16.232 33.4843 16 33.4622 16 33.4362V33.1862C16 33.1601 16.232 33.138 16.6961 33.1198C17.1601 33.1015 17.7236 33.0924 18.3865 33.0924H24.7504Z" fill="white"/>
</g>
<defs>
<clipPath id="clip0_4133_2498">
<rect width="25.4558" height="1" fill="white" transform="matrix(1 0 0 -1 16 34.0299)"/>
</clipPath>
</defs>
</svg>
