<svg width="84" height="86" viewBox="0 0 84 86" fill="none" xmlns="http://www.w3.org/2000/svg">
<path d="M14.9297 56.4551C13.0703 56.4551 11.4707 57.125 10.1309 58.4648C8.79102 59.8047 8.12109 61.4043 8.12109 63.2637C8.12109 65.123 8.79102 66.709 10.1309 68.0215C11.4707 69.334 13.0703 69.9902 14.9297 69.9902C16.7891 69.9902 18.375 69.334 19.6875 68.0215C21 66.709 21.6562 65.123 21.6562 63.2637C21.6562 61.4043 21 59.8047 19.6875 58.4648C18.375 57.125 16.7891 56.4551 14.9297 56.4551ZM14.9297 67.2832C13.7812 67.2832 12.8105 66.8867 12.0176 66.0938C11.2246 65.3008 10.8281 64.3574 10.8281 63.2637C10.8281 62.1152 11.2246 61.1445 12.0176 60.3516C12.8105 59.5586 13.7812 59.1621 14.9297 59.1621C16.0234 59.1621 16.9668 59.5586 17.7598 60.3516C18.5527 61.1445 18.9492 62.1152 18.9492 63.2637C18.9492 64.3574 18.5527 65.3008 17.7598 66.0938C16.9668 66.8867 16.0234 67.2832 14.9297 67.2832ZM72.7617 40.2129L76.4531 42.6738C76.5625 42.7832 76.6855 42.8516 76.8223 42.8789C76.959 42.9062 77.082 42.9199 77.1914 42.9199H82.6055C82.9883 42.9199 83.3164 42.7832 83.5898 42.5098C83.8633 42.2363 84 41.9082 84 41.5254V36.1113C84 35.7832 83.8633 35.4824 83.5898 35.209C83.3164 34.9355 82.9883 34.7988 82.6055 34.7988H80.3086L76.6172 32.3379C76.5078 32.2285 76.3848 32.1602 76.248 32.1328C76.1113 32.1055 75.9883 32.0918 75.8789 32.0918H70.4648V15.8496H71.7773C72.1602 15.8496 72.4883 15.7129 72.7617 15.4395C73.0352 15.166 73.1719 14.8379 73.1719 14.4551V9.04102C73.1719 8.6582 73.0352 8.34375 72.7617 8.09766C72.4883 7.85156 72.1602 7.72852 71.7773 7.72852H42C41.8359 7.72852 41.6719 7.75586 41.5078 7.81055C41.3438 7.86523 41.1797 7.94727 41.0156 8.05664L35.6016 13.4707C35.4375 13.6895 35.3281 13.9355 35.2734 14.209C35.2188 14.4824 35.2461 14.7285 35.3555 14.9473C35.4648 15.2207 35.6289 15.4395 35.8477 15.6035C36.0664 15.7676 36.3125 15.8496 36.5859 15.8496H67.7578V22.5762H63.6562C63.2734 22.5762 62.959 22.7129 62.7129 22.9863C62.4668 23.2598 62.3438 23.5879 62.3438 23.9707V30.6973C62.3438 31.0801 62.207 31.4082 61.9336 31.6816C61.6602 31.9551 61.332 32.0918 60.9492 32.0918H52.8281C52.4453 32.0918 52.1309 32.2285 51.8848 32.502C51.6387 32.7754 51.5156 33.0762 51.5156 33.4043V38.8184C51.5156 39.2012 51.6387 39.5293 51.8848 39.8027C52.1309 40.0762 52.4453 40.2129 52.8281 40.2129H55.4531L43.8867 48.5801C43.7227 48.7441 43.5996 48.9219 43.5176 49.1133C43.4355 49.3047 43.3945 49.5098 43.3945 49.7285V53.748H35.1914V51.041H36.5859C36.9688 51.041 37.2832 50.9043 37.5293 50.6309C37.7754 50.3574 37.8984 50.0566 37.8984 49.7285V45.627H42C42.1641 45.627 42.3281 45.5996 42.4922 45.5449C42.6562 45.4902 42.8203 45.3809 42.9844 45.2168L45.6914 42.5098L43.7227 40.623L41.4258 42.9199H37.8984V39.3926L50.1211 27.252L51.8438 28.9746L53.8125 27.0879L48.3984 21.6738L46.4297 23.5605L48.2344 25.2832L37.8984 35.6191V33.4043C37.8984 33.0762 37.7754 32.7754 37.5293 32.502C37.2832 32.2285 36.9688 32.0918 36.5859 32.0918H32.4844V30.6973C32.4844 30.3691 32.3613 30.0684 32.1152 29.7949C31.8691 29.5215 31.5547 29.3848 31.1719 29.3848H29.7773V22.5762C29.7773 21.4824 29.3809 20.5391 28.5879 19.7461C27.7949 18.9531 26.8516 18.5566 25.7578 18.5566H21.6562V21.2637H25.7578C26.1406 21.2637 26.4551 21.3867 26.7012 21.6328C26.9473 21.8789 27.0703 22.1934 27.0703 22.5762V29.3848H25.7578C25.375 29.3848 25.0469 29.5215 24.7734 29.7949C24.5 30.0684 24.3633 30.3691 24.3633 30.6973V34.7988H14.9297C13.7812 34.7988 12.8105 35.1953 12.0176 35.9883C11.2246 36.7812 10.8281 37.7246 10.8281 38.8184V50.3027C10.5 50.4121 10.1582 50.5352 9.80273 50.6719C9.44727 50.8086 9.10547 50.959 8.77734 51.123L7.71094 50.0566C7.4375 49.8379 7.12305 49.7285 6.76758 49.7285C6.41211 49.7285 6.09766 49.8379 5.82422 50.0566L1.72266 54.1582C1.50391 54.4316 1.39453 54.7461 1.39453 55.1016C1.39453 55.457 1.50391 55.7715 1.72266 56.0449L2.78906 57.1113C2.625 57.4395 2.48828 57.7812 2.37891 58.1367C2.26953 58.4922 2.13281 58.834 1.96875 59.1621H1.39453C1.01172 59.1621 0.683594 59.2988 0.410156 59.5723C0.136719 59.8457 0 60.1738 0 60.5566V65.9707C0 66.3535 0.136719 66.668 0.410156 66.9141C0.683594 67.1602 1.01172 67.2832 1.39453 67.2832H1.96875C2.07812 67.666 2.20117 68.0215 2.33789 68.3496C2.47461 68.6777 2.65234 69.0059 2.87109 69.334L1.72266 70.4004C1.50391 70.6738 1.39453 71.002 1.39453 71.3848C1.39453 71.7676 1.50391 72.0957 1.72266 72.3691L5.82422 76.3887C6.09766 76.6621 6.41211 76.7988 6.76758 76.7988C7.12305 76.7988 7.4375 76.6621 7.71094 76.3887L8.77734 75.3223C9.10547 75.4863 9.44727 75.6367 9.80273 75.7734C10.1582 75.9102 10.5 76.0332 10.8281 76.1426V76.7988C10.8281 77.1816 10.9648 77.4961 11.2383 77.7422C11.5117 77.9883 11.8398 78.1113 12.2227 78.1113H17.6367C18.0195 78.1113 18.334 77.9883 18.5801 77.7422C18.8262 77.4961 18.9492 77.1816 18.9492 76.7988V76.1426C19.332 76.0332 19.6875 75.9102 20.0156 75.7734C20.3438 75.6367 20.6719 75.4863 21 75.3223L22.0664 76.3887C22.3398 76.6621 22.668 76.7988 23.0508 76.7988C23.4336 76.7988 23.7344 76.6621 23.9531 76.3887L28.0547 72.3691C28.3281 72.0957 28.4648 71.7676 28.4648 71.3848C28.4648 71.002 28.3281 70.6738 28.0547 70.4004L26.9883 69.334C27.1523 69.0059 27.3027 68.6777 27.4395 68.3496C27.5762 68.0215 27.6992 67.666 27.8086 67.2832H28.4648C28.8477 67.2832 29.1621 67.1602 29.4082 66.9141C29.6543 66.668 29.7773 66.3535 29.7773 65.9707V64.5762H32.4844V65.9707C32.4844 66.3535 32.6211 66.668 32.8945 66.9141C33.168 67.1602 33.4961 67.2832 33.8789 67.2832H44.707C45.0898 67.2832 45.418 67.1602 45.6914 66.9141C45.9648 66.668 46.1016 66.3535 46.1016 65.9707V64.5762H50.6953C50.8594 65.2871 51.0781 65.9844 51.3516 66.668C51.625 67.3516 51.9531 67.9941 52.3359 68.5957L51.8438 69.0879C51.7344 69.1973 51.6523 69.334 51.5977 69.498C51.543 69.6621 51.5156 69.8262 51.5156 69.9902C51.5156 70.209 51.543 70.4004 51.5977 70.5645C51.6523 70.7285 51.7344 70.8652 51.8438 70.9746L55.9453 75.0762C56.2188 75.2949 56.5469 75.4043 56.9297 75.4043C57.3125 75.4043 57.6133 75.2949 57.832 75.0762L58.3242 74.584C58.9258 74.9668 59.5684 75.2949 60.252 75.5684C60.9355 75.8418 61.6328 76.0879 62.3438 76.3066V76.7988C62.3438 77.1816 62.4668 77.4961 62.7129 77.7422C62.959 77.9883 63.2734 78.1113 63.6562 78.1113H69.0703C69.4531 78.1113 69.7812 77.9883 70.0547 77.7422C70.3281 77.4961 70.4648 77.1816 70.4648 76.7988V76.3066C71.1758 76.0879 71.873 75.8418 72.5566 75.5684C73.2402 75.2949 73.8828 74.9668 74.4844 74.584L74.8945 75.0762C75.0586 75.1855 75.2227 75.2676 75.3867 75.3223C75.5508 75.377 75.7148 75.4043 75.8789 75.4043C76.043 75.4043 76.207 75.377 76.3711 75.3223C76.5352 75.2676 76.6992 75.1855 76.8633 75.0762L80.8828 70.9746C81.1562 70.7012 81.293 70.373 81.293 69.9902C81.293 69.6074 81.1562 69.3066 80.8828 69.0879L80.4727 68.6777C80.8555 68.0215 81.1836 67.3516 81.457 66.668C81.7305 65.9844 81.9492 65.2871 82.1133 64.5762H82.6055C82.9883 64.5762 83.3164 64.4531 83.5898 64.207C83.8633 63.9609 84 63.6465 84 63.2637V57.8496C84 57.4668 83.8633 57.1387 83.5898 56.8652C83.3164 56.5918 82.9883 56.4551 82.6055 56.4551H82.1133C81.9492 55.7441 81.7305 55.0605 81.457 54.4043C81.1836 53.748 80.8555 53.0918 80.4727 52.4355L80.8828 52.0254C80.9922 51.8613 81.0879 51.6973 81.1699 51.5332C81.252 51.3691 81.293 51.2051 81.293 51.041C81.293 50.877 81.252 50.7129 81.1699 50.5488C81.0879 50.3848 80.9922 50.2207 80.8828 50.0566L76.8633 46.0371C76.5898 45.7637 76.2617 45.627 75.8789 45.627C75.4961 45.627 75.168 45.7637 74.8945 46.0371L74.4844 46.4473C73.8281 46.0645 73.1719 45.7363 72.5156 45.4629C71.8594 45.1895 71.1758 44.9707 70.4648 44.8066V44.3145C70.4648 43.9316 70.3281 43.6035 70.0547 43.3301C69.7812 43.0566 69.4531 42.9199 69.0703 42.9199H67.7578V40.2129H72.7617ZM42.5742 10.4355H70.4648V13.1426H39.8672L42.5742 10.4355ZM79.1602 37.2598C79.2695 37.3691 79.3926 37.4375 79.5293 37.4648C79.666 37.4922 79.7891 37.5059 79.8984 37.5059H81.293V40.2129H77.6016L73.9102 37.752C73.8008 37.6426 73.6777 37.5742 73.541 37.5469C73.4043 37.5195 73.2812 37.5059 73.1719 37.5059H66.9375L69.6445 34.7988H75.4688L79.1602 37.2598ZM54.2227 34.7988H60.9492C62.0977 34.7988 63.0684 34.4023 63.8613 33.6094C64.6543 32.8164 65.0508 31.8457 65.0508 30.6973V25.2832H67.7578V32.9121L63.082 37.5059H54.2227V34.7988ZM43.3945 56.4551V59.1621H35.1914V56.4551H43.3945ZM32.4844 38.8184V34.7988H35.1914V48.334H29.7773V40.2129H31.1719C31.5547 40.2129 31.8691 40.0762 32.1152 39.8027C32.3613 39.5293 32.4844 39.2012 32.4844 38.8184ZM27.0703 32.0918H29.7773V37.5059H27.0703V32.0918ZM14.9297 37.5059H18.9492V42.9199H13.5352V38.8184C13.5352 38.4902 13.6719 38.1895 13.9453 37.916C14.2188 37.6426 14.5469 37.5059 14.9297 37.5059ZM27.0703 64.5762H26.7422C26.4141 64.5762 26.127 64.6719 25.8809 64.8633C25.6348 65.0547 25.4844 65.3145 25.4297 65.6426C25.3203 66.2441 25.1562 66.8184 24.9375 67.3652C24.7188 67.9121 24.4453 68.4043 24.1172 68.8418C23.9531 69.1152 23.8984 69.416 23.9531 69.7441C24.0078 70.0723 24.1445 70.3457 24.3633 70.5645L25.1836 71.3848L23.0508 73.5176L22.2305 72.6973C22.0117 72.4785 21.7383 72.3418 21.4102 72.2871C21.082 72.2324 20.7812 72.2871 20.5078 72.4512C20.0156 72.7793 19.4961 73.0527 18.9492 73.2715C18.4023 73.4902 17.8555 73.6816 17.3086 73.8457C16.9805 73.9004 16.7207 74.0508 16.5293 74.2969C16.3379 74.543 16.2422 74.8301 16.2422 75.1582V75.4043H13.5352V75.1582C13.5352 74.8301 13.4395 74.543 13.248 74.2969C13.0566 74.0508 12.7969 73.873 12.4688 73.7637C11.9219 73.6543 11.3887 73.4902 10.8691 73.2715C10.3496 73.0527 9.81641 72.7793 9.26953 72.4512C8.99609 72.2871 8.70898 72.2324 8.4082 72.2871C8.10742 72.3418 7.84766 72.4785 7.62891 72.6973L6.80859 73.5176L4.59375 71.3848L5.49609 70.4824C5.71484 70.2637 5.83789 70.0039 5.86523 69.7031C5.89258 69.4023 5.82422 69.1152 5.66016 68.8418C5.33203 68.3496 5.05859 67.8301 4.83984 67.2832C4.62109 66.7363 4.45703 66.1895 4.34766 65.6426C4.29297 65.3145 4.14258 65.0547 3.89648 64.8633C3.65039 64.6719 3.36328 64.5762 3.03516 64.5762H2.70703V61.8691H3.03516C3.36328 61.8691 3.65039 61.7734 3.89648 61.582C4.14258 61.3906 4.29297 61.1309 4.34766 60.8027C4.51172 60.2559 4.70312 59.709 4.92188 59.1621C5.14062 58.6152 5.38672 58.0957 5.66016 57.6035C5.82422 57.3301 5.89258 57.043 5.86523 56.7422C5.83789 56.4414 5.71484 56.1816 5.49609 55.9629L4.59375 55.1426L6.80859 52.9277L7.62891 53.8301C7.84766 54.0488 8.10742 54.1719 8.4082 54.1992C8.70898 54.2266 8.99609 54.1582 9.26953 53.9941C9.76172 53.666 10.2812 53.3926 10.8281 53.1738C11.375 52.9551 11.9219 52.791 12.4688 52.6816C12.7969 52.627 13.0566 52.4766 13.248 52.2305C13.4395 51.9844 13.5352 51.6973 13.5352 51.3691V51.041H16.2422V51.3691C16.2422 51.6973 16.3379 51.9844 16.5293 52.2305C16.7207 52.4766 16.9805 52.627 17.3086 52.6816C17.8555 52.791 18.4023 52.9551 18.9492 53.1738C19.4961 53.3926 20.0156 53.666 20.5078 53.9941C20.7812 54.1582 21.0684 54.2266 21.3691 54.1992C21.6699 54.1719 21.9297 54.0488 22.1484 53.8301L23.0508 52.9277L25.1836 55.1426L24.3633 55.9629C24.1445 56.1816 24.0078 56.4414 23.9531 56.7422C23.8984 57.043 23.9531 57.3301 24.1172 57.6035C24.4453 58.1504 24.7188 58.6836 24.9375 59.2031C25.1562 59.7227 25.3203 60.2559 25.4297 60.8027C25.5391 61.1309 25.7168 61.3906 25.9629 61.582C26.209 61.7734 26.4961 61.8691 26.8242 61.8691H27.0703V64.5762ZM29.7773 61.8691V60.5566C29.7773 60.1738 29.6543 59.8457 29.4082 59.5723C29.1621 59.2988 28.8477 59.1621 28.4648 59.1621H27.8086C27.6992 58.834 27.5762 58.5059 27.4395 58.1777C27.3027 57.8496 27.1523 57.5215 26.9883 57.1934L28.0547 56.0449C28.3281 55.7715 28.4648 55.457 28.4648 55.1016C28.4648 54.7461 28.3281 54.4316 28.0547 54.1582L23.9531 50.0566C23.7344 49.8379 23.4336 49.7285 23.0508 49.7285C22.668 49.7285 22.3398 49.8379 22.0664 50.0566L21 51.2051C20.6719 50.9863 20.3301 50.8086 19.9746 50.6719C19.6191 50.5352 19.2773 50.4121 18.9492 50.3027V49.7285C18.9492 49.3457 18.8262 49.0176 18.5801 48.7441C18.334 48.4707 18.0195 48.334 17.6367 48.334H13.5352V45.627H20.3438C20.7266 45.627 21.041 45.4902 21.2871 45.2168C21.5332 44.9434 21.6562 44.6426 21.6562 44.3145V37.5059H24.3633V38.8184C24.3633 39.2012 24.5 39.5293 24.7734 39.8027C25.0469 40.0762 25.375 40.2129 25.7578 40.2129H27.0703V49.7285C27.0703 50.0566 27.207 50.3574 27.4805 50.6309C27.7539 50.9043 28.082 51.041 28.4648 51.041H32.4844V61.8691H29.7773ZM35.1914 64.5762V61.8691H43.3945V64.5762H35.1914ZM68.8242 47.1855C69.7539 47.3496 70.6426 47.6094 71.4902 47.9648C72.3379 48.3203 73.1445 48.7715 73.9102 49.3184C74.1836 49.4824 74.4844 49.5508 74.8125 49.5234C75.1406 49.4961 75.4141 49.373 75.6328 49.1543L75.8789 48.9082L78.0117 51.041L77.7656 51.2871C77.5469 51.5059 77.4238 51.7793 77.3965 52.1074C77.3691 52.4355 77.4375 52.7363 77.6016 53.0098C78.1484 53.7754 78.5996 54.582 78.9551 55.4297C79.3105 56.2773 79.5703 57.166 79.7344 58.0957C79.7891 58.4238 79.9395 58.6836 80.1855 58.875C80.4316 59.0664 80.7188 59.1621 81.0469 59.1621H81.293V61.8691H81.0469C80.7188 61.8691 80.4316 61.9785 80.1855 62.1973C79.9395 62.416 79.7891 62.6895 79.7344 63.0176C79.5156 63.9473 79.2422 64.8359 78.9141 65.6836C78.5859 66.5312 78.1484 67.3379 77.6016 68.1035C77.4375 68.377 77.3691 68.6641 77.3965 68.9648C77.4238 69.2656 77.5469 69.5527 77.7656 69.8262L78.0117 69.9902L75.8789 72.2051L75.6328 71.959C75.4141 71.7402 75.1406 71.6172 74.8125 71.5898C74.4844 71.5625 74.1836 71.6309 73.9102 71.7949C73.1445 72.2871 72.3379 72.7109 71.4902 73.0664C70.6426 73.4219 69.7539 73.6816 68.8242 73.8457C68.4961 73.9004 68.2363 74.0508 68.0449 74.2969C67.8535 74.543 67.7578 74.8301 67.7578 75.1582V75.4043H65.0508V75.1582C65.0508 74.8301 64.9414 74.543 64.7227 74.2969C64.5039 74.0508 64.2305 73.9004 63.9023 73.8457C63.0273 73.6816 62.166 73.4219 61.3184 73.0664C60.4707 72.7109 59.6367 72.2871 58.8164 71.7949C58.543 71.5762 58.2559 71.4941 57.9551 71.5488C57.6543 71.6035 57.3945 71.7402 57.1758 71.959L56.9297 72.2051L54.7969 69.9902L54.9609 69.7441C55.2344 69.5254 55.3848 69.2656 55.4121 68.9648C55.4395 68.6641 55.3438 68.377 55.125 68.1035C54.6328 67.2832 54.209 66.4492 53.8535 65.6016C53.498 64.7539 53.2383 63.8926 53.0742 63.0176C53.0195 62.6895 52.8691 62.416 52.623 62.1973C52.377 61.9785 52.0898 61.8691 51.7617 61.8691H51.5156V59.1621H51.7617C52.0898 59.1621 52.377 59.0664 52.623 58.875C52.8691 58.6836 53.0195 58.4238 53.0742 58.0957C53.2383 57.166 53.498 56.2773 53.8535 55.4297C54.209 54.582 54.6328 53.7754 55.125 53.0098C55.2891 52.7363 55.3574 52.4355 55.3301 52.1074C55.3027 51.7793 55.1797 51.5059 54.9609 51.2871L54.7148 51.041L56.9297 48.9082L57.0938 49.1543C57.3672 49.373 57.6543 49.4961 57.9551 49.5234C58.2559 49.5508 58.543 49.4824 58.8164 49.3184C59.582 48.7715 60.3887 48.334 61.2363 48.0059C62.084 47.6777 62.9727 47.4043 63.9023 47.1855C64.2305 47.1309 64.5039 46.9805 64.7227 46.7344C64.9414 46.4883 65.0508 46.2012 65.0508 45.873V45.627H67.7578V45.873C67.7578 46.2012 67.8535 46.4883 68.0449 46.7344C68.2363 46.9805 68.4961 47.1309 68.8242 47.1855ZM65.0508 42.9199H63.6562C63.2734 42.9199 62.959 43.0566 62.7129 43.3301C62.4668 43.6035 62.3438 43.9316 62.3438 44.3145V44.8066C61.6328 44.9707 60.9355 45.1895 60.252 45.4629C59.5684 45.7363 58.8984 46.0645 58.2422 46.4473L57.832 46.0371C57.7227 45.9277 57.5859 45.832 57.4219 45.75C57.2578 45.668 57.0938 45.627 56.9297 45.627C56.7109 45.627 56.5195 45.668 56.3555 45.75C56.1914 45.832 56.0547 45.9277 55.9453 46.0371L51.8438 50.0566C51.625 50.3301 51.5156 50.6582 51.5156 51.041C51.5156 51.4238 51.625 51.752 51.8438 52.0254L52.3359 52.4355C51.9531 53.0371 51.625 53.6797 51.3516 54.3633C51.0781 55.0469 50.8594 55.7441 50.6953 56.4551H50.1211C49.7383 56.4551 49.4238 56.5918 49.1777 56.8652C48.9316 57.1387 48.8086 57.4668 48.8086 57.8496V61.8691H46.1016V50.3848L60.0469 40.2129H65.0508V42.9199ZM56.9297 60.5566C56.9297 63.1816 57.8457 65.4102 59.6777 67.2422C61.5098 69.0742 63.7383 69.9902 66.3633 69.9902C68.9883 69.9902 71.2305 69.0742 73.0898 67.2422C74.9492 65.4102 75.8789 63.1816 75.8789 60.5566C75.8789 57.9316 74.9492 55.6895 73.0898 53.8301C71.2305 51.9707 68.9883 51.041 66.3633 51.041C63.7383 51.041 61.5098 51.9707 59.6777 53.8301C57.8457 55.6895 56.9297 57.9316 56.9297 60.5566ZM73.1719 60.5566C73.1719 62.416 72.502 64.002 71.1621 65.3145C69.8223 66.627 68.2227 67.2832 66.3633 67.2832C64.5039 67.2832 62.918 66.627 61.6055 65.3145C60.293 64.002 59.6367 62.416 59.6367 60.5566C59.6367 58.6973 60.293 57.0977 61.6055 55.7578C62.918 54.418 64.5039 53.748 66.3633 53.748C68.2227 53.748 69.8223 54.418 71.1621 55.7578C72.502 57.0977 73.1719 58.6973 73.1719 60.5566Z" fill="white"/>
</svg>
