<svg width="84" height="86" viewBox="0 0 84 86" fill="none" xmlns="http://www.w3.org/2000/svg">
<path d="M21 79.6699H18.6211C16.9805 79.6699 15.5449 79.1367 14.3145 78.0703C13.084 77.0039 12.3594 75.6777 12.1406 74.0918V74.0098L8.61328 49.3184C8.55859 48.9902 8.4082 48.7168 8.16211 48.498C7.91602 48.2793 7.62891 48.1699 7.30078 48.1699C6.97266 48.1699 6.67188 48.293 6.39844 48.5391C6.125 48.7852 5.98828 49.0996 5.98828 49.4824C5.98828 49.5371 5.98828 49.5781 5.98828 49.6055C5.98828 49.6328 5.98828 49.6465 5.98828 49.6465L9.51562 74.4199C9.89844 76.6621 10.9375 78.5352 12.6328 80.0391C14.3281 81.543 16.3242 82.2949 18.6211 82.2949H21C21.3828 82.2949 21.6973 82.1719 21.9434 81.9258C22.1895 81.6797 22.3125 81.3652 22.3125 80.9824C22.3125 80.5996 22.1895 80.2852 21.9434 80.0391C21.6973 79.793 21.3828 79.6699 21 79.6699ZM36.75 66.5449C36.3672 66.5449 36.0527 66.668 35.8066 66.9141C35.5605 67.1602 35.4375 67.4746 35.4375 67.8574V73.1074C35.4375 74.2012 35.8203 75.1309 36.5859 75.8965C37.3516 76.6621 38.2812 77.0449 39.375 77.0449C40.4688 77.0449 41.3984 76.6621 42.1641 75.8965C42.9297 75.1309 43.3125 74.2012 43.3125 73.1074V57.3574C43.3125 56.2637 42.9297 55.334 42.1641 54.5684C41.3984 53.8027 40.4688 53.4199 39.375 53.4199C38.2812 53.4199 37.3516 53.8027 36.5859 54.5684C35.8203 55.334 35.4375 56.2637 35.4375 57.3574V62.6074C35.4375 62.9902 35.5605 63.3047 35.8066 63.5508C36.0527 63.7969 36.3672 63.9199 36.75 63.9199C37.1328 63.9199 37.4473 63.7969 37.6934 63.5508C37.9395 63.3047 38.0625 62.9902 38.0625 62.6074V57.3574C38.0625 56.9746 38.1855 56.6602 38.4316 56.4141C38.6777 56.168 38.9922 56.0449 39.375 56.0449C39.7578 56.0449 40.0723 56.168 40.3184 56.4141C40.5645 56.6602 40.6875 56.9746 40.6875 57.3574V73.1074C40.6875 73.4902 40.5645 73.8047 40.3184 74.0508C40.0723 74.2969 39.7578 74.4199 39.375 74.4199C38.9922 74.4199 38.6777 74.2969 38.4316 74.0508C38.1855 73.8047 38.0625 73.4902 38.0625 73.1074V67.8574C38.0625 67.4746 37.9395 67.1602 37.6934 66.9141C37.4473 66.668 37.1328 66.5449 36.75 66.5449ZM18.375 53.4199C17.2812 53.4199 16.3516 53.8027 15.5859 54.5684C14.8203 55.334 14.4375 56.2637 14.4375 57.3574V73.1074C14.4375 74.2012 14.8203 75.1309 15.5859 75.8965C16.3516 76.6621 17.2812 77.0449 18.375 77.0449C19.4688 77.0449 20.3984 76.6621 21.1641 75.8965C21.9297 75.1309 22.3125 74.2012 22.3125 73.1074V57.3574C22.3125 56.2637 21.9297 55.334 21.1641 54.5684C20.3984 53.8027 19.4688 53.4199 18.375 53.4199ZM19.6875 73.1074C19.6875 73.4902 19.5645 73.8047 19.3184 74.0508C19.0723 74.2969 18.7578 74.4199 18.375 74.4199C17.9922 74.4199 17.6777 74.2969 17.4316 74.0508C17.1855 73.8047 17.0625 73.4902 17.0625 73.1074V57.3574C17.0625 56.9746 17.1855 56.6602 17.4316 56.4141C17.6777 56.168 17.9922 56.0449 18.375 56.0449C18.7578 56.0449 19.0723 56.168 19.3184 56.4141C19.5645 56.6602 19.6875 56.9746 19.6875 57.3574V73.1074ZM24.9375 57.3574V73.1074C24.9375 74.2012 25.3203 75.1309 26.0859 75.8965C26.8516 76.6621 27.7812 77.0449 28.875 77.0449C29.9688 77.0449 30.8984 76.6621 31.6641 75.8965C32.4297 75.1309 32.8125 74.2012 32.8125 73.1074V57.3574C32.8125 56.2637 32.4297 55.334 31.6641 54.5684C30.8984 53.8027 29.9688 53.4199 28.875 53.4199C27.7812 53.4199 26.8516 53.8027 26.0859 54.5684C25.3203 55.334 24.9375 56.2637 24.9375 57.3574ZM30.1875 57.3574V73.1074C30.1875 73.4902 30.0645 73.8047 29.8184 74.0508C29.5723 74.2969 29.2578 74.4199 28.875 74.4199C28.4922 74.4199 28.1777 74.2969 27.9316 74.0508C27.6855 73.8047 27.5625 73.4902 27.5625 73.1074V57.3574C27.5625 56.9746 27.6855 56.6602 27.9316 56.4141C28.1777 56.168 28.4922 56.0449 28.875 56.0449C29.2578 56.0449 29.5723 56.168 29.8184 56.4141C30.0645 56.6602 30.1875 56.9746 30.1875 57.3574ZM57.75 50.7949C58.1328 50.7949 58.4473 50.6719 58.6934 50.4258C58.9395 50.1797 59.0625 49.8652 59.0625 49.4824C59.0625 49.0996 58.9395 48.7852 58.6934 48.5391C58.4473 48.293 58.1328 48.1699 57.75 48.1699H48.5625C48.1797 48.1699 47.8652 48.293 47.6191 48.5391C47.373 48.7852 47.25 49.0996 47.25 49.4824C47.25 49.8652 47.373 50.1797 47.6191 50.4258C47.8652 50.6719 48.1797 50.7949 48.5625 50.7949H57.75ZM30.1875 48.1699H14.4375C14.0547 48.1699 13.7402 48.293 13.4941 48.5391C13.248 48.7852 13.125 49.0996 13.125 49.4824C13.125 49.8652 13.248 50.1797 13.4941 50.4258C13.7402 50.6719 14.0547 50.7949 14.4375 50.7949H30.1875C30.5703 50.7949 30.8848 50.6719 31.1309 50.4258C31.377 50.1797 31.5 49.8652 31.5 49.4824C31.5 49.0996 31.377 48.7852 31.1309 48.5391C30.8848 48.293 30.5703 48.1699 30.1875 48.1699ZM73.418 57.4395C74.2383 56.8379 74.8945 56.0723 75.3867 55.1426C75.8789 54.2129 76.125 53.2012 76.125 52.1074C76.125 51.7246 76.002 51.4102 75.7559 51.1641C75.5098 50.918 75.1953 50.7949 74.8125 50.7949H72.5977L73.3359 45.5449H74.8125C75.9062 45.5449 76.8359 45.1621 77.6016 44.3965C78.3672 43.6309 78.75 42.7012 78.75 41.6074C78.75 40.5137 78.3672 39.584 77.6016 38.8184C76.8359 38.0527 75.9062 37.6699 74.8125 37.6699H66.6094L67.7578 35.127C68.1953 35.4551 68.6738 35.7148 69.1934 35.9062C69.7129 36.0977 70.2734 36.1934 70.875 36.1934C72.0781 36.1934 73.1445 35.8379 74.0742 35.127C75.0039 34.416 75.6328 33.4863 75.9609 32.3379C76.0156 32.1191 76.0566 31.9004 76.084 31.6816C76.1113 31.4629 76.125 31.2441 76.125 31.0254C76.125 30.9707 76.125 30.9297 76.125 30.9023C76.125 30.875 76.125 30.834 76.125 30.7793C76.8906 30.3418 77.5195 29.7129 78.0117 28.8926C78.5039 28.0723 78.75 27.1973 78.75 26.2676C78.75 25.502 78.5996 24.7773 78.2988 24.0938C77.998 23.4102 77.5742 22.8223 77.0273 22.3301C77.1367 22.1113 77.2598 21.8516 77.3965 21.5508C77.5332 21.25 77.6289 20.9355 77.6836 20.6074H77.7656C77.8203 20.2793 77.875 19.9375 77.9297 19.582C77.9844 19.2266 78.0117 18.8848 78.0117 18.5566C78.0117 17.4629 77.8066 16.4375 77.3965 15.4805C76.9863 14.5234 76.4258 13.6895 75.7148 12.9785C75.6055 12.8691 75.4688 12.7871 75.3047 12.7324C75.1406 12.6777 74.9766 12.6504 74.8125 12.6504C74.4297 12.6504 74.1152 12.7734 73.8691 13.0195C73.623 13.2656 73.5 13.5801 73.5 13.9629C73.5 14.127 73.5273 14.291 73.582 14.4551C73.6367 14.6191 73.7461 14.7559 73.9102 14.8652C74.3477 15.3574 74.7031 15.918 74.9766 16.5469C75.25 17.1758 75.3867 17.8457 75.3867 18.5566C75.3867 19.6504 75.0723 20.6484 74.4434 21.5508C73.8145 22.4531 72.9805 23.0684 71.9414 23.3965V23.4785C71.7227 23.5332 71.5312 23.6699 71.3672 23.8887C71.2031 24.1074 71.1211 24.3535 71.1211 24.627C71.1211 24.791 71.1074 24.9551 71.0801 25.1191C71.0527 25.2832 71.0117 25.4473 70.957 25.6113V25.5293C70.7383 26.4043 70.2734 27.1152 69.5625 27.6621C68.8516 28.209 68.0586 28.4824 67.1836 28.4824C66.2539 28.4824 65.4473 28.209 64.7637 27.6621C64.0801 27.1152 63.6289 26.4316 63.4102 25.6113C63.4102 25.6113 63.4102 25.584 63.4102 25.5293C63.3555 25.4199 63.3145 25.2695 63.2871 25.0781C63.2598 24.8867 63.2461 24.709 63.2461 24.5449C63.2461 23.834 63.4238 23.1777 63.7793 22.5762C64.1348 21.9746 64.5859 21.4824 65.1328 21.0996H65.2148C65.3789 20.9902 65.5293 20.8398 65.666 20.6484C65.8027 20.457 65.8711 20.2246 65.8711 19.9512C65.8711 19.623 65.7344 19.3223 65.4609 19.0488C65.1875 18.7754 64.8867 18.6387 64.5586 18.6387C64.3945 18.6387 64.2578 18.666 64.1484 18.7207C64.0391 18.7754 63.957 18.8301 63.9023 18.8848C62.918 19.4316 62.125 20.2109 61.5234 21.2227C60.9219 22.2344 60.6211 23.3418 60.6211 24.5449C60.6211 24.5996 60.6211 24.6816 60.6211 24.791C60.6211 24.9004 60.6211 25.0098 60.6211 25.1191V25.0371C60.5117 25.0918 60.3887 25.1191 60.252 25.1191C60.1152 25.1191 59.9648 25.1191 59.8008 25.1191C59.6367 25.1191 59.4727 25.1191 59.3086 25.1191C59.1445 25.1191 58.9805 25.0918 58.8164 25.0371H58.8984C58.2969 24.873 57.791 24.6133 57.3809 24.2578C56.9707 23.9023 56.6289 23.4785 56.3555 22.9863C56.3555 22.9316 56.3555 22.9043 56.3555 22.9043C56.2461 22.6309 56.1504 22.3574 56.0684 22.084C55.9863 21.8105 55.9453 21.5098 55.9453 21.1816C55.9453 21.1816 55.9453 21.1543 55.9453 21.0996C55.9453 20.7715 55.8223 20.4707 55.5762 20.1973C55.3301 19.9238 55.0156 19.7871 54.6328 19.7871C54.3047 19.7871 54.0039 19.9102 53.7305 20.1562C53.457 20.4023 53.3203 20.7168 53.3203 21.0996C53.3203 21.0996 53.3203 21.1133 53.3203 21.1406C53.3203 21.168 53.3203 21.1816 53.3203 21.1816C53.3203 21.5098 53.3477 21.8105 53.4023 22.084C53.457 22.3574 53.5117 22.6309 53.5664 22.9043C53.3477 22.959 53.1289 23.0137 52.9102 23.0684C52.6914 23.123 52.4727 23.1504 52.2539 23.1504C52.0898 23.1504 51.9258 23.1367 51.7617 23.1094C51.5977 23.082 51.4336 23.041 51.2695 22.9863C50.832 22.877 50.4492 22.7129 50.1211 22.4941C49.793 22.2754 49.4922 22.002 49.2188 21.6738V21.5918C48.9453 21.2637 48.7266 20.8945 48.5625 20.4844C48.3984 20.0742 48.3164 19.6504 48.3164 19.2129C48.3164 18.2832 48.6035 17.4629 49.1777 16.752C49.752 16.041 50.4492 15.5762 51.2695 15.3574H51.3516C51.5703 15.3027 51.7754 15.1797 51.9668 14.9883C52.1582 14.7969 52.2539 14.5645 52.2539 14.291L52.3359 14.0449C52.3359 13.9902 52.3359 13.9355 52.3359 13.8809C52.3359 13.8262 52.3359 13.7988 52.3359 13.7988C52.6094 12.8691 53.0742 12.0762 53.7305 11.4199C54.3867 10.7637 55.1797 10.3262 56.1094 10.1074C56.1094 10.2715 56.0957 10.4766 56.0684 10.7227C56.041 10.9688 56.0273 11.2012 56.0273 11.4199C56.0273 12.1309 56.123 12.8281 56.3145 13.5117C56.5059 14.1953 56.7656 14.8105 57.0938 15.3574C57.2031 15.5762 57.3535 15.7402 57.5449 15.8496C57.7363 15.959 57.9414 16.0137 58.1602 16.0137C58.543 16.0137 58.8574 15.8906 59.1035 15.6445C59.3496 15.3984 59.4727 15.084 59.4727 14.7012C59.4727 14.5918 59.459 14.4824 59.4316 14.373C59.4043 14.2637 59.3633 14.1543 59.3086 14.0449C59.0898 13.6621 58.9258 13.252 58.8164 12.8145C58.707 12.377 58.6523 11.9121 58.6523 11.4199C58.6523 11.0371 58.6934 10.6543 58.7754 10.2715C58.8574 9.88867 58.9805 9.50586 59.1445 9.12305C59.582 8.24805 60.2246 7.53711 61.0723 6.99023C61.9199 6.44336 62.8633 6.16992 63.9023 6.16992C65.3242 6.16992 66.5547 6.67578 67.5938 7.6875C68.6328 8.69922 69.1523 9.94336 69.1523 11.4199C69.1523 11.4746 69.1387 11.543 69.1113 11.625C69.084 11.707 69.0703 11.8027 69.0703 11.9121V11.8301C69.0703 11.8848 69.0703 11.9121 69.0703 11.9121C69.0703 12.2949 69.207 12.6094 69.4805 12.8555C69.7539 13.1016 70.0547 13.2246 70.3828 13.2246C70.7109 13.2246 70.998 13.1152 71.2441 12.8965C71.4902 12.6777 71.6406 12.4043 71.6953 12.0762C71.6953 11.9668 71.709 11.8574 71.7363 11.748C71.7637 11.6387 71.7773 11.5293 71.7773 11.4199C71.7773 9.23242 70.998 7.37305 69.4395 5.8418C67.8809 4.31055 66.0352 3.54492 63.9023 3.54492C62.4805 3.54492 61.1816 3.88672 60.0059 4.57031C58.8301 5.25391 57.8867 6.14258 57.1758 7.23633C55.4258 7.29102 53.8809 7.86523 52.541 8.95898C51.2012 10.0527 50.3125 11.4199 49.875 13.0605V13.1426C48.6172 13.6348 47.6191 14.4141 46.8809 15.4805C46.1426 16.5469 45.7734 17.7637 45.7734 19.1309C45.7734 19.7324 45.8418 20.293 45.9785 20.8125C46.1152 21.332 46.293 21.8379 46.5117 22.3301V22.248C46.4023 22.4121 46.2793 22.5898 46.1426 22.7812C46.0059 22.9727 45.9102 23.1504 45.8555 23.3145L45.7734 23.3965L44.707 21.0176C44.2695 20.0879 43.668 19.2812 42.9023 18.5977C42.1367 17.9141 41.2617 17.4355 40.2773 17.1621L40.1953 17.0801C40.0859 17.0254 39.9355 16.9844 39.7441 16.957C39.5527 16.9297 39.375 16.916 39.2109 16.916L39.1289 16.834L38.7188 9.86133C38.7188 9.5332 38.582 9.24609 38.3086 9C38.0352 8.75391 37.7344 8.63086 37.4062 8.63086C37.0234 8.63086 36.709 8.75391 36.4629 9C36.2168 9.24609 36.0938 9.56055 36.0938 9.94336C36.0938 9.94336 36.0938 9.95703 36.0938 9.98438C36.0938 10.0117 36.0938 10.0254 36.0938 10.0254L36.5039 16.916C36.2852 16.9707 36.0664 17.0391 35.8477 17.1211C35.6289 17.2031 35.4102 17.2715 35.1914 17.3262H35.2734L33.4688 11.0918C33.4141 10.8184 33.2637 10.5859 33.0176 10.3945C32.7715 10.2031 32.5117 10.1074 32.2383 10.1074C31.8555 10.1074 31.541 10.2305 31.2949 10.4766C31.0488 10.7227 30.9258 11.0371 30.9258 11.4199C30.9258 11.4746 30.9258 11.5293 30.9258 11.584C30.9258 11.6387 30.9258 11.7207 30.9258 11.8301V11.748L31.0078 11.9121L30.8438 11.8301C30.7344 11.7207 30.5977 11.625 30.4336 11.543C30.2695 11.4609 30.1055 11.4199 29.9414 11.4199C29.7773 11.4199 29.6133 11.4473 29.4492 11.502C29.2852 11.5566 29.1484 11.666 29.0391 11.8301V11.748L25.1016 15.5215C24.9922 15.6855 24.8965 15.8359 24.8145 15.9727C24.7324 16.1094 24.6914 16.2871 24.6914 16.5059C24.6914 16.7246 24.7461 16.9297 24.8555 17.1211C24.9648 17.3125 25.1289 17.4629 25.3477 17.5723L31.1719 21.4277C31.1172 21.5918 31.0625 21.7559 31.0078 21.9199C30.9531 22.084 30.8984 22.2754 30.8438 22.4941C30.7891 22.7676 30.748 23.041 30.7207 23.3145C30.6934 23.5879 30.6797 23.8613 30.6797 24.1348C30.6797 24.2441 30.6797 24.3535 30.6797 24.4629C30.6797 24.5723 30.6797 24.6816 30.6797 24.791C29.6953 24.9551 28.7656 25.2422 27.8906 25.6523C27.0156 26.0625 26.1953 26.5684 25.4297 27.1699L24.5273 26.2676C24.418 26.1582 24.2812 26.0625 24.1172 25.9805C23.9531 25.8984 23.7891 25.8574 23.625 25.8574C23.2969 25.8574 22.9961 25.9941 22.7227 26.2676C22.4492 26.541 22.3125 26.8418 22.3125 27.1699C22.3125 27.334 22.3535 27.498 22.4355 27.6621C22.5176 27.8262 22.6133 27.9629 22.7227 28.0723L22.8047 28.1543C21.7109 28.4277 20.7676 28.9199 19.9746 29.6309C19.1816 30.3418 18.5938 31.2168 18.2109 32.2559H18.1289L18.0469 32.666L14.8477 31.5996C14.793 31.5449 14.7383 31.5176 14.6836 31.5176C14.6289 31.5176 14.5469 31.5176 14.4375 31.5176C14.0547 31.5176 13.7402 31.6406 13.4941 31.8867C13.248 32.1328 13.125 32.4473 13.125 32.8301C13.125 33.1035 13.207 33.3496 13.3711 33.5684C13.5352 33.7871 13.7539 33.9512 14.0273 34.0605L40.4414 43.166C40.6602 43.2754 40.8516 43.4395 41.0156 43.6582C41.1797 43.877 41.2617 44.1504 41.2617 44.4785C41.2617 44.8066 41.1387 45.1074 40.8926 45.3809C40.6465 45.6543 40.332 45.791 39.9492 45.791C39.8945 45.791 39.8262 45.7773 39.7441 45.75C39.6621 45.7227 39.5938 45.709 39.5391 45.709L4.83984 33.6504C4.56641 33.541 4.34766 33.377 4.18359 33.1582C4.01953 32.9395 3.9375 32.6934 3.9375 32.4199C3.9375 32.1465 4.00586 31.9141 4.14258 31.7227C4.2793 31.5312 4.45703 31.3809 4.67578 31.2715C4.78516 31.2168 4.88086 31.1758 4.96289 31.1484C5.04492 31.1211 5.14062 31.1074 5.25 31.1074C5.30469 31.1074 5.37305 31.1074 5.45508 31.1074C5.53711 31.1074 5.60547 31.1348 5.66016 31.1895L9.02344 32.3379C9.13281 32.3926 9.22852 32.4199 9.31055 32.4199C9.39258 32.4199 9.46094 32.4199 9.51562 32.4199C9.89844 32.4199 10.2129 32.2969 10.459 32.0508C10.7051 31.8047 10.8281 31.4902 10.8281 31.1074C10.8281 30.834 10.7461 30.5879 10.582 30.3691C10.418 30.1504 10.1992 29.9863 9.92578 29.877L6.5625 28.7285C6.34375 28.6191 6.125 28.5508 5.90625 28.5234C5.6875 28.4961 5.44141 28.4824 5.16797 28.4824C4.12891 28.4824 3.21289 28.8652 2.41992 29.6309C1.62695 30.3965 1.23047 31.3262 1.23047 32.4199C1.23047 33.2949 1.49023 34.0605 2.00977 34.7168C2.5293 35.373 3.17188 35.8379 3.9375 36.1113L8.36719 37.6699H3.9375C2.84375 37.6699 1.91406 38.0527 1.14844 38.8184C0.382813 39.584 0 40.5137 0 41.6074C0 42.7012 0.382813 43.6309 1.14844 44.3965C1.91406 45.1621 2.84375 45.5449 3.9375 45.5449H31.0898L38.7188 48.1699C38.8828 48.2246 39.0742 48.2793 39.293 48.334C39.5117 48.3887 39.7578 48.416 40.0312 48.416C41.125 48.416 42.0547 48.0332 42.8203 47.2676C43.5859 46.502 43.9688 45.5723 43.9688 44.4785C43.9688 43.6035 43.709 42.8242 43.1895 42.1406C42.6699 41.457 42.0273 40.9785 41.2617 40.7051L40.0312 40.2949H74.8125C75.1953 40.2949 75.5098 40.418 75.7559 40.6641C76.002 40.9102 76.125 41.2246 76.125 41.6074C76.125 41.9902 76.002 42.3047 75.7559 42.5508C75.5098 42.7969 75.1953 42.9199 74.8125 42.9199H47.8242C47.4961 42.9199 47.1953 43.043 46.9219 43.2891C46.6484 43.5352 46.5117 43.8496 46.5117 44.2324C46.5117 44.6152 46.6484 44.9297 46.9219 45.1758C47.1953 45.4219 47.4961 45.5449 47.8242 45.5449H70.7109L69.8906 51.2051C69.5078 51.3691 69.1523 51.5605 68.8242 51.7793C68.4961 51.998 68.1953 52.2168 67.9219 52.4355V52.2715C67.9219 52.1621 67.9219 52.0801 67.9219 52.0254C67.9219 51.9707 67.9219 51.8887 67.9219 51.7793C67.9219 51.3418 67.8398 50.918 67.6758 50.5078C67.5117 50.0977 67.293 49.7285 67.0195 49.4004C66.6914 49.0176 66.2949 48.7305 65.8301 48.5391C65.3652 48.3477 64.8594 48.252 64.3125 48.252C63.7656 48.252 63.2598 48.3477 62.7949 48.5391C62.3301 48.7305 61.9336 49.0176 61.6055 49.4004C61.332 49.7285 61.1133 50.0977 60.9492 50.5078C60.7852 50.918 60.7031 51.3418 60.7031 51.7793C60.7031 51.8887 60.7031 51.9844 60.7031 52.0664C60.7031 52.1484 60.7031 52.2168 60.7031 52.2715L61.1953 56.127C61.0312 56.0723 60.8809 56.0449 60.7441 56.0449C60.6074 56.0449 60.4844 56.0449 60.375 56.0449C59.1172 56.0449 57.9277 56.25 56.8066 56.6602C55.6855 57.0703 54.6875 57.6309 53.8125 58.3418V57.3574C53.8125 56.2637 53.4297 55.334 52.6641 54.5684C51.8984 53.8027 50.9688 53.4199 49.875 53.4199C48.7812 53.4199 47.8516 53.8027 47.0859 54.5684C46.3203 55.334 45.9375 56.2637 45.9375 57.3574V73.1074C45.9375 74.2012 46.3203 75.1309 47.0859 75.8965C47.8516 76.6621 48.7812 77.0449 49.875 77.0449C50.3672 77.0449 50.8457 76.9492 51.3105 76.7578C51.7754 76.5664 52.1992 76.3066 52.582 75.9785C52.9102 76.6895 53.293 77.3457 53.7305 77.9473C54.168 78.5488 54.6328 79.123 55.125 79.6699H26.25C25.8672 79.6699 25.5527 79.793 25.3066 80.0391C25.0605 80.2852 24.9375 80.5996 24.9375 80.9824C24.9375 81.3652 25.0605 81.6797 25.3066 81.9258C25.5527 82.1719 25.8672 82.2949 26.25 82.2949H60.1289C60.1289 82.2949 60.1562 82.2949 60.2109 82.2949C60.2656 82.2949 60.3066 82.2949 60.334 82.2949C60.3613 82.2949 60.375 82.2949 60.375 82.2949C61.0859 82.2949 61.7832 82.2266 62.4668 82.0898C63.1504 81.9531 63.793 81.748 64.3945 81.4746L64.3125 81.5566C64.9141 81.7754 65.543 81.9531 66.1992 82.0898C66.8555 82.2266 67.5391 82.2949 68.25 82.2949C69.4531 82.2949 70.6152 81.9121 71.7363 81.1465C72.8574 80.3809 73.9102 79.2871 74.8945 77.8652C75.0039 77.7559 75.0723 77.6328 75.0996 77.4961C75.127 77.3594 75.1406 77.2363 75.1406 77.127C75.1406 76.7441 75.0176 76.4297 74.7715 76.1836C74.5254 75.9375 74.2109 75.8145 73.8281 75.8145C73.6094 75.8145 73.4043 75.8555 73.2129 75.9375C73.0215 76.0195 72.8711 76.1699 72.7617 76.3887C72.0508 77.4277 71.2988 78.2344 70.5059 78.8086C69.7129 79.3828 68.9609 79.6699 68.25 79.6699C67.6484 79.6699 67.0605 79.6016 66.4863 79.4648C65.9121 79.3281 65.3516 79.123 64.8047 78.8496L64.8867 78.9316C64.7773 78.877 64.6816 78.8359 64.5996 78.8086C64.5176 78.7812 64.4219 78.7676 64.3125 78.7676C64.2031 78.7676 64.1074 78.7812 64.0254 78.8086C63.9434 78.8359 63.8477 78.877 63.7383 78.9316C63.2461 79.1504 62.7129 79.3281 62.1387 79.4648C61.5645 79.6016 60.9766 79.6699 60.375 79.6699C60.375 79.6699 60.3613 79.6699 60.334 79.6699C60.3066 79.6699 60.293 79.6699 60.293 79.6699C58.3242 79.6152 56.5332 78.0156 54.9199 74.8711C53.3066 71.7266 52.5 68.9512 52.5 66.5449C52.5 64.3574 53.2656 62.498 54.7969 60.9668C56.3281 59.4355 58.1875 58.6699 60.375 58.6699C60.5938 58.6699 60.7988 58.6836 60.9902 58.7109C61.1816 58.7383 61.3867 58.752 61.6055 58.752H61.5234V58.834C61.6328 59.5449 61.9473 60.1328 62.4668 60.5977C62.9863 61.0625 63.6016 61.2949 64.3125 61.2949C65.0234 61.2949 65.6387 61.0625 66.1582 60.5977C66.6777 60.1328 66.9922 59.5449 67.1016 58.834V58.752C67.2656 58.752 67.4434 58.7383 67.6348 58.7109C67.8262 58.6836 68.0312 58.6699 68.25 58.6699C70.4375 58.6699 72.2969 59.4355 73.8281 60.9668C75.3594 62.498 76.125 64.3574 76.125 66.5449C76.0703 67.5293 75.9473 68.4863 75.7559 69.416C75.5645 70.3457 75.3047 71.2207 74.9766 72.041V71.959C74.9766 72.0137 74.9629 72.082 74.9355 72.1641C74.9082 72.2461 74.8945 72.3418 74.8945 72.4512C74.8945 72.834 75.0176 73.1484 75.2637 73.3945C75.5098 73.6406 75.8242 73.7637 76.207 73.7637C76.4805 73.7637 76.7402 73.6816 76.9863 73.5176C77.2324 73.3535 77.3828 73.1348 77.4375 72.8613C77.8203 71.9316 78.1211 70.9336 78.3398 69.8672C78.5586 68.8008 78.6953 67.6934 78.75 66.5449C78.75 64.5762 78.2578 62.7852 77.2734 61.1719C76.2891 59.5586 75.0039 58.3145 73.418 57.4395ZM3.9375 42.9199C3.55469 42.9199 3.24023 42.7969 2.99414 42.5508C2.74805 42.3047 2.625 41.9902 2.625 41.6074C2.625 41.2246 2.74805 40.9102 2.99414 40.6641C3.24023 40.418 3.55469 40.2949 3.9375 40.2949H15.9961L23.543 42.9199H3.9375ZM73.5 26.2676C73.5 26.1582 73.5137 26.0488 73.541 25.9395C73.5684 25.8301 73.6094 25.7207 73.6641 25.6113V25.5293C73.9922 25.3652 74.293 25.1875 74.5664 24.9961C74.8398 24.8047 75.1133 24.5996 75.3867 24.3809C75.6055 24.5996 75.7832 24.873 75.9199 25.2012C76.0566 25.5293 76.125 25.8848 76.125 26.2676C76.125 26.8145 75.9473 27.3203 75.5918 27.7852C75.2363 28.25 74.8125 28.5645 74.3203 28.7285H74.2383C73.9648 28.8379 73.7461 29.002 73.582 29.2207C73.418 29.4395 73.3359 29.6855 73.3359 29.959C73.3359 30.0137 73.3359 30.0684 73.3359 30.123C73.3359 30.1777 73.3633 30.2324 73.418 30.2871C73.418 30.3965 73.4316 30.5059 73.459 30.6152C73.4863 30.7246 73.5 30.8613 73.5 31.0254C73.5 31.1348 73.4863 31.2441 73.459 31.3535C73.4316 31.4629 73.418 31.5723 73.418 31.6816V31.5996C73.2539 32.2012 72.9395 32.6797 72.4746 33.0352C72.0098 33.3906 71.4766 33.5684 70.875 33.5684C70.7656 33.5684 70.6426 33.5684 70.5059 33.5684C70.3691 33.5684 70.2461 33.541 70.1367 33.4863H70.2188C69.9453 33.4316 69.6855 33.3223 69.4395 33.1582C69.1934 32.9941 68.9883 32.8027 68.8242 32.584L69.7266 30.5332C69.8906 30.4785 70.0273 30.4238 70.1367 30.3691C70.2461 30.3145 70.3555 30.2598 70.4648 30.2051C71.1758 29.7676 71.8047 29.207 72.3516 28.5234C72.8984 27.8398 73.2812 27.0879 73.5 26.2676ZM66.6914 31.0254L63.7383 37.6699H55.4531L55.7812 36.5215C55.7812 36.5215 55.7949 36.4805 55.8223 36.3984C55.8496 36.3164 55.8633 36.248 55.8633 36.1934C55.8633 36.1934 55.8496 36.166 55.8223 36.1113C55.7949 36.0566 55.7812 36.002 55.7812 35.9473L53.7305 25.6113C53.8945 25.5566 54.0723 25.502 54.2637 25.4473C54.4551 25.3926 54.6328 25.3105 54.7969 25.2012L54.7148 25.2832C55.0977 25.7207 55.5078 26.1035 55.9453 26.4316C56.3828 26.7598 56.8477 27.0332 57.3398 27.252H57.4219L58.9805 35.209C59.0352 35.4824 59.1719 35.7148 59.3906 35.9062C59.6094 36.0977 59.8555 36.1934 60.1289 36.1934C60.1836 36.1934 60.2109 36.1934 60.2109 36.1934C60.2109 36.1934 60.2383 36.1934 60.293 36.1934C60.5664 36.1934 60.8125 36.125 61.0312 35.9883C61.25 35.8516 61.3867 35.6738 61.4414 35.4551H61.5234L63.9844 30.2051C64.3672 30.4785 64.7773 30.6836 65.2148 30.8203C65.6523 30.957 66.1172 31.0254 66.6094 31.0254H66.6914ZM61.3594 27.5801C61.4688 27.7441 61.5645 27.8945 61.6465 28.0312C61.7285 28.168 61.8242 28.291 61.9336 28.4004L60.7852 30.7793L60.2109 27.7441C60.4297 27.7441 60.6348 27.7305 60.8262 27.7031C61.0176 27.6758 61.2227 27.6348 61.4414 27.5801H61.3594ZM51.0234 25.6113L51.5156 27.9902C51.3516 28.0449 51.1875 28.0859 51.0234 28.1133C50.8594 28.1406 50.6953 28.1543 50.5312 28.1543C50.4219 28.1543 50.3125 28.1406 50.2031 28.1133C50.0938 28.0859 49.9844 28.0723 49.875 28.0723C49.3281 27.9082 48.877 27.5938 48.5215 27.1289C48.166 26.6641 47.9883 26.1309 47.9883 25.5293C47.9883 25.4199 47.9883 25.2969 47.9883 25.1602C47.9883 25.0234 48.0156 24.9004 48.0703 24.791V24.873C48.0703 24.7637 48.0977 24.668 48.1523 24.5859C48.207 24.5039 48.2344 24.4355 48.2344 24.3809C48.5625 24.6543 48.918 24.8867 49.3008 25.0781C49.6836 25.2695 50.0938 25.4199 50.5312 25.5293H50.6133C50.668 25.5293 50.7363 25.543 50.8184 25.5703C50.9004 25.5977 50.9688 25.6113 51.0234 25.6113ZM49.2188 30.6152C49.4375 30.6699 49.6562 30.7109 49.875 30.7383C50.0938 30.7656 50.3398 30.7793 50.6133 30.7793C50.832 30.7793 51.0781 30.752 51.3516 30.6973C51.625 30.6426 51.8711 30.5879 52.0898 30.5332H52.0078L53.1562 36.1934L52.7461 37.6699H52.5L49.2188 30.6152ZM49.6289 37.6699H47.0039C47.0586 37.6699 47.1133 37.6562 47.168 37.6289C47.2227 37.6016 47.2773 37.5879 47.332 37.5879L49.1367 36.5215L49.6289 37.6699ZM40.6055 20.1973L39.2109 21.0176C39.0469 21.127 38.8965 21.2773 38.7598 21.4688C38.623 21.6602 38.5547 21.8926 38.5547 22.166C38.5547 22.4941 38.6914 22.7949 38.9648 23.0684C39.2383 23.3418 39.5391 23.4785 39.8672 23.4785C40.0312 23.4785 40.168 23.4512 40.2773 23.3965C40.3867 23.3418 40.4961 23.2871 40.6055 23.2324H40.5234L42.3281 22.248L44.0508 25.7754L42.4922 26.6777C42.3281 26.7871 42.1777 26.9375 42.041 27.1289C41.9043 27.3203 41.8359 27.5527 41.8359 27.8262C41.8359 28.1543 41.9727 28.4551 42.2461 28.7285C42.5195 29.002 42.8203 29.1387 43.1484 29.1387C43.3125 29.1387 43.4492 29.125 43.5586 29.0977C43.668 29.0703 43.7773 29.0293 43.8867 28.9746H43.8047L45.1992 28.1543L47.9883 34.1426L46.0195 35.291C45.8008 35.4004 45.6367 35.5508 45.5273 35.7422C45.418 35.9336 45.3633 36.166 45.3633 36.4395C45.3633 36.7129 45.4453 36.959 45.6094 37.1777C45.7734 37.3965 45.9922 37.5605 46.2656 37.6699H41.6719L40.1953 35.6191L43.5586 33.6504C43.7227 33.541 43.873 33.3906 44.0098 33.1992C44.1465 33.0078 44.2148 32.7754 44.2148 32.502C44.2148 32.1738 44.0781 31.873 43.8047 31.5996C43.5312 31.3262 43.2305 31.1895 42.9023 31.1895C42.793 31.1895 42.6699 31.2031 42.5332 31.2305C42.3965 31.2578 42.3008 31.3262 42.2461 31.4355V31.3535L38.7188 33.4043L36.5039 30.2051L39.1289 28.6465C39.293 28.5371 39.4434 28.3867 39.5801 28.1953C39.7168 28.0039 39.7852 27.7715 39.7852 27.498C39.7852 27.1699 39.6484 26.8691 39.375 26.5957C39.1016 26.3223 38.8008 26.1855 38.4727 26.1855C38.3633 26.1855 38.2539 26.1992 38.1445 26.2266C38.0352 26.2539 37.9258 26.2949 37.8164 26.3496L34.9453 27.9902L34.125 26.8418C33.8516 26.459 33.6465 26.0352 33.5098 25.5703C33.373 25.1055 33.3047 24.627 33.3047 24.1348C33.3047 22.8223 33.7695 21.7012 34.6992 20.7715C35.6289 19.8418 36.7227 19.377 37.9805 19.377C38.2539 19.377 38.5137 19.4043 38.7598 19.459C39.0059 19.5137 39.2383 19.5684 39.457 19.623C39.6758 19.6777 39.8809 19.7598 40.0723 19.8691C40.2637 19.9785 40.4414 20.0879 40.6055 20.1973ZM28.1367 16.3418L29.8594 14.6191L32.4844 17.3262L32.9766 18.8027C32.9219 18.8574 32.8535 18.9258 32.7715 19.0078C32.6895 19.0898 32.6211 19.1582 32.5664 19.2129L28.1367 16.3418ZM20.5898 33.1582C20.918 32.4473 21.4102 31.8457 22.0664 31.3535C22.7227 30.8613 23.4609 30.6152 24.2812 30.6152C24.3359 30.6152 24.3633 30.6152 24.3633 30.6152L24.0352 31.6816C23.8164 32.1738 23.502 32.625 23.0918 33.0352C22.6816 33.4453 22.2031 33.7324 21.6562 33.8965L20.5078 33.5684L20.5898 33.1582ZM24.8555 35.0449C25.1836 34.7168 25.4844 34.3477 25.7578 33.9375C26.0312 33.5273 26.25 33.0762 26.4141 32.584H26.4961L26.6602 32.0098C26.7695 32.1191 26.8926 32.2012 27.0293 32.2559C27.166 32.3105 27.3164 32.3379 27.4805 32.3379C27.8633 32.3379 28.1777 32.2148 28.4238 31.9688C28.6699 31.7227 28.793 31.4082 28.793 31.0254C28.793 30.8613 28.7656 30.7109 28.7109 30.5742C28.6562 30.4375 28.5742 30.3145 28.4648 30.2051L27.3164 29.0566C27.918 28.6191 28.5605 28.25 29.2441 27.9492C29.9277 27.6484 30.625 27.4434 31.3359 27.334H31.418C31.5273 27.498 31.623 27.6621 31.7051 27.8262C31.7871 27.9902 31.8828 28.1543 31.9922 28.3184L38.4727 37.6699H32.4844L24.8555 35.0449ZM51.1875 73.1074C51.1875 73.4902 51.0645 73.8047 50.8184 74.0508C50.5723 74.2969 50.2578 74.4199 49.875 74.4199C49.4922 74.4199 49.1777 74.2969 48.9316 74.0508C48.6855 73.8047 48.5625 73.4902 48.5625 73.1074V57.3574C48.5625 56.9746 48.6855 56.6602 48.9316 56.4141C49.1777 56.168 49.4922 56.0449 49.875 56.0449C50.2578 56.0449 50.5723 56.168 50.8184 56.4141C51.0645 56.6602 51.1875 56.9746 51.1875 57.3574V61.459C50.75 62.2246 50.4219 63.0312 50.2031 63.8789C49.9844 64.7266 49.875 65.6152 49.875 66.5449C49.9297 67.748 50.0801 68.9102 50.3262 70.0312C50.5723 71.1523 50.8867 72.2324 51.2695 73.2715V73.1074H51.1875ZM72.1875 53.4199H73.2539C72.9805 54.1855 72.5156 54.8145 71.8594 55.3066C71.2031 55.7988 70.4375 56.0449 69.5625 56.0449H68.4961C68.7695 55.2793 69.2344 54.6504 69.8906 54.1582C70.5469 53.666 71.3125 53.4199 72.1875 53.4199ZM64.1484 58.5059L63.3281 51.9434C63.3281 51.8887 63.3281 51.8613 63.3281 51.8613C63.3281 51.8613 63.3281 51.834 63.3281 51.7793C63.3281 51.5059 63.4238 51.2734 63.6152 51.082C63.8066 50.8906 64.0391 50.7949 64.3125 50.7949C64.5859 50.7949 64.8184 50.8906 65.0098 51.082C65.2012 51.2734 65.2969 51.5059 65.2969 51.7793C65.2969 51.834 65.2969 51.8613 65.2969 51.8613C65.2969 51.8613 65.2969 51.8887 65.2969 51.9434L64.4766 58.5059C64.4766 58.5605 64.4629 58.6016 64.4355 58.6289C64.4082 58.6562 64.3672 58.6699 64.3125 58.6699C64.2578 58.6699 64.2168 58.6562 64.1895 58.6289C64.1621 58.6016 64.1484 58.5605 64.1484 58.5059ZM70.0547 61.541C70 61.4863 69.918 61.4453 69.8086 61.418C69.6992 61.3906 69.5898 61.377 69.4805 61.377C69.0977 61.377 68.7832 61.5137 68.5371 61.7871C68.291 62.0605 68.168 62.3613 68.168 62.6895C68.168 62.9629 68.2363 63.1953 68.373 63.3867C68.5098 63.5781 68.6602 63.7285 68.8242 63.8379C69.2617 64.0566 69.6172 64.3301 69.8906 64.6582C70.1641 64.9863 70.3828 65.3691 70.5469 65.8066C70.6562 66.0801 70.8203 66.2988 71.0391 66.4629C71.2578 66.627 71.5039 66.709 71.7773 66.709C72.1602 66.709 72.4746 66.5859 72.7207 66.3398C72.9668 66.0938 73.0898 65.7793 73.0898 65.3965C73.0898 65.2871 73.0898 65.1914 73.0898 65.1094C73.0898 65.0273 73.0625 64.959 73.0078 64.9043C72.7344 64.1934 72.3516 63.5508 71.8594 62.9766C71.3672 62.4023 70.793 61.9238 70.1367 61.541H70.0547Z" fill="white"/>
</svg>
