<svg width="84" height="86" viewBox="0 0 84 86" fill="none" xmlns="http://www.w3.org/2000/svg">
<path d="M82.7695 82.2949H80.0625C79.8984 81.3652 79.5293 80.5312 78.9551 79.793C78.3809 79.0547 77.6836 78.4941 76.8633 78.1113C76.2617 77.8379 75.6738 77.6738 75.0996 77.6191C74.5254 77.5645 74.0195 77.5645 73.582 77.6191C73.3633 76.8535 73.0078 76.1699 72.5156 75.5684C72.0234 74.9668 71.4219 74.502 70.7109 74.1738C70.0547 73.8457 69.4121 73.6816 68.7832 73.6816C68.1543 73.6816 67.6211 73.709 67.1836 73.7637C67.1836 73.709 67.1836 72.9434 67.1836 71.4668C67.1836 69.9902 67.1836 68.3906 67.1836 66.668C67.1836 64.9453 67.1836 63.373 67.1836 61.9512C67.1836 60.4746 67.1836 59.7363 67.1836 59.7363L71.2852 55.6348H74.8125C77.0547 55.6348 78.9688 54.8418 80.5547 53.2559C82.1406 51.6699 82.9336 49.7559 82.9336 47.5137V44.1504C82.9336 43.6582 82.7422 43.2207 82.3594 42.8379C81.9766 42.4551 81.5391 42.2637 81.0469 42.2637H77.6836C75.4414 42.2637 73.5273 43.0703 71.9414 44.6836C70.3555 46.2969 69.5625 48.2246 69.5625 50.4668V53.9121L67.1836 56.291V42.1816L69.6445 39.7207C71.2305 38.1348 72.0234 36.2207 72.0234 33.9785C72.0234 31.7363 71.2305 29.8223 69.6445 28.2363L67.2656 25.8574C67.1016 25.6934 66.9102 25.5566 66.6914 25.4473C66.4727 25.3379 66.2266 25.2832 65.9531 25.2832C65.6797 25.2832 65.4336 25.3379 65.2148 25.4473C64.9961 25.5566 64.8047 25.6934 64.6406 25.8574L62.2617 28.2363C60.6758 29.8223 59.8828 31.7363 59.8828 33.9785C59.8828 36.2207 60.6758 38.1348 62.2617 39.7207L64.7227 42.1816V63.6738L62.3438 61.2949V56.209C62.3438 53.2012 61.2773 50.6309 59.1445 48.498C57.0117 46.3652 54.4414 45.2988 51.4336 45.2988H46.5117C45.9648 45.2988 45.5137 45.4766 45.1582 45.832C44.8027 46.1875 44.625 46.6387 44.625 47.1855V52.1074C44.625 55.1152 45.6914 57.6855 47.8242 59.8184C49.957 61.9512 52.5273 63.0176 55.5352 63.0176H60.6211L64.7227 67.1191V71.6309C63.793 70.7559 62.6035 69.9219 61.1543 69.1289C59.7051 68.3359 58.0234 67.8848 56.1094 67.7754C56.0547 67.7754 55.8633 67.7617 55.5352 67.7344C55.207 67.707 54.7969 67.7207 54.3047 67.7754C53.9219 67.7754 53.6211 67.9121 53.4023 68.1855C53.1836 68.459 53.1016 68.7598 53.1562 69.0879C53.1562 69.416 53.293 69.6895 53.5664 69.9082C53.8398 70.127 54.1406 70.2363 54.4688 70.2363C54.9062 70.1816 55.248 70.168 55.4941 70.1953C55.7402 70.2227 55.8906 70.2363 55.9453 70.2363C58.4062 70.4004 60.3887 71.1387 61.8926 72.4512C63.3965 73.7637 64.4219 74.8027 64.9688 75.5684C65.2422 75.9512 65.584 76.2109 65.9941 76.3477C66.4043 76.4844 66.8281 76.4707 67.2656 76.3066C67.5938 76.1973 67.9629 76.1289 68.373 76.1016C68.7832 76.0742 69.207 76.1699 69.6445 76.3887C70.082 76.6074 70.4375 76.8945 70.7109 77.25C70.9844 77.6055 71.1758 78.0293 71.2852 78.5215C71.4492 79.0684 71.75 79.4922 72.1875 79.793C72.625 80.0938 73.1172 80.1895 73.6641 80.0801C73.9375 80.0254 74.2656 79.998 74.6484 79.998C75.0312 79.998 75.4141 80.1074 75.7969 80.3262C76.1797 80.4902 76.5215 80.75 76.8223 81.1055C77.123 81.4609 77.3555 81.8574 77.5195 82.2949H39.0469C39.1016 81.9668 39.2246 81.6387 39.416 81.3105C39.6074 80.9824 39.8398 80.7363 40.1133 80.5723C40.3867 80.3535 40.6738 80.2305 40.9746 80.2031C41.2754 80.1758 41.5352 80.1895 41.7539 80.2441C42.3008 80.2988 42.793 80.1621 43.2305 79.834C43.668 79.5059 43.9414 79.0957 44.0508 78.6035C44.1602 77.8379 44.3652 77.127 44.666 76.4707C44.9668 75.8145 45.3086 75.2129 45.6914 74.666C46.1836 74.0098 46.7305 73.4219 47.332 72.9023C47.9336 72.3828 48.6172 71.9316 49.3828 71.5488C49.7109 71.3848 49.916 71.1387 49.998 70.8105C50.0801 70.4824 50.0664 70.1816 49.957 69.9082C49.793 69.5801 49.5469 69.3613 49.2188 69.252C48.8906 69.1426 48.5898 69.1699 48.3164 69.334C47.3867 69.8262 46.5391 70.3867 45.7734 71.0156C45.0078 71.6445 44.3242 72.3691 43.7227 73.1895C43.2305 73.8457 42.8203 74.5566 42.4922 75.3223C42.1641 76.0879 41.8906 76.8809 41.6719 77.7012C41.5625 77.7012 41.4395 77.7012 41.3027 77.7012C41.166 77.7012 41.043 77.7285 40.9336 77.7832C40.7148 76.9629 40.3594 76.2383 39.8672 75.6094C39.375 74.9805 38.7461 74.502 37.9805 74.1738C37.2148 73.791 36.4766 73.6133 35.7656 73.6406C35.0547 73.668 34.4805 73.7637 34.043 73.9277C33.2773 72.8887 31.9102 71.5898 29.9414 70.0312C27.9727 68.4727 25.5117 67.6934 22.5586 67.6934V59.9004L26.7422 55.7988H30.1875C32.4297 55.7988 34.3438 55.0059 35.9297 53.4199C37.5156 51.834 38.3086 49.9199 38.3086 47.6777V44.3145C38.3086 43.8223 38.1309 43.3848 37.7754 43.002C37.4199 42.6191 36.9688 42.4277 36.4219 42.4277H33.1406C30.8984 42.4277 28.9707 43.2344 27.3574 44.8477C25.7441 46.4609 24.9375 48.3887 24.9375 50.6309V54.0762L22.5586 56.4551V37.752L26.7422 33.6504H30.1875C32.4297 33.6504 34.3438 32.8574 35.9297 31.2715C37.5156 29.6855 38.3086 27.7715 38.3086 25.5293V22.166C38.3086 21.6738 38.1309 21.2363 37.7754 20.8535C37.4199 20.4707 36.9688 20.2793 36.4219 20.2793H33.1406C30.8984 20.2793 28.9707 21.0859 27.3574 22.6992C25.7441 24.3125 24.9375 26.2402 24.9375 28.4824V31.9277L22.5586 34.3066V17.9004L25.0195 15.4395C26.6055 13.8535 27.3984 11.9395 27.3984 9.69727C27.3984 7.45508 26.6055 5.54102 25.0195 3.95508L22.7227 1.57617C22.5039 1.41211 22.2852 1.28906 22.0664 1.20703C21.8477 1.125 21.6016 1.08398 21.3281 1.08398C21.1094 1.08398 20.877 1.125 20.6309 1.20703C20.3848 1.28906 20.1797 1.41211 20.0156 1.57617L17.6367 3.95508C16.0508 5.54102 15.2578 7.45508 15.2578 9.69727C15.2578 11.9395 16.0508 13.8535 17.6367 15.4395L20.0977 17.9004V41.6895L17.7188 39.3105V34.2246C17.7188 33.4043 17.6367 32.5977 17.4727 31.8047C17.3086 31.0117 17.0352 30.2324 16.6523 29.4668C16.4883 29.1934 16.2559 29.002 15.9551 28.8926C15.6543 28.7832 15.3398 28.7832 15.0117 28.8926C14.7383 29.0566 14.5332 29.3027 14.3965 29.6309C14.2598 29.959 14.2734 30.2598 14.4375 30.5332C14.7109 31.1348 14.916 31.7363 15.0527 32.3379C15.1895 32.9395 15.2578 33.5684 15.2578 34.2246V36.8496L10.5 32.0098C10.2266 31.791 9.92578 31.6816 9.59766 31.6816C9.26953 31.6816 8.96875 31.791 8.69531 32.0098C8.47656 32.2832 8.36719 32.584 8.36719 32.9121C8.36719 33.2402 8.47656 33.5137 8.69531 33.7324L13.5352 38.5723H10.9102C8.61328 38.5723 6.63086 37.752 4.96289 36.1113C3.29492 34.4707 2.46094 32.4746 2.46094 30.123V25.7754H6.80859C7.57422 25.7754 8.32617 25.8711 9.06445 26.0625C9.80273 26.2539 10.4727 26.541 11.0742 26.9238C11.4023 27.0879 11.7305 27.1289 12.0586 27.0469C12.3867 26.9648 12.6328 26.7871 12.7969 26.5137C12.9609 26.1855 13.002 25.8574 12.9199 25.5293C12.8379 25.2012 12.6602 24.9551 12.3867 24.791C11.5117 24.2988 10.6094 23.9297 9.67969 23.6836C8.75 23.4375 7.79297 23.3145 6.80859 23.3145H1.88672C1.33984 23.3145 0.888672 23.4922 0.533203 23.8477C0.177734 24.2031 0 24.6543 0 25.2012V30.123C0 33.1309 1.06641 35.7012 3.19922 37.834C5.33203 39.9668 7.90234 41.0332 10.9102 41.0332H15.9961L20.0977 45.1348V66.2988L18.5391 64.7402V60.3926C18.5391 57.7676 17.6094 55.5117 15.75 53.625C13.8906 51.7383 11.6211 50.7949 8.94141 50.7949H4.75781C4.26562 50.7949 3.82812 50.9863 3.44531 51.3691C3.0625 51.752 2.87109 52.1895 2.87109 52.6816V56.8652C2.87109 59.4902 3.81445 61.7461 5.70117 63.6328C7.58789 65.5195 9.87109 66.4629 12.5508 66.4629H16.8164L18.6211 68.2676C17.3633 68.541 16.0371 69.0605 14.6426 69.8262C13.248 70.5918 12.0312 71.7129 10.9922 73.1895C10.5 73.8457 10.0898 74.5566 9.76172 75.3223C9.43359 76.0879 9.16016 76.8809 8.94141 77.7012C8.55859 77.7012 8.10742 77.7559 7.58789 77.8652C7.06836 77.9746 6.5625 78.1934 6.07031 78.5215C5.41406 78.9043 4.89453 79.4375 4.51172 80.1211C4.12891 80.8047 3.91016 81.5293 3.85547 82.2949H1.23047C0.902344 82.2949 0.615234 82.418 0.369141 82.6641C0.123047 82.9102 0 83.1973 0 83.5254C0 83.9082 0.123047 84.209 0.369141 84.4277C0.615234 84.6465 0.902344 84.7559 1.23047 84.7559H82.7695C83.0977 84.7559 83.3848 84.6465 83.6309 84.4277C83.877 84.209 84 83.9082 84 83.5254C84 83.1973 83.877 82.9102 83.6309 82.6641C83.3848 82.418 83.0977 82.2949 82.7695 82.2949ZM72.0234 50.4668C72.0234 48.8809 72.584 47.5273 73.7051 46.4062C74.8262 45.2852 76.1523 44.7246 77.6836 44.7246H80.4727V47.5137C80.4727 49.0449 79.9121 50.3711 78.791 51.4922C77.6699 52.6133 76.3438 53.1738 74.8125 53.1738H73.7461L76.2891 50.7129C76.5078 50.4395 76.6172 50.1387 76.6172 49.8105C76.6172 49.4824 76.5078 49.209 76.2891 48.9902C76.0156 48.7168 75.7148 48.5801 75.3867 48.5801C75.0586 48.5801 74.7578 48.7168 74.4844 48.9902L72.0234 51.4512V50.4668ZM59.8828 58.834L55.043 53.9941C54.8242 53.7754 54.5371 53.666 54.1816 53.666C53.8262 53.666 53.5391 53.7754 53.3203 53.9941C53.1016 54.2676 52.9922 54.5684 52.9922 54.8965C52.9922 55.2246 53.1016 55.498 53.3203 55.7168L58.1602 60.5566H55.5352C53.1836 60.5566 51.1875 59.7363 49.5469 58.0957C47.9062 56.4551 47.0859 54.459 47.0859 52.1074V47.7598H51.4336C53.7305 47.7598 55.7129 48.5801 57.3809 50.2207C59.0488 51.8613 59.8828 53.8574 59.8828 56.209V58.834ZM65.9531 33.9785C65.625 33.9785 65.3379 34.1016 65.0918 34.3477C64.8457 34.5938 64.7227 34.8809 64.7227 35.209V38.7363L63.9844 37.998C62.8906 36.9043 62.3438 35.5645 62.3438 33.9785C62.3438 32.3926 62.8906 31.0527 63.9844 29.959L65.9531 27.9902L67.9219 29.959C69.0156 31.0527 69.5625 32.3926 69.5625 33.9785C69.5625 35.5645 69.0156 36.9043 67.9219 37.998L67.1836 38.7363V35.209C67.1836 34.8809 67.0605 34.5938 66.8145 34.3477C66.5684 34.1016 66.2812 33.9785 65.9531 33.9785ZM27.3984 50.6309C27.3984 49.0449 27.959 47.6914 29.0801 46.5703C30.2012 45.4492 31.5547 44.8887 33.1406 44.8887H35.8477V47.6777C35.8477 49.209 35.3008 50.5352 34.207 51.6562C33.1133 52.7773 31.7734 53.3379 30.1875 53.3379H29.2031L31.6641 50.877C31.8828 50.6035 31.9922 50.3027 31.9922 49.9746C31.9922 49.6465 31.8828 49.373 31.6641 49.1543C31.3906 48.8809 31.0898 48.7441 30.7617 48.7441C30.4336 48.7441 30.1602 48.8809 29.9414 49.1543L27.3984 51.6152V50.6309ZM27.3984 28.4824C27.3984 26.8965 27.959 25.543 29.0801 24.4219C30.2012 23.3008 31.5547 22.7402 33.1406 22.7402H35.8477V25.5293C35.8477 27.0605 35.3008 28.3867 34.207 29.5078C33.1133 30.6289 31.7734 31.1895 30.1875 31.1895H29.2031L31.6641 28.7285C31.8828 28.4551 31.9922 28.1543 31.9922 27.8262C31.9922 27.498 31.8828 27.2246 31.6641 27.0059C31.3906 26.7324 31.0898 26.5957 30.7617 26.5957C30.4336 26.5957 30.1602 26.7324 29.9414 27.0059L27.3984 29.4668V28.4824ZM16.0781 62.2793L12.2227 58.4238C12.0039 58.1504 11.7168 58.0137 11.3613 58.0137C11.0059 58.0137 10.7188 58.1504 10.5 58.4238C10.2812 58.6426 10.1719 58.9297 10.1719 59.2852C10.1719 59.6406 10.2812 59.9277 10.5 60.1465L14.3555 64.002H12.5508C10.582 64.002 8.88672 63.3047 7.46484 61.9102C6.04297 60.5156 5.33203 58.834 5.33203 56.8652V53.2559H8.94141C10.9102 53.2559 12.5918 53.9531 13.9863 55.3477C15.3809 56.7422 16.0781 58.4238 16.0781 60.3926V62.2793ZM20.0977 10.9277V14.4551L19.4414 13.7168C18.293 12.623 17.7188 11.2969 17.7188 9.73828C17.7188 8.17969 18.293 6.82617 19.4414 5.67773L21.3281 3.79102L23.2969 5.67773C24.3906 6.82617 24.9375 8.17969 24.9375 9.73828C24.9375 11.2969 24.3906 12.623 23.2969 13.7168L22.5586 14.4551V10.9277C22.5586 10.5996 22.4492 10.3125 22.2305 10.0664C22.0117 9.82031 21.7109 9.69727 21.3281 9.69727C21 9.69727 20.7129 9.82031 20.4668 10.0664C20.2207 10.3125 20.0977 10.5996 20.0977 10.9277ZM36.5039 82.2949H21.4922C21.4375 82.2949 21.4102 82.2949 21.4102 82.2949C21.4102 82.2949 21.3828 82.2949 21.3281 82.2949C21.3281 82.2949 21.3145 82.2949 21.2871 82.2949C21.2598 82.2949 21.2461 82.2949 21.2461 82.2949H6.31641C6.37109 81.9668 6.49414 81.6387 6.68555 81.3105C6.87695 80.9824 7.10938 80.7363 7.38281 80.5723C7.65625 80.3535 7.94336 80.2305 8.24414 80.2031C8.54492 80.1758 8.80469 80.1895 9.02344 80.2441C9.57031 80.2988 10.0625 80.1621 10.5 79.834C10.9375 79.5059 11.2109 79.0957 11.3203 78.6035C11.4297 77.8379 11.6348 77.127 11.9355 76.4707C12.2363 75.8145 12.5781 75.2129 12.9609 74.666C14.7109 72.2051 16.8438 70.8516 19.3594 70.6055C21.875 70.3594 23.1602 70.2363 23.2148 70.2363C25.6758 70.4004 27.6582 71.1387 29.1621 72.4512C30.666 73.7637 31.6914 74.8027 32.2383 75.5684C32.5117 75.9512 32.8672 76.2109 33.3047 76.3477C33.7422 76.4844 34.1523 76.4707 34.5352 76.3066C34.8633 76.1973 35.2324 76.1289 35.6426 76.1016C36.0527 76.0742 36.4766 76.1699 36.9141 76.3887C37.3516 76.6074 37.7207 76.9082 38.0215 77.291C38.3223 77.6738 38.5273 78.1113 38.6367 78.6035C38.0352 79.041 37.5566 79.5879 37.2012 80.2441C36.8457 80.9004 36.6133 81.584 36.5039 82.2949Z" fill="white"/>
</svg>
