<svg width="70" height="71" viewBox="0 0 70 71" fill="none" xmlns="http://www.w3.org/2000/svg">
<rect y="0.75" width="70" height="70" rx="7" fill="#C5CE38"/>
<path d="M19.7656 51.375C21.1654 51.375 22.3617 50.8786 23.3545 49.8857C24.3473 48.8929 24.8438 47.6966 24.8438 46.2969C24.8438 44.8971 24.3473 43.7008 23.3545 42.708C22.3617 41.7152 21.1654 41.2188 19.7656 41.2188C18.3659 41.2188 17.1696 41.7152 16.1768 42.708C15.1839 43.7008 14.6875 44.8971 14.6875 46.2969C14.6875 47.6966 15.1839 48.8929 16.1768 49.8857C17.1696 50.8786 18.3659 51.375 19.7656 51.375ZM19.7656 42.7812C20.7422 42.7812 21.5723 43.123 22.2559 43.8066C22.9395 44.4902 23.2812 45.3203 23.2812 46.2969C23.2812 47.2734 22.9395 48.1035 22.2559 48.7871C21.5723 49.4707 20.7422 49.8125 19.7656 49.8125C18.7891 49.8125 17.959 49.4707 17.2754 48.7871C16.5918 48.1035 16.25 47.2734 16.25 46.2969C16.25 45.3203 16.5918 44.4902 17.2754 43.8066C17.959 43.123 18.7891 42.7812 19.7656 42.7812ZM46.8164 52.1562C47.6953 52.1562 48.4521 51.8389 49.0869 51.2041C49.7217 50.5693 50.0391 49.8125 50.0391 48.9336C50.0391 48.0547 49.7217 47.2979 49.0869 46.6631C48.4521 46.0283 47.6953 45.7109 46.8164 45.7109C45.9375 45.7109 45.1807 46.0283 44.5459 46.6631C43.9111 47.2979 43.5938 48.0547 43.5938 48.9336C43.5938 49.8125 43.9111 50.5693 44.5459 51.2041C45.1807 51.8389 45.9375 52.1562 46.8164 52.1562ZM46.8164 47.2734C47.2721 47.2734 47.6628 47.4362 47.9883 47.7617C48.3138 48.0872 48.4766 48.4779 48.4766 48.9336C48.4766 49.3893 48.3138 49.7799 47.9883 50.1055C47.6628 50.431 47.2721 50.5938 46.8164 50.5938C46.3607 50.5938 45.9701 50.431 45.6445 50.1055C45.319 49.7799 45.1562 49.3893 45.1562 48.9336C45.1562 48.4779 45.319 48.0872 45.6445 47.7617C45.9701 47.4362 46.3607 47.2734 46.8164 47.2734ZM54.5312 44.3438H53.75V37.9473C53.75 36.7103 53.3024 35.6442 52.4072 34.749C51.512 33.8538 50.446 33.4062 49.209 33.4062H45.1562V30.2812C45.1562 30.0534 45.083 29.8662 44.9365 29.7197C44.79 29.5732 44.6029 29.5 44.375 29.5H43.5938V26.0332L45.5957 24.666C45.6934 24.6009 45.7747 24.5114 45.8398 24.3975C45.9049 24.2835 45.9375 24.1615 45.9375 24.0312C45.9375 23.8034 45.8643 23.6162 45.7178 23.4697C45.5713 23.3232 45.3841 23.25 45.1562 23.25C45.0586 23.25 44.9772 23.2581 44.9121 23.2744C44.847 23.2907 44.7819 23.3314 44.7168 23.3965L42.373 24.959C42.2754 25.0241 42.194 25.1136 42.1289 25.2275C42.0638 25.3415 42.0312 25.4635 42.0312 25.5938V29.5H41.25C41.0221 29.5 40.835 29.5732 40.6885 29.7197C40.542 29.8662 40.4688 30.0534 40.4688 30.2812V33.4062H38.7109L34.4629 19.2949C34.6257 19.2298 34.7559 19.1322 34.8535 19.002C34.9512 18.8717 35 18.7253 35 18.5625V16.8047C35 16.2188 34.7884 15.7142 34.3652 15.291C33.9421 14.8678 33.4375 14.6562 32.8516 14.6562H18.3984C17.8125 14.6562 17.3079 14.8678 16.8848 15.291C16.4616 15.7142 16.25 16.2188 16.25 16.8047V18.5625C16.25 18.7578 16.307 18.9206 16.4209 19.0508C16.5348 19.181 16.6732 19.2624 16.8359 19.2949L13.9551 31.502L10.1953 36.043C10.1302 36.1081 10.0814 36.1813 10.0488 36.2627C10.0163 36.3441 10 36.4336 10 36.5312C10 36.7591 10.0732 36.9463 10.2197 37.0928C10.3662 37.2393 10.5534 37.3125 10.7812 37.3125H14.6875C14.7852 37.3125 14.8828 37.2881 14.9805 37.2393C15.0781 37.1904 15.1595 37.1335 15.2246 37.0684L16.1523 36.1895L16.6895 37.0684C14.7363 37.7194 13.1331 38.8831 11.8799 40.5596C10.6266 42.236 10 44.1484 10 46.2969C10 47.6641 10.2604 48.9336 10.7812 50.1055C11.2695 51.2773 11.9613 52.3109 12.8564 53.2061C13.7516 54.1012 14.7852 54.793 15.957 55.2812C17.1289 55.8021 18.3984 56.0625 19.7656 56.0625C21.9792 56.0625 23.9404 55.4033 25.6494 54.085C27.3584 52.7666 28.5059 51.0983 29.0918 49.0801L29.1406 49.0312H39.6875C39.7201 50.9844 40.4281 52.6445 41.8115 54.0117C43.195 55.3789 44.8633 56.0625 46.8164 56.0625C48.7695 56.0625 50.4378 55.3789 51.8213 54.0117C53.2048 52.6445 53.9128 50.9844 53.9453 49.0312H54.5312C55.1823 49.0312 55.7357 48.8034 56.1914 48.3477C56.6471 47.8919 56.875 47.3385 56.875 46.6875C56.875 46.0365 56.6471 45.4831 56.1914 45.0273C55.7357 44.5716 55.1823 44.3438 54.5312 44.3438ZM49.209 34.9688C50.0228 34.9688 50.7227 35.2617 51.3086 35.8477C51.8945 36.4336 52.1875 37.1335 52.1875 37.9473V44.2949C51.5365 43.5462 50.7471 42.944 49.8193 42.4883C48.8916 42.0326 47.8906 41.8047 46.8164 41.8047C46.5234 41.8047 46.2305 41.821 45.9375 41.8535C45.6445 41.8861 45.3678 41.9512 45.1074 42.0488L45.1562 42V34.9688H49.209ZM42.0312 31.0625H43.5938V42.5859C43.3008 42.7487 43.0241 42.9196 42.7637 43.0986C42.5033 43.2777 42.2591 43.4648 42.0312 43.6602V31.0625ZM37.0508 47.4688L35.3906 44.3438H37.3438V47.4688H37.0508ZM15.6641 31.0625L18.4473 19.3438H20.1562V31.0625H15.6641ZM21.7188 19.3438H23.2812V31.0625H21.7188V19.3438ZM24.8438 19.3438H32.8516L37.0508 33.4062H35.5859C35.5534 33.4062 35.5208 33.4062 35.4883 33.4062C35.4557 33.4062 35.4395 33.4062 35.4395 33.4062L34.3164 31.7461L34.707 31.502C34.8047 31.4368 34.8779 31.3473 34.9268 31.2334C34.9756 31.1195 35 30.9974 35 30.8672C35 30.6393 34.9268 30.4521 34.7803 30.3057C34.6338 30.1592 34.4466 30.0859 34.2188 30.0859C34.1211 30.0859 34.0316 30.1022 33.9502 30.1348C33.8688 30.1673 33.7956 30.1999 33.7305 30.2324L31.3867 31.9902C31.2891 32.0553 31.2158 32.1449 31.167 32.2588C31.1182 32.3727 31.0938 32.4948 31.0938 32.625C31.0938 32.8529 31.167 33.04 31.3135 33.1865C31.46 33.333 31.6471 33.4062 31.875 33.4062C31.9727 33.4062 32.0622 33.39 32.1436 33.3574C32.2249 33.3249 32.2982 33.2923 32.3633 33.2598L33.0957 32.7227L33.877 33.9434C33.5189 34.2038 33.2259 34.5456 32.998 34.9688C32.7702 35.3919 32.6562 35.8477 32.6562 36.3359V39.1191L28.6523 31.502C28.5872 31.3717 28.4977 31.266 28.3838 31.1846C28.2699 31.1032 28.1315 31.0625 27.9688 31.0625H24.8438V19.3438ZM35.5859 34.9688H37.3438V36.5312H34.2188V36.3359C34.2188 35.9453 34.349 35.6198 34.6094 35.3594C34.8698 35.099 35.1953 34.9688 35.5859 34.9688ZM34.2188 38.0938H37.3438V39.6562H34.2188V38.0938ZM34.2188 42.0977C34.2188 42.0651 34.2188 42.0407 34.2188 42.0244C34.2188 42.0081 34.2188 42 34.2188 42V41.2188H37.3438V42.7812H34.5605L34.2188 42.0977ZM17.8125 16.8047C17.8125 16.6419 17.8695 16.5036 17.9834 16.3896C18.0973 16.2757 18.2357 16.2188 18.3984 16.2188H32.8516C33.0143 16.2188 33.1527 16.2757 33.2666 16.3896C33.3805 16.5036 33.4375 16.6419 33.4375 16.8047V17.7812H17.8125V16.8047ZM11.6602 47.5176L13.6133 46.1992C13.7435 46.1016 13.8411 45.9958 13.9062 45.8818C13.9714 45.7679 14.0039 45.6458 14.0039 45.5156C14.0039 45.3203 13.9225 45.1413 13.7598 44.9785C13.597 44.8158 13.418 44.7344 13.2227 44.7344C13.125 44.7344 13.0436 44.7507 12.9785 44.7832C12.9134 44.8158 12.8483 44.8483 12.7832 44.8809L11.6113 45.6621C11.6764 44.8483 11.8473 44.0833 12.124 43.3672C12.4007 42.651 12.7669 42 13.2227 41.4141H13.1738L15.5176 41.9023C15.5501 41.9023 15.5745 41.9023 15.5908 41.9023C15.6071 41.9023 15.6315 41.9023 15.6641 41.9023C15.8919 41.9023 16.0791 41.8291 16.2256 41.6826C16.3721 41.5361 16.4453 41.349 16.4453 41.1211C16.4453 40.9258 16.3883 40.7549 16.2744 40.6084C16.1605 40.4619 16.0059 40.3724 15.8105 40.3398L14.4434 40.0957C14.9967 39.6074 15.6234 39.2005 16.3232 38.875C17.0231 38.5495 17.7474 38.3216 18.4961 38.1914H18.5449L19.8633 40.1934C19.9609 40.291 20.0667 40.3724 20.1807 40.4375C20.2946 40.5026 20.4167 40.5352 20.5469 40.5352C20.7422 40.5352 20.9212 40.4619 21.084 40.3154C21.2467 40.1689 21.3281 39.9818 21.3281 39.7539C21.3281 39.6562 21.3118 39.5749 21.2793 39.5098C21.2467 39.4447 21.2142 39.3796 21.1816 39.3145L20.4004 38.1426C21.2142 38.2077 21.9792 38.3786 22.6953 38.6553C23.4115 38.932 24.0625 39.2982 24.6484 39.7539L24.1602 42.0488C24.1602 42.0814 24.1602 42.1139 24.1602 42.1465C24.1602 42.179 24.1602 42.2116 24.1602 42.2441C24.1602 42.4395 24.2334 42.6185 24.3799 42.7812C24.5264 42.944 24.7135 43.0254 24.9414 43.0254C25.1367 43.0254 25.3076 42.9603 25.4541 42.8301C25.6006 42.6999 25.6901 42.5534 25.7227 42.3906L25.9668 40.9746C26.4551 41.5605 26.862 42.1953 27.1875 42.8789C27.513 43.5625 27.7409 44.2949 27.8711 45.0762V45.125L25.8691 46.4434C25.7715 46.5085 25.6901 46.598 25.625 46.7119C25.5599 46.8258 25.5273 46.9479 25.5273 47.0781C25.5273 47.306 25.6006 47.4932 25.7471 47.6396C25.8936 47.7861 26.0807 47.8594 26.3086 47.8594C26.3737 47.8594 26.4469 47.8512 26.5283 47.835C26.6097 47.8187 26.6829 47.7943 26.748 47.7617L27.9199 46.9316C27.8548 47.7454 27.6839 48.5104 27.4072 49.2266C27.1305 49.9427 26.7643 50.61 26.3086 51.2285V51.1797L24.0137 50.7402C23.9811 50.7402 23.9486 50.7321 23.916 50.7158C23.8835 50.6995 23.8509 50.6914 23.8184 50.6914C23.623 50.6914 23.444 50.7728 23.2812 50.9355C23.1185 51.0983 23.0371 51.2773 23.0371 51.4727C23.0371 51.668 23.1022 51.8389 23.2324 51.9854C23.3626 52.1318 23.5091 52.2214 23.6719 52.2539L25.0879 52.5469C24.502 53.0352 23.8672 53.4339 23.1836 53.7432C22.5 54.0524 21.7676 54.2721 20.9863 54.4023H20.9375L19.6191 52.4492C19.554 52.319 19.4645 52.2214 19.3506 52.1562C19.2367 52.0911 19.1146 52.0586 18.9844 52.0586C18.7565 52.0586 18.5693 52.14 18.4229 52.3027C18.2764 52.4655 18.2031 52.6445 18.2031 52.8398C18.2031 52.9375 18.2113 53.0189 18.2275 53.084C18.2438 53.1491 18.2682 53.2142 18.3008 53.2793L19.1309 54.4512C18.3171 54.3861 17.5521 54.2152 16.8359 53.9385C16.1198 53.6618 15.4525 53.2956 14.834 52.8398L14.8828 52.8887L15.3223 50.5449C15.3223 50.5124 15.3304 50.488 15.3467 50.4717C15.363 50.4554 15.3711 50.431 15.3711 50.3984C15.3711 50.1706 15.2897 49.9834 15.127 49.8369C14.9642 49.6904 14.7852 49.6172 14.5898 49.6172C14.3945 49.6172 14.2236 49.6742 14.0771 49.7881C13.9307 49.902 13.8411 50.0566 13.8086 50.252L13.5156 51.6191C13.0273 51.0658 12.6286 50.4391 12.3193 49.7393C12.0101 49.0394 11.7904 48.3151 11.6602 47.5664V47.5176ZM19.7656 36.5312C19.5052 36.5312 19.2529 36.5475 19.0088 36.5801C18.7646 36.6126 18.5124 36.6452 18.252 36.6777H18.3008L17.7148 35.75H25.918L32.1191 47.4688H29.4336C29.4661 47.306 29.4906 47.127 29.5068 46.9316C29.5231 46.7363 29.5312 46.5247 29.5312 46.2969C29.5312 44.9622 29.2708 43.6927 28.75 42.4883C28.2292 41.3164 27.5293 40.291 26.6504 39.4121C25.7715 38.5332 24.7461 37.8333 23.5742 37.3125C22.3698 36.7917 21.1003 36.5312 19.7656 36.5312ZM33.9258 47.4688L27.0898 34.627C27.0247 34.4967 26.9352 34.391 26.8213 34.3096C26.7074 34.2282 26.569 34.1875 26.4062 34.1875H16.25C16.1523 34.1875 16.0547 34.2119 15.957 34.2607C15.8594 34.3096 15.778 34.3665 15.7129 34.4316L14.3457 35.75H12.4414L15.0293 32.625H27.4805L35.293 47.4688H33.9258ZM38.9062 34.9688H40.4688V45.7109C40.3385 45.9714 40.2165 46.248 40.1025 46.541C39.9886 46.834 39.8991 47.127 39.834 47.4199V47.4688H38.9062V34.9688ZM41.3965 50.1055L42.373 49.4219C42.4707 49.3242 42.5521 49.2266 42.6172 49.1289C42.6823 49.0312 42.7148 48.9173 42.7148 48.7871C42.7148 48.5592 42.6416 48.3721 42.4951 48.2256C42.3486 48.0791 42.1615 48.0059 41.9336 48.0059C41.8685 48.0059 41.7952 48.014 41.7139 48.0303C41.6325 48.0465 41.5592 48.071 41.4941 48.1035L41.2988 48.25C41.3639 47.8268 41.4697 47.4199 41.6162 47.0293C41.7627 46.6387 41.9499 46.2643 42.1777 45.9062H42.1289L43.3496 46.1504C43.3822 46.1504 43.4066 46.1504 43.4229 46.1504C43.4391 46.1504 43.4635 46.1504 43.4961 46.1504C43.724 46.1504 43.9111 46.0771 44.0576 45.9307C44.2041 45.7842 44.2773 45.597 44.2773 45.3691C44.2773 45.1738 44.2122 45.0029 44.082 44.8564C43.9518 44.71 43.8053 44.6204 43.6426 44.5879L43.3984 44.5391C43.724 44.3112 44.0658 44.1077 44.4238 43.9287C44.7819 43.7497 45.1725 43.6113 45.5957 43.5137H45.6445L46.3281 44.5391C46.4258 44.6367 46.5234 44.7181 46.6211 44.7832C46.7188 44.8483 46.8327 44.8809 46.9629 44.8809C47.1908 44.8809 47.3779 44.7995 47.5244 44.6367C47.6709 44.474 47.7441 44.2949 47.7441 44.0996C47.7441 44.002 47.736 43.9124 47.7197 43.8311C47.7034 43.7497 47.679 43.6764 47.6465 43.6113L47.5 43.416C47.9232 43.4811 48.3301 43.5869 48.7207 43.7334C49.1113 43.8799 49.4857 44.0671 49.8438 44.2949L49.5996 45.4668C49.5996 45.4993 49.5996 45.5319 49.5996 45.5645C49.5996 45.597 49.5996 45.6133 49.5996 45.6133C49.5996 45.8411 49.6729 46.0283 49.8193 46.1748C49.9658 46.3213 50.153 46.3945 50.3809 46.3945C50.5762 46.3945 50.7471 46.3376 50.8936 46.2236C51.04 46.1097 51.1296 45.9551 51.1621 45.7598L51.2109 45.5156C51.4388 45.8411 51.6423 46.1911 51.8213 46.5654C52.0003 46.9398 52.1387 47.3223 52.2363 47.7129V47.7617L51.2109 48.4941C51.1133 48.5592 51.0319 48.6488 50.9668 48.7627C50.9017 48.8766 50.8691 48.9987 50.8691 49.1289C50.8691 49.3242 50.9505 49.5033 51.1133 49.666C51.276 49.8288 51.4551 49.9102 51.6504 49.9102C51.748 49.9102 51.8376 49.8939 51.9189 49.8613C52.0003 49.8288 52.0736 49.7962 52.1387 49.7637L52.334 49.6172C52.2689 50.0729 52.1631 50.4961 52.0166 50.8867C51.8701 51.2773 51.6829 51.6354 51.4551 51.9609L50.2832 51.7168C50.2507 51.7168 50.2262 51.7168 50.21 51.7168C50.1937 51.7168 50.1693 51.7168 50.1367 51.7168C49.9089 51.7168 49.7217 51.7982 49.5752 51.9609C49.4287 52.1237 49.3555 52.3027 49.3555 52.498C49.3555 52.6934 49.4124 52.8643 49.5264 53.0107C49.6403 53.1572 49.7949 53.2467 49.9902 53.2793L50.2344 53.3281C49.9089 53.556 49.5589 53.7594 49.1846 53.9385C48.8102 54.1175 48.4277 54.2559 48.0371 54.3535H47.9883L47.2559 53.377C47.1908 53.2793 47.1012 53.1979 46.9873 53.1328C46.8734 53.0677 46.7513 53.0352 46.6211 53.0352C46.4258 53.0352 46.2467 53.1084 46.084 53.2549C45.9212 53.4014 45.8398 53.5885 45.8398 53.8164C45.8398 53.8815 45.8561 53.9548 45.8887 54.0361C45.9212 54.1175 45.9538 54.1908 45.9863 54.2559L46.1328 54.4512C45.6771 54.3861 45.2539 54.2803 44.8633 54.1338C44.4727 53.9873 44.1146 53.8001 43.7891 53.5723V53.6211L44.0332 52.4004C44.0332 52.3678 44.0332 52.3434 44.0332 52.3271C44.0332 52.3109 44.0332 52.2865 44.0332 52.2539C44.0332 52.0586 43.9518 51.8796 43.7891 51.7168C43.6263 51.554 43.4473 51.4727 43.252 51.4727C43.0566 51.4727 42.8857 51.5378 42.7393 51.668C42.5928 51.7982 42.5033 51.9447 42.4707 52.1074L42.4219 52.3516C42.194 52.0586 41.9906 51.7249 41.8115 51.3506C41.6325 50.9762 41.4941 50.5775 41.3965 50.1543V50.1055ZM54.5312 47.4688H53.7988C53.7337 47.1758 53.6523 46.8991 53.5547 46.6387C53.457 46.3783 53.3431 46.1178 53.2129 45.8574L53.2617 45.9062H54.5312C54.7591 45.9062 54.9463 45.9795 55.0928 46.126C55.2393 46.2725 55.3125 46.4596 55.3125 46.6875C55.3125 46.9154 55.2393 47.1025 55.0928 47.249C54.9463 47.3955 54.7591 47.4688 54.5312 47.4688ZM47.5 39.6562C47.7279 39.6562 47.915 39.583 48.0615 39.4365C48.208 39.29 48.2812 39.1029 48.2812 38.875V37.3125C48.2812 37.0846 48.208 36.8975 48.0615 36.751C47.915 36.6045 47.7279 36.5312 47.5 36.5312C47.2721 36.5312 47.085 36.6045 46.9385 36.751C46.792 36.8975 46.7188 37.0846 46.7188 37.3125V38.875C46.7188 39.1029 46.792 39.29 46.9385 39.4365C47.085 39.583 47.2721 39.6562 47.5 39.6562ZM49.8438 39.6562C50.0716 39.6562 50.2588 39.583 50.4053 39.4365C50.5518 39.29 50.625 39.1029 50.625 38.875V37.3125C50.625 37.0846 50.5518 36.8975 50.4053 36.751C50.2588 36.6045 50.0716 36.5312 49.8438 36.5312C49.6159 36.5312 49.4287 36.6045 49.2822 36.751C49.1357 36.8975 49.0625 37.0846 49.0625 37.3125V38.875C49.0625 39.1029 49.1357 39.29 49.2822 39.4365C49.4287 39.583 49.6159 39.6562 49.8438 39.6562Z" fill="white"/>
</svg>
