<svg width="70" height="71" viewBox="0 0 70 71" fill="none" xmlns="http://www.w3.org/2000/svg">
<rect y="0.75" width="70" height="70" rx="7" fill="#C5CE38"/>
<g clip-path="url(#clip0_4137_71)">
<path d="M50.918 59.1875C50.2018 58.6667 49.4368 58.2109 48.623 57.8203C47.8092 57.4297 46.9954 57.0879 46.1816 56.7949C44.6842 56.209 42.6986 55.6393 40.2246 55.0859C37.7507 54.5326 34.8047 54.2396 31.3867 54.207C31.4518 53.7188 31.5576 53.1491 31.7041 52.498C31.8506 51.847 32.0703 51.1309 32.3633 50.3496C32.6888 49.6009 33.055 48.8929 33.4619 48.2256C33.8688 47.5583 34.3327 46.9154 34.8535 46.2969C35.1139 46.3945 35.5371 46.5247 36.123 46.6875C36.709 46.8503 37.4251 46.9316 38.2715 46.9316C39.0202 46.9316 39.8421 46.8177 40.7373 46.5898C41.6325 46.362 42.5521 45.9225 43.4961 45.2715C45.7422 43.7415 46.9954 42.0488 47.2559 40.1934C47.5163 38.3379 47.6465 37.3451 47.6465 37.2148C47.6465 37.0846 47.6058 36.9707 47.5244 36.873C47.443 36.7754 47.3372 36.694 47.207 36.6289C47.1745 36.6289 47.0117 36.5638 46.7188 36.4336C46.4258 36.3034 46.0352 36.1895 45.5469 36.0918C45.9375 35.4408 46.2793 34.7734 46.5723 34.0898C46.8652 33.4062 47.1094 32.6901 47.3047 31.9414C47.4349 31.4857 47.264 31.2008 46.792 31.0869C46.32 30.973 46.0189 31.1439 45.8887 31.5996C45.6934 32.3809 45.4248 33.1296 45.083 33.8457C44.7412 34.5618 44.3424 35.2454 43.8867 35.8965C43.1055 35.8965 42.2266 36.0104 41.25 36.2383C40.2734 36.4661 39.2806 36.9382 38.2715 37.6543C37.5228 38.1751 36.8962 38.7448 36.3916 39.3633C35.887 39.9818 35.4883 40.6003 35.1953 41.2188C34.5443 41.2839 33.9502 41.3083 33.4131 41.292C32.876 41.2757 32.4284 41.2513 32.0703 41.2188C32.4284 40.6979 32.9329 40.0469 33.584 39.2656C34.235 38.4518 34.9919 37.5973 35.8545 36.7021C36.7171 35.807 37.653 34.9199 38.6621 34.041C39.6712 33.1947 40.7129 32.446 41.7871 31.7949C42.2103 31.5671 42.2998 31.2415 42.0557 30.8184C41.8115 30.3952 41.4779 30.2975 41.0547 30.5254C38.9388 31.7624 37.0101 33.3167 35.2686 35.1885C33.527 37.0602 32.2168 38.582 31.3379 39.7539C31.2728 38.6146 31.4437 37.1335 31.8506 35.3105C32.2575 33.4876 33.3073 31.7461 35 30.0859C36.0742 28.9792 37.2624 28.1084 38.5645 27.4736C39.8665 26.8389 41.25 26.4401 42.7148 26.2773C43.4961 26.2122 44.1797 26.2041 44.7656 26.2529C45.3516 26.3018 45.8073 26.3424 46.1328 26.375C46.1654 26.5703 46.1979 26.8226 46.2305 27.1318C46.263 27.4411 46.2793 27.791 46.2793 28.1816C46.2793 28.6374 46.5234 28.8652 47.0117 28.8652C47.5 28.8652 47.7441 28.6211 47.7441 28.1328C47.7441 27.3841 47.6953 26.7819 47.5977 26.3262C47.5 25.8704 47.4512 25.6263 47.4512 25.5938C47.4186 25.4635 47.3535 25.3577 47.2559 25.2764C47.1582 25.195 47.0605 25.1217 46.9629 25.0566C46.8978 25.0566 46.4665 24.9915 45.6689 24.8613C44.8714 24.7311 43.8542 24.7148 42.6172 24.8125C41.4779 24.9427 40.127 25.3008 38.5645 25.8867C37.002 26.4727 35.4557 27.5306 33.9258 29.0605C33.7956 29.1908 33.6735 29.3128 33.5596 29.4268C33.4456 29.5407 33.3398 29.6628 33.2422 29.793C33.4375 29.1745 33.6491 28.5234 33.877 27.8398C34.1048 27.1562 34.3327 26.4727 34.5605 25.7891C35.2116 25.5938 36.1963 25.0811 37.5146 24.251C38.833 23.4209 39.8503 21.9805 40.5664 19.9297C41.4453 17.3581 41.4453 15.2503 40.5664 13.6064C39.6875 11.9626 39.2155 11.0918 39.1504 10.9941C39.0527 10.8965 38.9469 10.8314 38.833 10.7988C38.7191 10.7663 38.597 10.75 38.4668 10.75C38.3691 10.7826 37.4658 11.165 35.7568 11.8975C34.0479 12.6299 32.7376 14.2982 31.8262 16.9023C31.0775 19.0508 31.0205 20.9062 31.6553 22.4688C32.29 24.0312 32.7702 25.0241 33.0957 25.4473C32.9004 26.0983 32.6969 26.7412 32.4854 27.376C32.2738 28.0107 32.0703 28.6211 31.875 29.207C31.7448 28.2305 31.46 27.1725 31.0205 26.0332C30.5811 24.8939 29.9219 23.7708 29.043 22.6641C27.7083 20.9714 26.3005 19.7425 24.8193 18.9775C23.3382 18.2126 22.0443 17.6999 20.9375 17.4395C19.7005 17.179 18.6833 17.0732 17.8857 17.1221C17.0882 17.1709 16.6732 17.1953 16.6406 17.1953C16.5104 17.2279 16.3883 17.2848 16.2744 17.3662C16.1605 17.4476 16.0872 17.5371 16.0547 17.6348C16.0547 17.6673 15.9652 17.9766 15.7861 18.5625C15.6071 19.1484 15.4688 19.9134 15.3711 20.8574C15.3385 21.3457 15.5664 21.6061 16.0547 21.6387C16.543 21.6712 16.8034 21.4596 16.8359 21.0039C16.8685 20.4505 16.9336 19.9704 17.0312 19.5635C17.1289 19.1566 17.2103 18.8392 17.2754 18.6113C17.6009 18.5788 18.0566 18.5788 18.6426 18.6113C19.2285 18.6439 19.8958 18.7415 20.6445 18.9043C22.1094 19.2298 23.444 19.7832 24.6484 20.5645C25.8529 21.3457 26.9434 22.3548 27.9199 23.5918C28.7988 24.7311 29.4661 25.9681 29.9219 27.3027C30.3776 28.6374 30.5892 30.0534 30.5566 31.5508C30.5566 32.0391 30.5322 32.4867 30.4834 32.8936C30.4346 33.3005 30.3776 33.6667 30.3125 33.9922C28.8802 31.2904 27.3503 29.0199 25.7227 27.1807C24.0951 25.3415 23.2324 24.373 23.1348 24.2754C22.8092 23.9499 22.4756 23.958 22.1338 24.2998C21.792 24.6416 21.7839 24.9753 22.1094 25.3008C22.1094 25.3333 22.9395 26.2855 24.5996 28.1572C26.2598 30.029 27.7897 32.2995 29.1895 34.9688C28.8639 34.9688 28.4896 34.9443 28.0664 34.8955C27.6432 34.8467 27.1875 34.7734 26.6992 34.6758C25.2669 34.3503 23.9567 33.8132 22.7686 33.0645C21.5804 32.3158 20.5143 31.3392 19.5703 30.1348C18.9193 29.321 18.3822 28.4583 17.959 27.5469C17.5358 26.6354 17.2266 25.6914 17.0312 24.7148C16.9336 24.2266 16.6488 24.0312 16.1768 24.1289C15.7048 24.2266 15.5176 24.5195 15.6152 25.0078C15.8431 26.082 16.193 27.1318 16.665 28.1572C17.137 29.1826 17.7311 30.151 18.4473 31.0625C19.7493 32.7227 21.1328 33.9189 22.5977 34.6514C24.0625 35.3838 25.3483 35.8802 26.4551 36.1406C27.0085 36.2383 27.57 36.3197 28.1396 36.3848C28.7093 36.4499 29.2871 36.4661 29.873 36.4336V48.7871C29.7428 48.5267 29.6208 48.2826 29.5068 48.0547C29.3929 47.8268 29.2708 47.6152 29.1406 47.4199C29.1732 46.9967 29.0592 45.7435 28.7988 43.6602C28.5384 41.5768 27.2363 39.6074 24.8926 37.752C22.3535 35.7337 19.9854 34.9036 17.7881 35.2617C15.5908 35.6198 14.4271 35.8151 14.2969 35.8477C14.1992 35.9128 14.1097 35.9941 14.0283 36.0918C13.9469 36.1895 13.89 36.3034 13.8574 36.4336C13.8249 36.5312 13.8981 37.695 14.0771 39.9248C14.2562 42.1546 15.6315 44.2786 18.2031 46.2969C19.375 47.2409 20.5632 47.8757 21.7676 48.2012C22.972 48.5267 24.0625 48.6895 25.0391 48.6895C25.6576 48.6895 26.2272 48.6488 26.748 48.5674C27.2689 48.486 27.6758 48.3965 27.9688 48.2988C28.4896 49.2103 28.9046 50.1543 29.2139 51.1309C29.5231 52.1074 29.7103 53.1328 29.7754 54.207C27.8874 54.2396 26.0645 54.3617 24.3066 54.5732C22.5488 54.7848 20.8724 55.0859 19.2773 55.4766C18.8216 55.6068 18.6507 55.9079 18.7646 56.3799C18.8786 56.8519 19.1634 57.0391 19.6191 56.9414C21.1816 56.5508 22.8174 56.2497 24.5264 56.0381C26.2354 55.8265 28.0176 55.7044 29.873 55.6719V57.332C29.873 57.8203 30.1172 58.0645 30.6055 58.0645C31.0938 58.0645 31.3379 57.8203 31.3379 57.332V55.6719C33.4863 55.6719 35.4395 55.8021 37.1973 56.0625C38.9876 56.3229 40.5827 56.6322 41.9824 56.9902C43.3822 57.3483 44.6029 57.7227 45.6445 58.1133C46.6862 58.5365 47.5488 58.9271 48.2324 59.2852H13.2227C13.5807 59.0898 13.9876 58.8864 14.4434 58.6748C14.8991 58.4632 15.4199 58.2598 16.0059 58.0645C16.429 57.9017 16.5592 57.5924 16.3965 57.1367C16.2337 56.681 15.9245 56.5345 15.4688 56.6973C14.5573 57.0228 13.776 57.3564 13.125 57.6982C12.474 58.04 11.9531 58.3249 11.5625 58.5527C10.7812 59.0085 10.3255 59.334 10.1953 59.5293C10.0651 59.7246 10 59.8874 10 60.0176C10 60.2129 10.0732 60.3838 10.2197 60.5303C10.3662 60.6768 10.5371 60.75 10.7324 60.75H50.7715C51.3574 60.75 51.5934 60.5384 51.4795 60.1152C51.3656 59.6921 51.1784 59.3828 50.918 59.1875ZM39.1016 38.875C40.6315 37.8008 42.0638 37.3044 43.3984 37.3857C44.7331 37.4671 45.6608 37.6055 46.1816 37.8008C46.1491 38.3542 45.9375 39.2738 45.5469 40.5596C45.1562 41.8454 44.196 43.0091 42.666 44.0508C41.2988 45.0273 39.9967 45.4993 38.7598 45.4668C37.5228 45.4342 36.5951 45.3203 35.9766 45.125C36.6927 44.474 37.4902 43.8636 38.3691 43.2939C39.248 42.7243 40.2083 42.2279 41.25 41.8047C41.6732 41.6094 41.7871 41.2839 41.5918 40.8281C41.3965 40.3724 41.0872 40.2422 40.6641 40.4375C39.7201 40.8281 38.8656 41.2594 38.1006 41.7314C37.3356 42.2035 36.6439 42.6999 36.0254 43.2207C36.1882 42.5371 36.5055 41.7965 36.9775 40.999C37.4495 40.2015 38.1576 39.4935 39.1016 38.875ZM33.584 42.7812C33.7467 42.7812 33.9176 42.7731 34.0967 42.7568C34.2757 42.7406 34.4466 42.7324 34.6094 42.7324C34.4792 43.1556 34.3896 43.5462 34.3408 43.9043C34.292 44.2624 34.2676 44.5716 34.2676 44.832C33.5514 45.5482 32.9574 46.2806 32.4854 47.0293C32.0133 47.778 31.6309 48.4941 31.3379 49.1777V42.5859C31.5658 42.6185 31.875 42.6592 32.2656 42.708C32.6562 42.7568 33.0957 42.7812 33.584 42.7812ZM33.1934 17.3906C33.8118 15.6003 34.6826 14.347 35.8057 13.6309C36.9287 12.9147 37.7507 12.4753 38.2715 12.3125C38.597 12.7682 38.9795 13.6309 39.4189 14.9004C39.8584 16.1699 39.7689 17.6836 39.1504 19.4414C38.6947 20.776 38.0762 21.7933 37.2949 22.4932C36.5137 23.193 35.7975 23.6895 35.1465 23.9824C35.6348 22.5827 36.0986 21.2562 36.5381 20.0029C36.9775 18.7497 37.3763 17.6999 37.7344 16.8535C37.8971 16.4303 37.7507 16.1211 37.2949 15.9258C36.8392 15.7305 36.5299 15.8607 36.3672 16.3164C36.0091 17.1628 35.6022 18.237 35.1465 19.5391C34.6908 20.8411 34.2188 22.2246 33.7305 23.6895C33.3724 23.0384 33.0794 22.1676 32.8516 21.0771C32.6237 19.9867 32.7376 18.7578 33.1934 17.3906ZM19.082 45.1738C18.1706 44.4251 17.4137 43.5869 16.8115 42.6592C16.2093 41.7314 15.778 40.7142 15.5176 39.6074C15.3874 39.054 15.3141 38.5576 15.2979 38.1182C15.2816 37.6787 15.2734 37.3288 15.2734 37.0684C15.8919 36.9056 17.0475 36.8079 18.7402 36.7754C20.4329 36.7428 22.1908 37.4427 24.0137 38.875C24.9251 39.5911 25.6657 40.4131 26.2354 41.3408C26.805 42.2686 27.2201 43.2858 27.4805 44.3926C27.513 44.5553 27.5456 44.71 27.5781 44.8564C27.6107 45.0029 27.627 45.1413 27.627 45.2715C27.3991 44.9785 27.1631 44.7018 26.9189 44.4414C26.6748 44.181 26.4225 43.9368 26.1621 43.709C24.9251 42.5371 23.7777 41.6826 22.7197 41.1455C21.6618 40.6084 21.1003 40.3398 21.0352 40.3398C20.612 40.1445 20.3109 40.2747 20.1318 40.7305C19.9528 41.1862 20.0749 41.5117 20.498 41.707C20.5306 41.707 21.027 41.9512 21.9873 42.4395C22.9476 42.9277 24.0137 43.709 25.1855 44.7832C25.5436 45.1413 25.8854 45.5075 26.2109 45.8818C26.5365 46.2562 26.8457 46.6387 27.1387 47.0293C26.3249 47.1921 25.1693 47.2246 23.6719 47.127C22.1745 47.0293 20.6445 46.3783 19.082 45.1738Z" fill="white"/>
</g>
<defs>
<clipPath id="clip0_4137_71">
<rect width="50" height="50" fill="white" transform="matrix(1 0 0 -1 10 60.75)"/>
</clipPath>
</defs>
</svg>
