<svg width="70" height="71" viewBox="0 0 70 71" fill="none" xmlns="http://www.w3.org/2000/svg">
<rect y="0.75" width="70" height="70" rx="7" fill="#C5CE38"/>
<path d="M58.4375 38.8262C58.4375 37.1335 58.0469 35.5221 57.2656 33.9922C56.4844 32.4622 55.4102 31.1764 54.043 30.1348C53.75 29.9395 53.4326 29.7848 53.0908 29.6709C52.749 29.557 52.3991 29.5 52.041 29.5C51.6178 29.5 51.2028 29.5814 50.7959 29.7441C50.389 29.9069 50.0391 30.1348 49.7461 30.4277C49.681 30.3952 49.624 30.3545 49.5752 30.3057C49.5264 30.2568 49.4694 30.2161 49.4043 30.1836C49.209 29.9883 48.9811 29.8418 48.7207 29.7441C48.4603 29.6465 48.1999 29.5814 47.9395 29.5488L48.2812 25.7891C48.2812 25.724 48.2812 25.667 48.2812 25.6182C48.2812 25.5693 48.2812 25.5286 48.2812 25.4961C48.2812 24.6497 47.9883 23.9336 47.4023 23.3477C46.8164 22.7617 46.1003 22.4688 45.2539 22.4688H45.0586C44.2122 22.4688 43.4961 22.7617 42.9102 23.3477C42.3242 23.9336 42.0312 24.6497 42.0312 25.4961C42.0312 25.5286 42.0312 25.5693 42.0312 25.6182C42.0312 25.667 42.0312 25.724 42.0312 25.7891L42.373 29.5488C42.1452 29.6139 41.9092 29.6953 41.665 29.793C41.4209 29.8906 41.2012 30.0046 41.0059 30.1348C40.9408 30.1999 40.8757 30.265 40.8105 30.3301C40.7454 30.3952 40.6803 30.444 40.6152 30.4766C40.5827 30.444 40.5501 30.4115 40.5176 30.3789C40.485 30.3464 40.4362 30.3138 40.3711 30.2812C40.4036 30.151 40.4281 30.0208 40.4443 29.8906C40.4606 29.7604 40.4688 29.6302 40.4688 29.5C40.4688 29.0117 40.3955 28.5316 40.249 28.0596C40.1025 27.5876 39.8828 27.1562 39.5898 26.7656C39.8828 26.375 40.1025 25.9437 40.249 25.4717C40.3955 24.9997 40.4688 24.5195 40.4688 24.0312C40.4688 22.6966 39.9805 21.5654 39.0039 20.6377C38.0273 19.71 36.8555 19.2786 35.4883 19.3438C35.2604 18.6276 34.8698 18.0091 34.3164 17.4883C33.763 16.9674 33.1283 16.6094 32.4121 16.4141C31.9238 15.8281 31.3379 15.3805 30.6543 15.0713C29.9707 14.762 29.2383 14.6237 28.457 14.6562C28.1315 13.7448 27.57 12.9961 26.7725 12.4102C25.9749 11.8242 25.0716 11.5312 24.0625 11.5312C23.2161 11.5312 22.4349 11.7428 21.7188 12.166C21.0026 12.5892 20.4329 13.1589 20.0098 13.875C18.9681 13.9076 18.0404 14.2575 17.2266 14.9248C16.4128 15.5921 15.8757 16.4141 15.6152 17.3906C14.4108 17.8464 13.4342 18.6113 12.6855 19.6855C11.9368 20.7598 11.5625 21.9479 11.5625 23.25C11.5625 24.2917 11.8066 25.2682 12.2949 26.1797C12.7832 27.0911 13.4505 27.8398 14.2969 28.4258C14.1667 28.7188 14.069 29.0199 14.0039 29.3291C13.9388 29.6383 13.9062 29.9557 13.9062 30.2812C13.9062 30.9974 14.0527 31.6647 14.3457 32.2832C14.6387 32.9017 15.0618 33.4388 15.6152 33.8945C15.5501 34.0573 15.5094 34.2282 15.4932 34.4072C15.4769 34.5863 15.4688 34.7734 15.4688 34.9688C15.4688 36.1732 15.8675 37.2148 16.665 38.0938C17.4626 38.9727 18.431 39.4772 19.5703 39.6074L21.3281 44.4414C20.8724 44.7669 20.4574 45.1331 20.083 45.54C19.7087 45.9469 19.375 46.3945 19.082 46.8828L15.0293 45.9551C14.9316 45.9551 14.8421 45.9469 14.7607 45.9307C14.6794 45.9144 14.6061 45.9062 14.541 45.9062C13.9225 45.9062 13.4017 46.1178 12.9785 46.541C12.5553 46.9642 12.3438 47.485 12.3438 48.1035V48.3965C12.3438 48.5267 12.3519 48.6406 12.3682 48.7383C12.3844 48.8359 12.4089 48.9336 12.4414 49.0312H12.3438C11.6927 49.0312 11.1393 49.2591 10.6836 49.7148C10.2279 50.1706 10 50.724 10 51.375C10 52.026 10.2279 52.5794 10.6836 53.0352C11.1393 53.4909 11.6927 53.7188 12.3438 53.7188H12.4414C12.4089 53.8164 12.3844 53.9141 12.3682 54.0117C12.3519 54.1094 12.3438 54.2233 12.3438 54.3535V54.6465C12.3438 55.265 12.5553 55.7858 12.9785 56.209C13.4017 56.6322 13.9225 56.8438 14.541 56.8438C14.6061 56.8438 14.6794 56.8356 14.7607 56.8193C14.8421 56.8031 14.9316 56.7949 15.0293 56.7949L19.082 55.8672C19.8633 57.1042 20.8968 58.097 22.1826 58.8457C23.4684 59.5944 24.8763 59.9688 26.4062 59.9688H26.6016C26.7969 59.9688 27.0085 59.9606 27.2363 59.9443C27.4642 59.9281 27.6921 59.9036 27.9199 59.8711L54.6777 55.7695C55.7845 55.5742 56.6878 55.0697 57.3877 54.2559C58.0876 53.4421 58.4375 52.4818 58.4375 51.375C58.4375 50.4961 58.2015 49.6986 57.7295 48.9824C57.2575 48.2663 56.6471 47.7292 55.8984 47.3711C56.7122 46.4271 57.3389 45.361 57.7783 44.1729C58.2178 42.9847 58.4375 41.7559 58.4375 40.4863V38.8262ZM48.4766 31.4043C49.6484 32.2832 50.5599 33.3981 51.2109 34.749C51.862 36.0999 52.1875 37.5241 52.1875 39.0215V41.8535C52.1875 42.6673 52.0898 43.4567 51.8945 44.2217C51.6992 44.9867 51.4062 45.7272 51.0156 46.4434L44.7656 45.4668C44.6354 44.9134 44.5378 44.3438 44.4727 43.7578C44.4076 43.1719 44.375 42.5859 44.375 42V38.875C44.375 38.4518 44.3913 38.0449 44.4238 37.6543C44.4564 37.2637 44.5052 36.873 44.5703 36.4824C44.668 36.515 44.7656 36.5312 44.8633 36.5312C44.9609 36.5312 45.0586 36.5312 45.1562 36.5312C46.263 36.5312 47.1908 36.3115 47.9395 35.8721C48.6882 35.4326 49.0625 34.8711 49.0625 34.1875C49.0625 33.8294 48.9404 33.4876 48.6963 33.1621C48.4521 32.8366 48.1022 32.5762 47.6465 32.3809L47.793 31.1113C47.9232 31.1439 48.0452 31.1846 48.1592 31.2334C48.2731 31.2822 48.3789 31.3392 48.4766 31.4043ZM45.0586 24.0312H45.2539C45.6445 24.0312 45.9863 24.1777 46.2793 24.4707C46.5723 24.7637 46.7188 25.1055 46.7188 25.4961C46.7188 25.5286 46.7188 25.5531 46.7188 25.5693C46.7188 25.5856 46.7188 25.61 46.7188 25.6426L45.9863 33.4062L46.6211 33.6016C46.9466 33.7318 47.1745 33.8538 47.3047 33.9678C47.4349 34.0817 47.5 34.1549 47.5 34.1875C47.5 34.2852 47.2966 34.4398 46.8896 34.6514C46.4827 34.863 45.9049 34.9688 45.1562 34.9688C44.4076 34.9688 43.8298 34.863 43.4229 34.6514C43.0159 34.4398 42.8125 34.2852 42.8125 34.1875C42.8125 34.1549 42.8776 34.0817 43.0078 33.9678C43.138 33.8538 43.3659 33.7318 43.6914 33.6016L44.3262 33.4062L43.5938 25.6426C43.5938 25.61 43.5938 25.5856 43.5938 25.5693C43.5938 25.5531 43.5938 25.5286 43.5938 25.4961C43.5938 25.1055 43.7402 24.7637 44.0332 24.4707C44.3262 24.1777 44.668 24.0312 45.0586 24.0312ZM42.5195 31.1113L42.666 32.3809C42.2103 32.5762 41.8604 32.8366 41.6162 33.1621C41.3721 33.4876 41.25 33.8294 41.25 34.1875C41.25 34.6107 41.4128 34.9932 41.7383 35.335C42.0638 35.6768 42.5033 35.9616 43.0566 36.1895C42.9915 36.6126 42.9346 37.0521 42.8857 37.5078C42.8369 37.9635 42.8125 38.4193 42.8125 38.875V42C42.8125 42.5534 42.8369 43.0986 42.8857 43.6357C42.9346 44.1729 43.0078 44.7018 43.1055 45.2227L38.5156 44.4902C38.3854 44.0671 38.2878 43.6357 38.2227 43.1963C38.1576 42.7568 38.125 42.3092 38.125 41.8535V39.0215C38.125 37.5241 38.4587 36.0999 39.126 34.749C39.7933 33.3981 40.7292 32.2832 41.9336 31.4043C42.0312 31.3392 42.1289 31.2822 42.2266 31.2334C42.3242 31.1846 42.4219 31.1439 42.5195 31.1113ZM34.0723 43.8555C33.877 43.3021 33.7223 42.7487 33.6084 42.1953C33.4945 41.6419 33.4375 41.0723 33.4375 40.4863V38.8262C33.4375 37.3939 33.7712 36.0186 34.4385 34.7002C35.1058 33.3818 36.0254 32.2832 37.1973 31.4043C37.36 31.3066 37.5309 31.2253 37.71 31.1602C37.889 31.0951 38.0762 31.0625 38.2715 31.0625C38.4993 31.0625 38.7191 31.1113 38.9307 31.209C39.1423 31.3066 39.3294 31.4206 39.4922 31.5508C38.5482 32.5599 37.8239 33.7074 37.3193 34.9932C36.8148 36.279 36.5625 37.6217 36.5625 39.0215V41.8535C36.5625 42.2767 36.5869 42.6836 36.6357 43.0742C36.6846 43.4648 36.7578 43.8555 36.8555 44.2461L34.0723 43.8555ZM34.1699 20.3691L34.3164 21.1504L35.0977 21.0039C35.2279 20.9714 35.3499 20.9469 35.4639 20.9307C35.5778 20.9144 35.6836 20.9062 35.7812 20.9062C36.6276 20.9062 37.36 21.2155 37.9785 21.834C38.597 22.4525 38.9062 23.1849 38.9062 24.0312C38.9062 24.4544 38.833 24.8532 38.6865 25.2275C38.54 25.6019 38.3203 25.9355 38.0273 26.2285L37.4902 26.7656L38.0273 27.3027C38.3203 27.5957 38.54 27.9294 38.6865 28.3037C38.833 28.6781 38.9062 29.0768 38.9062 29.5C38.9062 29.5 38.9062 29.5081 38.9062 29.5244C38.9062 29.5407 38.9062 29.5488 38.9062 29.5488C38.8086 29.5488 38.7028 29.5407 38.5889 29.5244C38.4749 29.5081 38.3691 29.5 38.2715 29.5C37.9134 29.5 37.5635 29.557 37.2217 29.6709C36.8799 29.7848 36.5625 29.9395 36.2695 30.1348C35.5859 30.6556 34.9593 31.2578 34.3896 31.9414C33.82 32.625 33.3561 33.3411 32.998 34.0898C32.8353 33.6341 32.6807 33.1865 32.5342 32.7471C32.3877 32.3076 32.2331 31.8763 32.0703 31.4531C32.4284 29.5651 33.0876 28.0921 34.0479 27.0342C35.0081 25.9762 35.4883 25.431 35.4883 25.3984L35 24.8125L34.5117 24.2266C34.4466 24.2591 34.0072 24.6986 33.1934 25.5449C32.3796 26.3913 31.6797 27.5794 31.0938 29.1094C30.2799 27.2539 29.5475 25.7646 28.8965 24.6416C28.2454 23.5186 27.8874 22.9082 27.8223 22.8105L26.5527 23.6895C26.5527 23.6895 26.805 24.1289 27.3096 25.0078C27.8141 25.8867 28.4245 27.0749 29.1406 28.5723C27.9688 28.1165 26.8376 27.8968 25.7471 27.9131C24.6566 27.9294 24.0625 27.9375 23.9648 27.9375L24.1602 29.5C24.7461 29.4349 25.7064 29.4756 27.041 29.6221C28.3757 29.7686 29.4336 30.2324 30.2148 31.0137C30.4753 31.6973 30.7357 32.4053 30.9961 33.1377C31.2565 33.8701 31.5169 34.627 31.7773 35.4082C30.5729 34.8223 29.3929 34.4723 28.2373 34.3584C27.0817 34.2445 26.4714 34.1875 26.4062 34.1875V35.75C26.4388 35.75 27.1224 35.8232 28.457 35.9697C29.7917 36.1162 30.9635 36.5964 31.9727 37.4102C31.9401 37.638 31.9157 37.874 31.8994 38.1182C31.8831 38.3623 31.875 38.5983 31.875 38.8262V40.4863C31.875 41.0072 31.9157 41.528 31.9971 42.0488C32.0785 42.5697 32.2005 43.0742 32.3633 43.5625L27.9199 42.8789C27.7897 42.8789 27.6676 42.8708 27.5537 42.8545C27.4398 42.8382 27.3177 42.8138 27.1875 42.7812C26.3411 42.7812 25.6087 42.4801 24.9902 41.8779C24.3717 41.2757 24.0625 40.5352 24.0625 39.6562C24.0625 39.4609 24.0788 39.2738 24.1113 39.0947C24.1439 38.9157 24.1927 38.7285 24.2578 38.5332L24.502 37.9473L23.9648 37.6055C23.5091 37.3125 23.151 36.93 22.8906 36.458C22.6302 35.986 22.5 35.4896 22.5 34.9688C22.5 34.6758 22.5407 34.3828 22.6221 34.0898C22.7035 33.7969 22.8418 33.5202 23.0371 33.2598L23.5254 32.5273L22.7441 32.1367C21.9303 31.7135 21.2956 31.1276 20.8398 30.3789C20.3841 29.6302 20.1562 28.8164 20.1562 27.9375C20.1562 26.8958 20.4736 25.96 21.1084 25.1299C21.7432 24.2998 22.5651 23.7383 23.5742 23.4453L24.0625 23.2988L24.1113 22.8105C24.209 22.0293 24.5508 21.3864 25.1367 20.8818C25.7227 20.3773 26.4062 20.125 27.1875 20.125C27.1875 20.125 27.1956 20.125 27.2119 20.125C27.2282 20.125 27.2526 20.125 27.2852 20.125C27.3177 20.125 27.3421 20.1331 27.3584 20.1494C27.3747 20.1657 27.3991 20.1738 27.4316 20.1738L28.0176 20.2227L28.2129 19.6855C28.4733 19.0996 28.8639 18.6357 29.3848 18.2939C29.9056 17.9521 30.4753 17.7812 31.0938 17.7812C31.8424 17.7812 32.5098 18.0254 33.0957 18.5137C33.6816 19.002 34.0397 19.6204 34.1699 20.3691ZM20.6934 38.0938H20.1562C19.3099 38.0938 18.5775 37.7845 17.959 37.166C17.3405 36.5475 17.0312 35.8151 17.0312 34.9688C17.0312 34.7734 17.0475 34.5863 17.0801 34.4072C17.1126 34.2282 17.1615 34.041 17.2266 33.8457L17.4707 33.2598L16.9336 32.918C16.4779 32.625 16.1198 32.2425 15.8594 31.7705C15.599 31.2985 15.4688 30.8021 15.4688 30.2812C15.4688 29.9883 15.5094 29.6953 15.5908 29.4023C15.6722 29.1094 15.8105 28.8327 16.0059 28.5723L16.4941 27.8398L15.7129 27.4492C14.8991 27.026 14.2643 26.4401 13.8086 25.6914C13.3529 24.9427 13.125 24.1289 13.125 23.25C13.125 22.2083 13.4424 21.2725 14.0771 20.4424C14.7119 19.6123 15.5339 19.0508 16.543 18.7578L17.0312 18.6113L17.0801 18.123C17.1777 17.3418 17.5195 16.6989 18.1055 16.1943C18.6914 15.6898 19.375 15.4375 20.1562 15.4375C20.1562 15.4375 20.1644 15.4375 20.1807 15.4375C20.1969 15.4375 20.2214 15.4375 20.2539 15.4375C20.2865 15.4375 20.3109 15.4456 20.3271 15.4619C20.3434 15.4782 20.3678 15.4863 20.4004 15.4863L20.9863 15.5352L21.1816 14.998C21.4421 14.4121 21.8327 13.9482 22.3535 13.6064C22.8743 13.2646 23.444 13.0938 24.0625 13.0938C24.8112 13.0938 25.4785 13.3379 26.0645 13.8262C26.6504 14.3145 27.0085 14.9329 27.1387 15.6816L27.2852 16.4629L28.0664 16.3164C28.1966 16.2839 28.3187 16.2594 28.4326 16.2432C28.5465 16.2269 28.6523 16.2188 28.75 16.2188C28.9453 16.2188 29.1243 16.235 29.2871 16.2676C29.4499 16.3001 29.6126 16.349 29.7754 16.4141C29.1895 16.5768 28.6605 16.8454 28.1885 17.2197C27.7165 17.5941 27.334 18.0417 27.041 18.5625C25.9993 18.5951 25.0716 18.945 24.2578 19.6123C23.444 20.2796 22.9069 21.1016 22.6465 22.0781C21.4421 22.5339 20.4655 23.2988 19.7168 24.373C18.9681 25.4473 18.5938 26.6354 18.5938 27.9375C18.5938 28.9792 18.8379 29.9557 19.3262 30.8672C19.8145 31.7786 20.4818 32.5273 21.3281 33.1133C21.1979 33.4062 21.1003 33.7074 21.0352 34.0166C20.9701 34.3258 20.9375 34.6432 20.9375 34.9688C20.9375 35.6849 21.084 36.3522 21.377 36.9707C21.6699 37.5892 22.0931 38.1263 22.6465 38.582C22.5814 38.7448 22.5407 38.9157 22.5244 39.0947C22.5081 39.2738 22.5 39.4609 22.5 39.6562C22.5 40.3398 22.6383 40.9827 22.915 41.585C23.1917 42.1872 23.5579 42.6999 24.0137 43.123C23.7858 43.1882 23.5579 43.2614 23.3301 43.3428C23.1022 43.4242 22.8906 43.5299 22.6953 43.6602L20.6934 38.0938ZM13.9062 48.3965V48.1035C13.9062 47.9082 13.9876 47.7454 14.1504 47.6152C14.3132 47.485 14.4922 47.4362 14.6875 47.4688L18.3984 48.2988C18.3333 48.429 18.2845 48.5511 18.252 48.665C18.2194 48.779 18.1868 48.901 18.1543 49.0312H14.541C14.3783 49.0312 14.2318 48.9661 14.1016 48.8359C13.9714 48.7057 13.9062 48.5592 13.9062 48.3965ZM11.5625 51.375C11.5625 51.1471 11.6357 50.96 11.7822 50.8135C11.9287 50.667 12.1159 50.5938 12.3438 50.5938H17.8613C17.8288 50.724 17.8125 50.8542 17.8125 50.9844C17.8125 51.1146 17.8125 51.2448 17.8125 51.375C17.8125 51.5052 17.8125 51.6354 17.8125 51.7656C17.8125 51.8958 17.8288 52.026 17.8613 52.1562H12.3438C12.1159 52.1562 11.9287 52.083 11.7822 51.9365C11.6357 51.79 11.5625 51.6029 11.5625 51.375ZM14.6875 55.2812C14.4922 55.3138 14.3132 55.265 14.1504 55.1348C13.9876 55.0046 13.9062 54.8418 13.9062 54.6465V54.3535C13.9062 54.1908 13.9714 54.0443 14.1016 53.9141C14.2318 53.7839 14.3783 53.7188 14.541 53.7188H18.1543C18.1868 53.849 18.2194 53.971 18.252 54.085C18.2845 54.1989 18.3333 54.321 18.3984 54.4512L14.6875 55.2812ZM56.875 51.375C56.875 52.0911 56.6471 52.7178 56.1914 53.2549C55.7357 53.792 55.1497 54.1094 54.4336 54.207L27.6758 58.3086C27.4805 58.3411 27.2933 58.3656 27.1143 58.3818C26.9352 58.3981 26.7643 58.4062 26.6016 58.4062H26.4062C24.4531 58.4062 22.793 57.7227 21.4258 56.3555C20.0586 54.9883 19.375 53.3281 19.375 51.375C19.375 49.4219 20.0586 47.7617 21.4258 46.3945C22.793 45.0273 24.4531 44.3438 26.4062 44.3438H26.6016C26.7643 44.3438 26.9352 44.3519 27.1143 44.3682C27.2933 44.3844 27.4805 44.4089 27.6758 44.4414L54.4336 48.543C55.1497 48.6406 55.7357 48.958 56.1914 49.4951C56.6471 50.0322 56.875 50.6589 56.875 51.375ZM56.875 40.4863C56.875 41.6908 56.639 42.8464 56.167 43.9531C55.695 45.0599 55.0358 46.0527 54.1895 46.9316L52.6758 46.6875C53.0339 45.9388 53.3024 45.1576 53.4814 44.3438C53.6605 43.5299 53.75 42.6999 53.75 41.8535V39.0215C53.75 37.6217 53.4977 36.279 52.9932 34.9932C52.4886 33.7074 51.7806 32.5599 50.8691 31.5508C51.0319 31.388 51.2109 31.266 51.4062 31.1846C51.6016 31.1032 51.8132 31.0625 52.041 31.0625C52.2363 31.0625 52.4235 31.0951 52.6025 31.1602C52.7816 31.2253 52.9525 31.3066 53.1152 31.4043C54.2871 32.2832 55.2067 33.3818 55.874 34.7002C56.5413 36.0186 56.875 37.3939 56.875 38.8262V40.4863ZM25.625 47.4688H27.1875V55.2812H25.625V47.4688ZM31.875 47.4688H33.4375V55.2812H31.875V47.4688ZM38.125 47.4688H39.6875V55.2812H38.125V47.4688ZM44.375 49.0312H45.9375V53.7188H44.375V49.0312ZM50.625 49.8125H52.1875V52.9375H50.625V49.8125Z" fill="white"/>
</svg>
