<svg width="70" height="71" viewBox="0 0 70 71" fill="none" xmlns="http://www.w3.org/2000/svg">
<rect y="0.75" width="70" height="70" rx="7" fill="#C5CE38"/>
<path d="M17.2754 43.3184C17.6009 43.6439 17.9671 43.8962 18.374 44.0752C18.7809 44.2542 19.2285 44.3438 19.7168 44.3438H20.5957C21.084 44.3438 21.5316 44.2542 21.9385 44.0752C22.3454 43.8962 22.7116 43.6439 23.0371 43.3184C23.3626 42.9928 23.6149 42.6266 23.7939 42.2197C23.973 41.8128 24.0625 41.3652 24.0625 40.877C24.0625 40.1608 23.9811 39.4528 23.8184 38.7529C23.6556 38.0531 23.4115 37.3776 23.0859 36.7266L20.8398 32.2832C20.7096 32.0228 20.4818 31.8926 20.1562 31.8926C19.8307 31.8926 19.6029 32.0228 19.4727 32.2832L17.2266 36.7266C16.901 37.3776 16.6569 38.0531 16.4941 38.7529C16.3314 39.4528 16.25 40.1608 16.25 40.877C16.25 41.3652 16.3395 41.8128 16.5186 42.2197C16.6976 42.6266 16.9499 42.9928 17.2754 43.3184ZM18.6426 37.4102L20.1562 34.3828L21.6699 37.4102C21.9303 37.9635 22.1338 38.5332 22.2803 39.1191C22.4268 39.7051 22.5 40.291 22.5 40.877C22.5 41.1374 22.4512 41.3815 22.3535 41.6094C22.2559 41.8372 22.1257 42.0488 21.9629 42.2441C21.7676 42.4069 21.556 42.5371 21.3281 42.6348C21.1003 42.7324 20.8561 42.7812 20.5957 42.7812H19.7168C19.4564 42.7812 19.2122 42.7324 18.9844 42.6348C18.7565 42.5371 18.5449 42.4069 18.3496 42.2441C18.1868 42.0488 18.0566 41.8372 17.959 41.6094C17.8613 41.3815 17.8125 41.1374 17.8125 40.877C17.8125 40.291 17.8857 39.7051 18.0322 39.1191C18.1787 38.5332 18.3822 37.9635 18.6426 37.4102ZM44.375 44.3438H45.9375V52.1562H44.375V44.3438ZM44.375 53.7188H45.9375V55.2812H44.375V53.7188ZM56.0938 52.1562H49.0625V32.625C49.0625 32.3971 48.9893 32.21 48.8428 32.0635C48.6963 31.917 48.5091 31.8438 48.2812 31.8438H36.5625V20.125C36.5625 20.0273 36.5462 19.9297 36.5137 19.832C36.4811 19.7344 36.416 19.653 36.3184 19.5879L33.4375 16.6582V12.3125C33.4375 12.0846 33.3643 11.8975 33.2178 11.751C33.0713 11.6045 32.8841 11.5312 32.6562 11.5312H13.9062C13.6784 11.5312 13.4912 11.6045 13.3447 11.751C13.1982 11.8975 13.125 12.0846 13.125 12.3125V16.6582L10.2441 19.5879C10.1465 19.653 10.0814 19.7344 10.0488 19.832C10.0163 19.9297 10 20.0273 10 20.125V56.0625C10 56.2904 10.0732 56.4775 10.2197 56.624C10.3662 56.7705 10.5534 56.8438 10.7812 56.8438H31.9727C32.1354 57.7227 32.5749 58.4632 33.291 59.0654C34.0072 59.6676 34.8372 59.9688 35.7812 59.9688H51.4062C52.0573 59.9688 52.6107 59.7409 53.0664 59.2852C53.5221 58.8294 53.75 58.276 53.75 57.625C53.75 57.3971 53.8232 57.21 53.9697 57.0635C54.1162 56.917 54.3034 56.8438 54.5312 56.8438H56.0938C56.7448 56.8438 57.2982 56.6159 57.7539 56.1602C58.2096 55.7044 58.4375 55.151 58.4375 54.5C58.4375 53.849 58.2096 53.2956 57.7539 52.8398C57.2982 52.3841 56.7448 52.1562 56.0938 52.1562ZM47.5 40.2422C47.207 40.0469 46.9059 39.9004 46.5967 39.8027C46.2874 39.7051 45.9538 39.6562 45.5957 39.6562H44.7168C44.2285 39.6562 43.7809 39.7458 43.374 39.9248C42.9671 40.1038 42.6009 40.3561 42.2754 40.6816C42.0801 40.8444 41.8685 40.9746 41.6406 41.0723C41.4128 41.1699 41.1686 41.2188 40.9082 41.2188H40.0293C39.7689 41.2188 39.5247 41.1699 39.2969 41.0723C39.069 40.9746 38.8574 40.8444 38.6621 40.6816C38.3366 40.3561 37.9704 40.1038 37.5635 39.9248C37.1566 39.7458 36.709 39.6562 36.2207 39.6562H35.3418C34.9837 39.6562 34.6501 39.7051 34.3408 39.8027C34.0316 39.9004 33.7305 40.0469 33.4375 40.2422V33.4062H47.5V40.2422ZM35 31.8438H32.6562C32.4284 31.8438 32.2412 31.917 32.0947 32.0635C31.9482 32.21 31.875 32.3971 31.875 32.625V55.2812H30.3125V20.4668L32.6562 18.123L35 20.4668V31.8438ZM14.248 17.7812H30.752L29.1895 19.3438H12.6855L14.248 17.7812ZM28.75 20.9062V27.1562H11.5625V20.9062H28.75ZM28.75 28.7188V47.4688H11.5625V28.7188H28.75ZM14.6875 13.0938H31.875V16.2188H14.6875V13.0938ZM11.5625 55.2812V49.0312H28.75V55.2812H11.5625ZM35.7812 58.4062C35.1302 58.4062 34.5768 58.1784 34.1211 57.7227C33.6654 57.2669 33.4375 56.7135 33.4375 56.0625V42.3418L33.9746 41.7559C34.1699 41.5931 34.3815 41.4629 34.6094 41.3652C34.8372 41.2676 35.0814 41.2188 35.3418 41.2188H36.2207C36.4811 41.2188 36.7253 41.2676 36.9531 41.3652C37.181 41.4629 37.3926 41.5931 37.5879 41.7559C37.9134 42.0814 38.2796 42.3337 38.6865 42.5127C39.0934 42.6917 39.541 42.7812 40.0293 42.7812H40.9082C41.3965 42.7812 41.8441 42.6917 42.251 42.5127C42.6579 42.3337 43.0241 42.0814 43.3496 41.7559C43.5449 41.5931 43.7565 41.4629 43.9844 41.3652C44.2122 41.2676 44.4564 41.2188 44.7168 41.2188H45.5957C45.8561 41.2188 46.1003 41.2676 46.3281 41.3652C46.556 41.4629 46.7676 41.5931 46.9629 41.7559L47.5 42.3418V56.0625C47.5 56.7135 47.2721 57.2669 46.8164 57.7227C46.3607 58.1784 45.8073 58.4062 45.1562 58.4062H35.7812ZM56.0938 55.2812H54.5312C53.8802 55.2812 53.3268 55.5091 52.8711 55.9648C52.4154 56.4206 52.1875 56.974 52.1875 57.625C52.1875 57.8529 52.1143 58.04 51.9678 58.1865C51.8213 58.333 51.6341 58.4062 51.4062 58.4062H48.2812C48.5091 58.0807 48.6963 57.7227 48.8428 57.332C48.9893 56.9414 49.0625 56.5182 49.0625 56.0625V53.7188H56.0938C56.3216 53.7188 56.5088 53.792 56.6553 53.9385C56.8018 54.085 56.875 54.2721 56.875 54.5C56.875 54.7279 56.8018 54.915 56.6553 55.0615C56.5088 55.208 56.3216 55.2812 56.0938 55.2812Z" fill="white"/>
</svg>
