<svg width="196" height="71" viewBox="0 0 196 71" fill="none" xmlns="http://www.w3.org/2000/svg">
<rect x="5.85999" y="15.75" width="40" height="40" rx="20" fill="#F8F7F0"/>
<g clip-path="url(#clip0_4137_1113)">
<path d="M31.4244 32.8926C31.4244 32.9564 31.4244 33.0202 31.4244 33.084C31.4244 33.1478 31.4244 33.2116 31.4244 33.2754C31.4244 34.2233 31.2467 35.1803 30.8912 36.1465C30.5358 37.1126 30.014 37.9876 29.3258 38.7715C28.6377 39.5553 27.7832 40.1979 26.7623 40.6992C25.7506 41.1914 24.5839 41.4375 23.2623 41.4375C22.8613 41.4375 22.4648 41.4102 22.0729 41.3555C21.6809 41.2917 21.3004 41.2051 20.9313 41.0957C20.5621 40.9863 20.2044 40.8542 19.858 40.6992C19.5117 40.5352 19.179 40.3529 18.86 40.1523C18.9785 40.1615 19.0947 40.1683 19.2086 40.1729C19.3226 40.1774 19.4388 40.1797 19.5573 40.1797C20.2226 40.1797 20.8584 40.0726 21.4645 39.8584C22.0706 39.6442 22.6198 39.3457 23.1119 38.9629C22.483 38.9447 21.9248 38.7487 21.4371 38.375C20.9495 38.0013 20.6145 37.5319 20.4323 36.9668C20.5234 36.9759 20.6123 36.985 20.6989 36.9941C20.7854 37.0033 20.8789 37.0078 20.9791 37.0078C21.1067 37.0078 21.2343 37.001 21.3619 36.9873C21.4895 36.9736 21.6126 36.9486 21.7311 36.9121C21.0748 36.7754 20.528 36.4473 20.0905 35.9277C19.653 35.4082 19.4342 34.7975 19.4342 34.0957V34.0684C19.6256 34.1686 19.8307 34.2507 20.0494 34.3145C20.2682 34.3783 20.4915 34.4147 20.7194 34.4238C20.3365 34.1686 20.0289 33.8314 19.7965 33.4121C19.5641 32.9928 19.4479 32.5326 19.4479 32.0312C19.4479 31.7669 19.4821 31.514 19.5504 31.2725C19.6188 31.0309 19.7122 30.8053 19.8307 30.5957C20.1862 31.0241 20.5826 31.416 21.0201 31.7715C21.4576 32.127 21.927 32.4346 22.4283 32.6943C22.9296 32.9541 23.4629 33.1615 24.028 33.3164C24.5839 33.4714 25.1582 33.5625 25.7506 33.5898C25.7324 33.4805 25.7164 33.3711 25.7028 33.2617C25.6891 33.1523 25.6823 33.043 25.6823 32.9336C25.6823 32.5417 25.7552 32.168 25.901 31.8125C26.0559 31.4661 26.2633 31.1631 26.5231 30.9033C26.7828 30.6436 27.0859 30.4408 27.4323 30.2949C27.7786 30.14 28.1523 30.0625 28.5533 30.0625C28.9635 30.0625 29.3486 30.1445 29.7086 30.3086C30.0686 30.4727 30.3808 30.6914 30.6451 30.9648C30.9733 30.9102 31.29 30.8236 31.5953 30.7051C31.9007 30.5866 32.1901 30.4453 32.4635 30.2812C32.3632 30.6094 32.2037 30.9102 31.985 31.1836C31.7662 31.457 31.5065 31.6803 31.2057 31.8535C31.4974 31.8262 31.7822 31.7738 32.0602 31.6963C32.3382 31.6188 32.6048 31.5254 32.86 31.416C32.6686 31.6986 32.4498 31.9652 32.2037 32.2158C31.9576 32.4665 31.6979 32.6921 31.4244 32.8926Z" fill="#1F1E17"/>
</g>
<rect x="55.86" y="15.75" width="40" height="40" rx="20" fill="#F8F7F0"/>
<g clip-path="url(#clip1_4137_1113)">
<path d="M82.4225 35.75C82.4225 36.5977 82.2767 37.3997 81.985 38.1562C81.6933 38.9128 81.29 39.5872 80.775 40.1797C80.2601 40.7721 79.6562 41.2689 78.9635 41.6699C78.2617 42.0618 77.5097 42.3216 76.7076 42.4492V37.7051H78.2799L78.5807 35.75H76.7076V34.4785C76.7076 34.2051 76.7851 33.959 76.9401 33.7402C77.095 33.5215 77.3821 33.4121 77.8014 33.4121H78.6627V31.7441C78.6627 31.7441 78.5032 31.7236 78.1842 31.6826C77.8652 31.6416 77.5188 31.6211 77.1451 31.6211C76.3704 31.6211 75.7483 31.8467 75.2789 32.2979C74.8095 32.749 74.5748 33.403 74.5748 34.2598V35.75H72.8522V37.7051H74.5748V42.4492C73.7727 42.3216 73.0208 42.0618 72.319 41.6699C71.6263 41.2689 71.0224 40.7721 70.5074 40.1797C69.9925 39.5872 69.5892 38.9128 69.2975 38.1562C69.0058 37.3997 68.86 36.5977 68.86 35.75C68.86 34.8112 69.0377 33.9316 69.3932 33.1113C69.7487 32.291 70.234 31.5732 70.8492 30.958C71.4645 30.3428 72.1823 29.8574 73.0026 29.502C73.8229 29.1465 74.7024 28.9688 75.6412 28.9688C76.58 28.9688 77.4596 29.1465 78.2799 29.502C79.1002 29.8574 79.818 30.3428 80.4332 30.958C81.0485 31.5732 81.5338 32.291 81.8893 33.1113C82.2448 33.9316 82.4225 34.8112 82.4225 35.75Z" fill="#1F1E17"/>
</g>
<rect x="105.86" y="15.75" width="40" height="40" rx="20" fill="#F8F7F0"/>
<g clip-path="url(#clip2_4137_1113)">
<path d="M126.188 28.9277C126.835 28.9277 127.455 29.0326 128.047 29.2422C128.64 29.4609 129.162 29.7663 129.613 30.1582C130.064 30.5501 130.426 31.0195 130.7 31.5664C130.973 32.1224 131.11 32.7376 131.11 33.4121C131.11 34.0501 131.028 34.6882 130.864 35.3262C130.7 35.9733 130.445 36.5521 130.098 37.0625C129.752 37.5729 129.314 37.9922 128.786 38.3203C128.257 38.6393 127.628 38.7988 126.899 38.7988C126.553 38.7988 126.193 38.7145 125.819 38.5459C125.445 38.3773 125.176 38.1335 125.012 37.8145C124.693 39.0449 124.459 39.904 124.308 40.3916C124.158 40.8792 123.741 41.5924 123.057 42.5312C122.984 42.5586 122.946 42.5723 122.941 42.5723C122.936 42.5723 122.911 42.5449 122.866 42.4902C122.839 42.235 122.811 41.9798 122.784 41.7246C122.756 41.4694 122.743 41.2142 122.743 40.959C122.743 40.5397 122.784 40.0794 122.866 39.5781C122.948 39.0859 123.05 38.5846 123.173 38.0742C123.297 37.5638 123.422 37.0671 123.549 36.584C123.686 36.0918 123.8 35.6406 123.891 35.2305C123.791 35.0208 123.723 34.7952 123.686 34.5537C123.65 34.3122 123.631 34.0775 123.631 33.8496C123.631 33.3027 123.764 32.8743 124.028 32.5645C124.292 32.2546 124.586 32.0654 124.91 31.9971C125.233 31.9287 125.527 31.9902 125.792 32.1816C126.065 32.373 126.202 32.6921 126.202 33.1387C126.202 33.6764 126.081 34.1982 125.839 34.7041C125.598 35.21 125.477 35.7227 125.477 36.2422C125.477 36.5977 125.602 36.887 125.853 37.1104C126.104 37.3337 126.398 37.4453 126.735 37.4453C127.209 37.4453 127.605 37.2949 127.924 36.9941C128.234 36.6934 128.485 36.3288 128.676 35.9004C128.868 35.472 129.005 35.0163 129.087 34.5332C129.169 34.0501 129.21 33.6263 129.21 33.2617C129.21 32.7786 129.128 32.3503 128.964 31.9766C128.799 31.6029 128.574 31.2884 128.287 31.0332C128 30.778 127.656 30.5866 127.255 30.459C126.863 30.3314 126.434 30.2676 125.969 30.2676C125.422 30.2676 124.917 30.3587 124.452 30.541C123.987 30.7233 123.581 30.9808 123.235 31.3135C122.889 31.6462 122.62 32.0449 122.428 32.5098C122.228 32.9655 122.128 33.4714 122.128 34.0273C122.128 34.556 122.235 34.9639 122.449 35.251C122.663 35.5381 122.77 35.7454 122.77 35.873C122.77 35.9824 122.734 36.1715 122.661 36.4404C122.588 36.7093 122.483 36.8438 122.346 36.8438C122.018 36.8438 121.647 36.5817 121.232 36.0576C120.817 35.5335 120.61 34.7884 120.61 33.8223C120.61 33.0658 120.769 32.3867 121.089 31.7852C121.408 31.1745 121.827 30.6595 122.346 30.2402C122.866 29.821 123.463 29.4974 124.137 29.2695C124.803 29.0417 125.486 28.9277 126.188 28.9277Z" fill="#1F1E17"/>
</g>
<rect x="155.86" y="15.75" width="40" height="40" rx="20" fill="#F8F7F0"/>
<g clip-path="url(#clip3_4137_1113)">
<path d="M174.985 32.6055C175.422 32.6055 175.833 32.6875 176.215 32.8516C176.598 33.0156 176.931 33.2389 177.214 33.5215C177.496 33.804 177.719 34.1367 177.883 34.5195C178.047 34.9023 178.13 35.3125 178.13 35.75C178.13 36.1784 178.047 36.584 177.883 36.9668C177.719 37.3496 177.496 37.6846 177.214 37.9717C176.931 38.2588 176.598 38.4844 176.215 38.6484C175.833 38.8125 175.422 38.8945 174.985 38.8945C174.557 38.8945 174.151 38.8125 173.768 38.6484C173.385 38.4844 173.05 38.2588 172.763 37.9717C172.476 37.6846 172.251 37.3496 172.087 36.9668C171.922 36.584 171.84 36.1784 171.84 35.75C171.84 35.3125 171.922 34.9023 172.087 34.5195C172.251 34.1367 172.476 33.804 172.763 33.5215C173.05 33.2389 173.385 33.0156 173.768 32.8516C174.151 32.6875 174.557 32.6055 174.985 32.6055ZM174.985 37.7871C175.55 37.7871 176.033 37.5889 176.434 37.1924C176.835 36.7959 177.036 36.3151 177.036 35.75C177.036 35.1849 176.835 34.7018 176.434 34.3008C176.033 33.8997 175.55 33.6992 174.985 33.6992C174.42 33.6992 173.939 33.8997 173.543 34.3008C173.146 34.7018 172.948 35.1849 172.948 35.75C172.948 36.3151 173.148 36.7959 173.549 37.1924C173.95 37.5889 174.429 37.7871 174.985 37.7871ZM178.991 32.4824C178.991 32.6829 178.92 32.8538 178.779 32.9951C178.638 33.1364 178.462 33.207 178.253 33.207C178.052 33.207 177.881 33.1364 177.74 32.9951C177.599 32.8538 177.528 32.6829 177.528 32.4824C177.528 32.2728 177.599 32.0973 177.74 31.9561C177.881 31.8148 178.052 31.7441 178.253 31.7441C178.462 31.7441 178.638 31.8148 178.779 31.9561C178.92 32.0973 178.991 32.2728 178.991 32.4824ZM181.069 33.2207C181.087 33.4759 181.101 33.8359 181.11 34.3008C181.11 34.7565 181.11 35.2373 181.11 35.7432C181.11 36.249 181.11 36.7344 181.11 37.1992C181.101 37.6641 181.087 38.0241 181.069 38.2793C181.051 38.7624 180.971 39.2204 180.83 39.6533C180.688 40.0863 180.44 40.4805 180.085 40.8359C179.729 41.2005 179.335 41.4512 178.902 41.5879C178.469 41.7246 178.006 41.8066 177.514 41.834C177.259 41.8431 176.899 41.8522 176.434 41.8613C175.978 41.8704 175.498 41.875 174.992 41.875C174.486 41.875 174.001 41.8704 173.536 41.8613C173.071 41.8522 172.711 41.8431 172.456 41.834C171.964 41.8066 171.503 41.7246 171.075 41.5879C170.646 41.4512 170.25 41.2005 169.885 40.8359C169.53 40.4805 169.284 40.0863 169.147 39.6533C169.01 39.2204 168.928 38.7624 168.901 38.2793C168.883 38.0241 168.874 37.6641 168.874 37.1992C168.865 36.7344 168.86 36.249 168.86 35.7432C168.86 35.2373 168.865 34.752 168.874 34.2871C168.874 33.8314 168.883 33.4759 168.901 33.2207C168.928 32.7285 169.01 32.266 169.147 31.833C169.284 31.4001 169.53 31.0059 169.885 30.6504C170.25 30.2949 170.649 30.0465 171.082 29.9053C171.515 29.764 171.973 29.6842 172.456 29.666C172.711 29.6478 173.071 29.6341 173.536 29.625C174.001 29.625 174.486 29.625 174.992 29.625C175.498 29.625 175.978 29.625 176.434 29.625C176.899 29.6341 177.259 29.6478 177.514 29.666C178.006 29.6934 178.469 29.7754 178.902 29.9121C179.335 30.0488 179.729 30.2949 180.085 30.6504C180.44 31.015 180.688 31.4115 180.83 31.8398C180.971 32.2682 181.051 32.7285 181.069 33.2207ZM179.77 39.3594C179.843 39.1589 179.898 38.8991 179.934 38.5801C179.971 38.2611 179.996 37.9284 180.009 37.582C180.023 37.2357 180.025 36.8984 180.016 36.5703C180.016 36.2422 180.016 35.9688 180.016 35.75C180.016 35.5221 180.016 35.2441 180.016 34.916C180.025 34.5879 180.023 34.2507 180.009 33.9043C179.996 33.5579 179.971 33.2298 179.934 32.9199C179.898 32.6009 179.843 32.3411 179.77 32.1406C179.661 31.8672 179.506 31.6302 179.305 31.4297C179.105 31.2292 178.868 31.0742 178.594 30.9648C178.394 30.8919 178.134 30.8372 177.815 30.8008C177.505 30.7643 177.177 30.7393 176.831 30.7256C176.484 30.7119 176.147 30.7096 175.819 30.7188C175.491 30.7188 175.213 30.7188 174.985 30.7188C174.766 30.7188 174.493 30.7188 174.165 30.7188C173.837 30.7096 173.499 30.7119 173.153 30.7256C172.807 30.7393 172.474 30.7643 172.155 30.8008C171.836 30.8372 171.576 30.8919 171.376 30.9648C171.102 31.0742 170.865 31.2292 170.665 31.4297C170.464 31.6302 170.314 31.8672 170.214 32.1406C170.131 32.3411 170.072 32.6009 170.036 32.9199C169.999 33.2298 169.977 33.5579 169.967 33.9043C169.958 34.2507 169.954 34.5879 169.954 34.916C169.963 35.2441 169.967 35.5221 169.967 35.75C169.967 35.9688 169.963 36.2422 169.954 36.5703C169.954 36.8984 169.958 37.2357 169.967 37.582C169.977 37.9284 169.999 38.2611 170.036 38.5801C170.072 38.8991 170.131 39.1589 170.214 39.3594C170.323 39.6328 170.478 39.8675 170.678 40.0635C170.879 40.2594 171.111 40.4121 171.376 40.5215C171.576 40.6035 171.836 40.6628 172.155 40.6992C172.474 40.7357 172.807 40.7585 173.153 40.7676C173.499 40.7767 173.837 40.7812 174.165 40.7812C174.493 40.7721 174.766 40.7676 174.985 40.7676C175.213 40.7676 175.491 40.7721 175.819 40.7812C176.147 40.7812 176.484 40.7767 176.831 40.7676C177.177 40.7585 177.505 40.7357 177.815 40.6992C178.134 40.6628 178.394 40.6035 178.594 40.5215C178.868 40.4121 179.105 40.2572 179.305 40.0566C179.506 39.8561 179.661 39.6237 179.77 39.3594Z" fill="#1F1E17"/>
</g>
<defs>
<clipPath id="clip0_4137_1113">
<rect width="14" height="14" fill="white" transform="matrix(1 0 0 -1 18.86 42.75)"/>
</clipPath>
<clipPath id="clip1_4137_1113">
<rect width="14" height="14" fill="white" transform="matrix(1 0 0 -1 68.86 42.75)"/>
</clipPath>
<clipPath id="clip2_4137_1113">
<rect width="10.5" height="14" fill="white" transform="matrix(1 0 0 -1 120.61 42.75)"/>
</clipPath>
<clipPath id="clip3_4137_1113">
<rect width="14" height="14" fill="white" transform="matrix(1 0 0 -1 168.86 42.75)"/>
</clipPath>
</defs>
</svg>
