<svg width="14" height="21" viewBox="0 0 14 21" fill="none" xmlns="http://www.w3.org/2000/svg">
<g clip-path="url(#clip0_4138_728)">
<path d="M7.20516 4.34506C8.07664 4.34506 8.89313 4.51005 9.65462 4.84003C10.4161 5.17001 11.0824 5.62056 11.6535 6.19168C12.2247 6.7628 12.6752 7.4291 13.0052 8.19059C13.3352 8.95209 13.5002 9.76857 13.5002 10.6401C13.5002 11.5115 13.3352 12.328 13.0052 13.0895C12.6752 13.851 12.2247 14.5173 11.6535 15.0884C11.0824 15.6596 10.4161 16.1101 9.65462 16.4401C8.89313 16.7701 8.07664 16.9351 7.20516 16.9351C6.33367 16.9351 5.51718 16.7701 4.75569 16.4401C3.9942 16.1101 3.32789 15.6596 2.75677 15.0884C2.18566 14.5173 1.73511 13.851 1.40513 13.0895C1.07515 12.328 0.910156 11.5115 0.910156 10.6401C0.910156 9.76857 1.07515 8.95209 1.40513 8.19059C1.73511 7.4291 2.18566 6.7628 2.75677 6.19168C3.32789 5.62056 3.9942 5.17001 4.75569 4.84003C5.51718 4.51005 6.33367 4.34506 7.20516 4.34506ZM7.20516 6.78183C6.5875 6.78183 6.0608 6.9997 5.62506 7.43545C5.18932 7.87119 4.97145 8.39789 4.97145 9.01554C4.97145 9.6332 5.18932 10.1599 5.62506 10.5956C6.0608 11.0314 6.5875 11.2493 7.20516 11.2493C7.82281 11.2493 8.34951 11.0314 8.78525 10.5956C9.22099 10.1599 9.43887 9.6332 9.43887 9.01554C9.43887 8.39789 9.22099 7.87119 8.78525 7.43545C8.34951 6.9997 7.82281 6.78183 7.20516 6.78183ZM7.20516 15.5136C7.57744 15.5136 7.93703 15.4713 8.28394 15.3867C8.6393 15.3105 8.97351 15.1963 9.28657 15.044C9.59963 14.8917 9.89576 14.7098 10.175 14.4983C10.4542 14.2868 10.7038 14.0499 10.9238 13.7876C10.6869 13.3391 10.3463 12.9732 9.90211 12.6897C9.4579 12.4063 8.96505 12.2646 8.42354 12.2646C8.3897 12.2646 8.35797 12.2667 8.32836 12.2709C8.29874 12.2752 8.27125 12.2815 8.24586 12.29C8.07664 12.3407 7.90531 12.383 7.73185 12.4169C7.5584 12.4507 7.38284 12.4676 7.20516 12.4676C7.02747 12.4676 6.85191 12.4507 6.67846 12.4169C6.50501 12.383 6.33367 12.3407 6.16445 12.29C6.13907 12.2815 6.11157 12.2752 6.08196 12.2709C6.05234 12.2667 6.02061 12.2646 5.98677 12.2646C5.44526 12.2646 4.95241 12.4063 4.50821 12.6897C4.064 12.9732 3.72345 13.3391 3.48654 13.7876C3.70652 14.0499 3.95612 14.2868 4.23534 14.4983C4.51455 14.7098 4.81069 14.8917 5.12374 15.044C5.4368 15.1963 5.77101 15.3105 6.12638 15.3867C6.47328 15.4713 6.83287 15.5136 7.20516 15.5136Z" fill="#EEC044"/>
</g>
<defs>
<clipPath id="clip0_4138_728">
<rect width="12.59" height="20" fill="white" transform="matrix(1 0 0 -1 0.910156 20.6401)"/>
</clipPath>
</defs>
</svg>
