<svg width="16" height="21" viewBox="0 0 16 21" fill="none" xmlns="http://www.w3.org/2000/svg">
<g clip-path="url(#clip0_4138_732)">
<path d="M11.1993 9.01459C11.1993 9.57337 11.0596 10.1025 10.7802 10.602C10.5092 11.0931 10.1346 11.5228 9.65624 11.8911C9.17789 12.2594 8.61699 12.5493 7.97354 12.761C7.33009 12.9726 6.64431 13.0785 5.91619 13.0785C5.39974 13.0785 4.90234 13.0234 4.42399 12.9134C3.94563 12.8033 3.49903 12.6467 3.08417 12.4435C2.81325 12.6044 2.48729 12.7504 2.1063 12.8816C1.72531 13.0129 1.30199 13.0785 0.836334 13.0785C0.794002 13.0785 0.755903 13.0679 0.722037 13.0467C0.688171 13.0256 0.662772 12.9938 0.645839 12.9515C0.628906 12.9176 0.624673 12.8795 0.633139 12.8372C0.641606 12.7949 0.658539 12.761 0.683938 12.7356C0.692405 12.7356 0.804585 12.6001 1.02048 12.3292C1.23637 12.0583 1.42898 11.7323 1.59831 11.3513C1.29352 11.0211 1.05646 10.6571 0.887133 10.2592C0.717804 9.86123 0.633139 9.44638 0.633139 9.01459C0.633139 8.4558 0.772836 7.92665 1.05223 7.42713C1.32315 6.93608 1.69779 6.50641 2.17615 6.13812C2.6545 5.76983 3.2154 5.47985 3.85885 5.26819C4.5023 5.05653 5.18808 4.9507 5.91619 4.9507C6.64431 4.9507 7.33009 5.05653 7.97354 5.26819C8.61699 5.47985 9.17789 5.76983 9.65624 6.13812C10.1346 6.50641 10.5092 6.93608 10.7802 7.42713C11.0596 7.92665 11.1993 8.4558 11.1993 9.01459ZM14.298 14.6024C14.4673 14.9834 14.6599 15.3094 14.8758 15.5803C15.0917 15.8512 15.2039 15.9867 15.2123 15.9867C15.2377 16.0206 15.2547 16.0565 15.2631 16.0946C15.2716 16.1327 15.2674 16.1687 15.2504 16.2026C15.2335 16.2449 15.2081 16.2767 15.1742 16.2978C15.1404 16.319 15.1023 16.3296 15.0599 16.3296C14.5943 16.3296 14.171 16.264 13.79 16.1327C13.409 16.0015 13.083 15.8555 12.8121 15.6946C12.3973 15.8978 11.9528 16.0544 11.4786 16.1645C11.0045 16.2746 10.505 16.3296 9.98008 16.3296C9.42976 16.3296 8.90485 16.2703 8.40533 16.1518C7.90581 16.0248 7.44439 15.8512 7.02106 15.6311C6.59774 15.411 6.22522 15.1485 5.9035 14.8437C5.5733 14.5389 5.31084 14.2045 5.11612 13.8405C5.24311 13.8574 5.37434 13.8701 5.50981 13.8786C5.64527 13.887 5.78073 13.8913 5.91619 13.8913C6.75437 13.8913 7.54598 13.7643 8.29103 13.5103C9.02761 13.2563 9.67106 12.907 10.2214 12.4625C10.7717 12.0181 11.2077 11.4995 11.5294 10.9068C11.8512 10.3142 12.012 9.68344 12.012 9.01459C12.012 8.92992 12.0099 8.84526 12.0057 8.7606C12.0014 8.67593 11.9909 8.59127 11.9739 8.5066C12.4565 8.659 12.901 8.85796 13.3074 9.10349C13.7053 9.35748 14.0503 9.64746 14.3424 9.97341C14.6345 10.2994 14.861 10.6571 15.0218 11.0465C15.1827 11.436 15.2631 11.8424 15.2631 12.2657C15.2631 12.6975 15.1785 13.1123 15.0091 13.5103C14.8398 13.9082 14.6028 14.2722 14.298 14.6024Z" fill="#EEC044"/>
</g>
<defs>
<clipPath id="clip0_4138_732">
<rect width="14.63" height="20" fill="white" transform="matrix(1 0 0 -1 0.629883 20.6401)"/>
</clipPath>
</defs>
</svg>
