<svg width="64" height="65" viewBox="0 0 64 65" fill="none" xmlns="http://www.w3.org/2000/svg">
<path d="M16 60.69H14.1875C12.9375 60.69 11.8438 60.2838 10.9062 59.4713C9.96875 58.6588 9.41667 57.6483 9.25 56.44V56.3775L6.5625 37.565C6.52083 37.315 6.40625 37.1067 6.21875 36.94C6.03125 36.7733 5.8125 36.69 5.5625 36.69C5.3125 36.69 5.08333 36.7838 4.875 36.9713C4.66667 37.1588 4.5625 37.3983 4.5625 37.69C4.5625 37.7317 4.5625 37.7629 4.5625 37.7838C4.5625 37.8046 4.5625 37.815 4.5625 37.815L7.25 56.69C7.54167 58.3983 8.33333 59.8254 9.625 60.9713C10.9167 62.1171 12.4375 62.69 14.1875 62.69H16C16.2917 62.69 16.5312 62.5963 16.7188 62.4088C16.9062 62.2213 17 61.9817 17 61.69C17 61.3983 16.9062 61.1588 16.7188 60.9713C16.5312 60.7838 16.2917 60.69 16 60.69ZM28 50.69C27.7083 50.69 27.4688 50.7838 27.2812 50.9713C27.0938 51.1588 27 51.3983 27 51.69V55.69C27 56.5233 27.2917 57.2317 27.875 57.815C28.4583 58.3983 29.1667 58.69 30 58.69C30.8333 58.69 31.5417 58.3983 32.125 57.815C32.7083 57.2317 33 56.5233 33 55.69V43.69C33 42.8567 32.7083 42.1483 32.125 41.565C31.5417 40.9817 30.8333 40.69 30 40.69C29.1667 40.69 28.4583 40.9817 27.875 41.565C27.2917 42.1483 27 42.8567 27 43.69V47.69C27 47.9817 27.0938 48.2213 27.2812 48.4088C27.4688 48.5963 27.7083 48.69 28 48.69C28.2917 48.69 28.5312 48.5963 28.7188 48.4088C28.9062 48.2213 29 47.9817 29 47.69V43.69C29 43.3983 29.0938 43.1588 29.2812 42.9713C29.4688 42.7838 29.7083 42.69 30 42.69C30.2917 42.69 30.5312 42.7838 30.7188 42.9713C30.9062 43.1588 31 43.3983 31 43.69V55.69C31 55.9817 30.9062 56.2213 30.7188 56.4088C30.5312 56.5963 30.2917 56.69 30 56.69C29.7083 56.69 29.4688 56.5963 29.2812 56.4088C29.0938 56.2213 29 55.9817 29 55.69V51.69C29 51.3983 28.9062 51.1588 28.7188 50.9713C28.5312 50.7838 28.2917 50.69 28 50.69ZM14 40.69C13.1667 40.69 12.4583 40.9817 11.875 41.565C11.2917 42.1483 11 42.8567 11 43.69V55.69C11 56.5233 11.2917 57.2317 11.875 57.815C12.4583 58.3983 13.1667 58.69 14 58.69C14.8333 58.69 15.5417 58.3983 16.125 57.815C16.7083 57.2317 17 56.5233 17 55.69V43.69C17 42.8567 16.7083 42.1483 16.125 41.565C15.5417 40.9817 14.8333 40.69 14 40.69ZM15 55.69C15 55.9817 14.9062 56.2213 14.7188 56.4088C14.5312 56.5963 14.2917 56.69 14 56.69C13.7083 56.69 13.4688 56.5963 13.2812 56.4088C13.0938 56.2213 13 55.9817 13 55.69V43.69C13 43.3983 13.0938 43.1588 13.2812 42.9713C13.4688 42.7838 13.7083 42.69 14 42.69C14.2917 42.69 14.5312 42.7838 14.7188 42.9713C14.9062 43.1588 15 43.3983 15 43.69V55.69ZM19 43.69V55.69C19 56.5233 19.2917 57.2317 19.875 57.815C20.4583 58.3983 21.1667 58.69 22 58.69C22.8333 58.69 23.5417 58.3983 24.125 57.815C24.7083 57.2317 25 56.5233 25 55.69V43.69C25 42.8567 24.7083 42.1483 24.125 41.565C23.5417 40.9817 22.8333 40.69 22 40.69C21.1667 40.69 20.4583 40.9817 19.875 41.565C19.2917 42.1483 19 42.8567 19 43.69ZM23 43.69V55.69C23 55.9817 22.9062 56.2213 22.7188 56.4088C22.5312 56.5963 22.2917 56.69 22 56.69C21.7083 56.69 21.4688 56.5963 21.2812 56.4088C21.0938 56.2213 21 55.9817 21 55.69V43.69C21 43.3983 21.0938 43.1588 21.2812 42.9713C21.4688 42.7838 21.7083 42.69 22 42.69C22.2917 42.69 22.5312 42.7838 22.7188 42.9713C22.9062 43.1588 23 43.3983 23 43.69ZM44 38.69C44.2917 38.69 44.5312 38.5963 44.7188 38.4088C44.9062 38.2213 45 37.9817 45 37.69C45 37.3983 44.9062 37.1588 44.7188 36.9713C44.5312 36.7838 44.2917 36.69 44 36.69H37C36.7083 36.69 36.4688 36.7838 36.2812 36.9713C36.0938 37.1588 36 37.3983 36 37.69C36 37.9817 36.0938 38.2213 36.2812 38.4088C36.4688 38.5963 36.7083 38.69 37 38.69H44ZM23 36.69H11C10.7083 36.69 10.4688 36.7838 10.2812 36.9713C10.0938 37.1588 10 37.3983 10 37.69C10 37.9817 10.0938 38.2213 10.2812 38.4088C10.4688 38.5963 10.7083 38.69 11 38.69H23C23.2917 38.69 23.5312 38.5963 23.7188 38.4088C23.9062 38.2213 24 37.9817 24 37.69C24 37.3983 23.9062 37.1588 23.7188 36.9713C23.5312 36.7838 23.2917 36.69 23 36.69ZM55.9375 43.7525C56.5625 43.2942 57.0625 42.7108 57.4375 42.0025C57.8125 41.2942 58 40.5233 58 39.69C58 39.3983 57.9062 39.1588 57.7188 38.9713C57.5312 38.7838 57.2917 38.69 57 38.69H55.3125L55.875 34.69H57C57.8333 34.69 58.5417 34.3983 59.125 33.815C59.7083 33.2317 60 32.5233 60 31.69C60 30.8567 59.7083 30.1483 59.125 29.565C58.5417 28.9817 57.8333 28.69 57 28.69H50.75L51.625 26.7525C51.9583 27.0025 52.3229 27.2004 52.7188 27.3463C53.1146 27.4921 53.5417 27.565 54 27.565C54.9167 27.565 55.7292 27.2942 56.4375 26.7525C57.1458 26.2108 57.625 25.5025 57.875 24.6275C57.9167 24.4608 57.9479 24.2942 57.9688 24.1275C57.9896 23.9608 58 23.7942 58 23.6275C58 23.5858 58 23.5546 58 23.5338C58 23.5129 58 23.4817 58 23.44C58.5833 23.1067 59.0625 22.6275 59.4375 22.0025C59.8125 21.3775 60 20.7108 60 20.0025C60 19.4192 59.8854 18.8671 59.6562 18.3463C59.4271 17.8254 59.1042 17.3775 58.6875 17.0025C58.7708 16.8358 58.8646 16.6379 58.9688 16.4088C59.0729 16.1796 59.1458 15.94 59.1875 15.69H59.25C59.2917 15.44 59.3333 15.1796 59.375 14.9088C59.4167 14.6379 59.4375 14.3775 59.4375 14.1275C59.4375 13.2942 59.2812 12.5129 58.9688 11.7838C58.6562 11.0546 58.2292 10.4192 57.6875 9.8775C57.6042 9.79417 57.5 9.73167 57.375 9.69C57.25 9.64834 57.125 9.6275 57 9.6275C56.7083 9.6275 56.4688 9.72125 56.2812 9.90875C56.0938 10.0963 56 10.3358 56 10.6275C56 10.7525 56.0208 10.8775 56.0625 11.0025C56.1042 11.1275 56.1875 11.2317 56.3125 11.315C56.6458 11.69 56.9167 12.1171 57.125 12.5963C57.3333 13.0754 57.4375 13.5858 57.4375 14.1275C57.4375 14.9608 57.1979 15.7213 56.7188 16.4088C56.2396 17.0963 55.6042 17.565 54.8125 17.815V17.8775C54.6458 17.9192 54.5 18.0233 54.375 18.19C54.25 18.3567 54.1875 18.5442 54.1875 18.7525C54.1875 18.8775 54.1771 19.0025 54.1562 19.1275C54.1354 19.2525 54.1042 19.3775 54.0625 19.5025V19.44C53.8958 20.1067 53.5417 20.6483 53 21.065C52.4583 21.4817 51.8542 21.69 51.1875 21.69C50.4792 21.69 49.8646 21.4817 49.3438 21.065C48.8229 20.6483 48.4792 20.1275 48.3125 19.5025C48.3125 19.5025 48.3125 19.4817 48.3125 19.44C48.2708 19.3567 48.2396 19.2421 48.2188 19.0963C48.1979 18.9504 48.1875 18.815 48.1875 18.69C48.1875 18.1483 48.3229 17.6483 48.5938 17.19C48.8646 16.7317 49.2083 16.3567 49.625 16.065H49.6875C49.8125 15.9817 49.9271 15.8671 50.0312 15.7213C50.1354 15.5754 50.1875 15.3983 50.1875 15.19C50.1875 14.94 50.0833 14.7108 49.875 14.5025C49.6667 14.2942 49.4375 14.19 49.1875 14.19C49.0625 14.19 48.9583 14.2108 48.875 14.2525C48.7917 14.2942 48.7292 14.3358 48.6875 14.3775C47.9375 14.7942 47.3333 15.3879 46.875 16.1588C46.4167 16.9296 46.1875 17.7733 46.1875 18.69C46.1875 18.7317 46.1875 18.7942 46.1875 18.8775C46.1875 18.9608 46.1875 19.0442 46.1875 19.1275V19.065C46.1042 19.1067 46.0104 19.1275 45.9062 19.1275C45.8021 19.1275 45.6875 19.1275 45.5625 19.1275C45.4375 19.1275 45.3125 19.1275 45.1875 19.1275C45.0625 19.1275 44.9375 19.1067 44.8125 19.065H44.875C44.4167 18.94 44.0312 18.7421 43.7188 18.4713C43.4062 18.2004 43.1458 17.8775 42.9375 17.5025C42.9375 17.4608 42.9375 17.44 42.9375 17.44C42.8542 17.2317 42.7812 17.0233 42.7188 16.815C42.6562 16.6067 42.625 16.3775 42.625 16.1275C42.625 16.1275 42.625 16.1067 42.625 16.065C42.625 15.815 42.5312 15.5858 42.3438 15.3775C42.1562 15.1692 41.9167 15.065 41.625 15.065C41.375 15.065 41.1458 15.1588 40.9375 15.3463C40.7292 15.5338 40.625 15.7733 40.625 16.065C40.625 16.065 40.625 16.0754 40.625 16.0963C40.625 16.1171 40.625 16.1275 40.625 16.1275C40.625 16.3775 40.6458 16.6067 40.6875 16.815C40.7292 17.0233 40.7708 17.2317 40.8125 17.44C40.6458 17.4817 40.4792 17.5233 40.3125 17.565C40.1458 17.6067 39.9792 17.6275 39.8125 17.6275C39.6875 17.6275 39.5625 17.6171 39.4375 17.5963C39.3125 17.5754 39.1875 17.5442 39.0625 17.5025C38.7292 17.4192 38.4375 17.2942 38.1875 17.1275C37.9375 16.9608 37.7083 16.7525 37.5 16.5025V16.44C37.2917 16.19 37.125 15.9088 37 15.5963C36.875 15.2838 36.8125 14.9608 36.8125 14.6275C36.8125 13.9192 37.0312 13.2942 37.4688 12.7525C37.9062 12.2108 38.4375 11.8567 39.0625 11.69H39.125C39.2917 11.6483 39.4479 11.5546 39.5938 11.4088C39.7396 11.2629 39.8125 11.0858 39.8125 10.8775L39.875 10.69C39.875 10.6483 39.875 10.6067 39.875 10.565C39.875 10.5233 39.875 10.5025 39.875 10.5025C40.0833 9.79417 40.4375 9.19 40.9375 8.69C41.4375 8.19 42.0417 7.85667 42.75 7.69C42.75 7.815 42.7396 7.97125 42.7188 8.15875C42.6979 8.34625 42.6875 8.52334 42.6875 8.69C42.6875 9.23167 42.7604 9.76292 42.9062 10.2838C43.0521 10.8046 43.25 11.2733 43.5 11.69C43.5833 11.8567 43.6979 11.9817 43.8438 12.065C43.9896 12.1483 44.1458 12.19 44.3125 12.19C44.6042 12.19 44.8438 12.0963 45.0312 11.9088C45.2188 11.7213 45.3125 11.4817 45.3125 11.19C45.3125 11.1067 45.3021 11.0233 45.2812 10.94C45.2604 10.8567 45.2292 10.7733 45.1875 10.69C45.0208 10.3983 44.8958 10.0858 44.8125 9.7525C44.7292 9.41917 44.6875 9.065 44.6875 8.69C44.6875 8.39834 44.7188 8.10667 44.7812 7.815C44.8438 7.52334 44.9375 7.23167 45.0625 6.94C45.3958 6.27334 45.8854 5.73167 46.5312 5.315C47.1771 4.89834 47.8958 4.69 48.6875 4.69C49.7708 4.69 50.7083 5.07542 51.5 5.84625C52.2917 6.61709 52.6875 7.565 52.6875 8.69C52.6875 8.73167 52.6771 8.78375 52.6562 8.84625C52.6354 8.90875 52.625 8.98167 52.625 9.065V9.0025C52.625 9.04417 52.625 9.065 52.625 9.065C52.625 9.35667 52.7292 9.59625 52.9375 9.78375C53.1458 9.97125 53.375 10.065 53.625 10.065C53.875 10.065 54.0938 9.98167 54.2812 9.815C54.4688 9.64834 54.5833 9.44 54.625 9.19C54.625 9.10667 54.6354 9.02334 54.6562 8.94C54.6771 8.85667 54.6875 8.77334 54.6875 8.69C54.6875 7.02334 54.0938 5.60667 52.9062 4.44C51.7188 3.27334 50.3125 2.69 48.6875 2.69C47.6042 2.69 46.6146 2.95042 45.7188 3.47125C44.8229 3.99209 44.1042 4.66917 43.5625 5.5025C42.2292 5.54417 41.0521 5.98167 40.0312 6.815C39.0104 7.64834 38.3333 8.69 38 9.94V10.0025C37.0417 10.3775 36.2812 10.9713 35.7188 11.7838C35.1562 12.5963 34.875 13.5233 34.875 14.565C34.875 15.0233 34.9271 15.4504 35.0312 15.8463C35.1354 16.2421 35.2708 16.6275 35.4375 17.0025V16.94C35.3542 17.065 35.2604 17.2004 35.1562 17.3463C35.0521 17.4921 34.9792 17.6275 34.9375 17.7525L34.875 17.815L34.0625 16.0025C33.7292 15.2942 33.2708 14.6796 32.6875 14.1588C32.1042 13.6379 31.4375 13.2733 30.6875 13.065L30.625 13.0025C30.5417 12.9608 30.4271 12.9296 30.2812 12.9088C30.1354 12.8879 30 12.8775 29.875 12.8775L29.8125 12.815L29.5 7.5025C29.5 7.2525 29.3958 7.03375 29.1875 6.84625C28.9792 6.65875 28.75 6.565 28.5 6.565C28.2083 6.565 27.9688 6.65875 27.7812 6.84625C27.5938 7.03375 27.5 7.27334 27.5 7.565C27.5 7.565 27.5 7.57542 27.5 7.59625C27.5 7.61709 27.5 7.6275 27.5 7.6275L27.8125 12.8775C27.6458 12.9192 27.4792 12.9713 27.3125 13.0338C27.1458 13.0963 26.9792 13.1483 26.8125 13.19H26.875L25.5 8.44C25.4583 8.23167 25.3438 8.05459 25.1562 7.90875C24.9688 7.76292 24.7708 7.69 24.5625 7.69C24.2708 7.69 24.0312 7.78375 23.8438 7.97125C23.6562 8.15875 23.5625 8.39834 23.5625 8.69C23.5625 8.73167 23.5625 8.77334 23.5625 8.815C23.5625 8.85667 23.5625 8.91917 23.5625 9.0025V8.94L23.625 9.065L23.5 9.0025C23.4167 8.91917 23.3125 8.84625 23.1875 8.78375C23.0625 8.72125 22.9375 8.69 22.8125 8.69C22.6875 8.69 22.5625 8.71084 22.4375 8.7525C22.3125 8.79417 22.2083 8.8775 22.125 9.0025V8.94L19.125 11.815C19.0417 11.94 18.9688 12.0546 18.9062 12.1588C18.8438 12.2629 18.8125 12.3983 18.8125 12.565C18.8125 12.7317 18.8542 12.8879 18.9375 13.0338C19.0208 13.1796 19.1458 13.2942 19.3125 13.3775L23.75 16.315C23.7083 16.44 23.6667 16.565 23.625 16.69C23.5833 16.815 23.5417 16.9608 23.5 17.1275C23.4583 17.3358 23.4271 17.5442 23.4062 17.7525C23.3854 17.9608 23.375 18.1692 23.375 18.3775C23.375 18.4608 23.375 18.5442 23.375 18.6275C23.375 18.7108 23.375 18.7942 23.375 18.8775C22.625 19.0025 21.9167 19.2213 21.25 19.5338C20.5833 19.8463 19.9583 20.2317 19.375 20.69L18.6875 20.0025C18.6042 19.9192 18.5 19.8463 18.375 19.7838C18.25 19.7213 18.125 19.69 18 19.69C17.75 19.69 17.5208 19.7942 17.3125 20.0025C17.1042 20.2108 17 20.44 17 20.69C17 20.815 17.0312 20.94 17.0938 21.065C17.1562 21.19 17.2292 21.2942 17.3125 21.3775L17.375 21.44C16.5417 21.6483 15.8229 22.0233 15.2188 22.565C14.6146 23.1067 14.1667 23.7733 13.875 24.565H13.8125L13.75 24.8775L11.3125 24.065C11.2708 24.0233 11.2292 24.0025 11.1875 24.0025C11.1458 24.0025 11.0833 24.0025 11 24.0025C10.7083 24.0025 10.4688 24.0963 10.2812 24.2838C10.0938 24.4713 10 24.7108 10 25.0025C10 25.2108 10.0625 25.3983 10.1875 25.565C10.3125 25.7317 10.4792 25.8567 10.6875 25.94L30.8125 32.8775C30.9792 32.9608 31.125 33.0858 31.25 33.2525C31.375 33.4192 31.4375 33.6275 31.4375 33.8775C31.4375 34.1275 31.3438 34.3567 31.1562 34.565C30.9688 34.7733 30.7292 34.8775 30.4375 34.8775C30.3958 34.8775 30.3438 34.8671 30.2812 34.8463C30.2188 34.8254 30.1667 34.815 30.125 34.815L3.6875 25.6275C3.47917 25.5442 3.3125 25.4192 3.1875 25.2525C3.0625 25.0858 3 24.8983 3 24.69C3 24.4817 3.05208 24.3046 3.15625 24.1588C3.26042 24.0129 3.39583 23.8983 3.5625 23.815C3.64583 23.7733 3.71875 23.7421 3.78125 23.7213C3.84375 23.7004 3.91667 23.69 4 23.69C4.04167 23.69 4.09375 23.69 4.15625 23.69C4.21875 23.69 4.27083 23.7108 4.3125 23.7525L6.875 24.6275C6.95833 24.6692 7.03125 24.69 7.09375 24.69C7.15625 24.69 7.20833 24.69 7.25 24.69C7.54167 24.69 7.78125 24.5963 7.96875 24.4088C8.15625 24.2213 8.25 23.9817 8.25 23.69C8.25 23.4817 8.1875 23.2942 8.0625 23.1275C7.9375 22.9608 7.77083 22.8358 7.5625 22.7525L5 21.8775C4.83333 21.7942 4.66667 21.7421 4.5 21.7213C4.33333 21.7004 4.14583 21.69 3.9375 21.69C3.14583 21.69 2.44792 21.9817 1.84375 22.565C1.23958 23.1483 0.9375 23.8567 0.9375 24.69C0.9375 25.3567 1.13542 25.94 1.53125 26.44C1.92708 26.94 2.41667 27.2942 3 27.5025L6.375 28.69H3C2.16667 28.69 1.45833 28.9817 0.875 29.565C0.291667 30.1483 0 30.8567 0 31.69C0 32.5233 0.291667 33.2317 0.875 33.815C1.45833 34.3983 2.16667 34.69 3 34.69H23.6875L29.5 36.69C29.625 36.7317 29.7708 36.7733 29.9375 36.815C30.1042 36.8567 30.2917 36.8775 30.5 36.8775C31.3333 36.8775 32.0417 36.5858 32.625 36.0025C33.2083 35.4192 33.5 34.7108 33.5 33.8775C33.5 33.2108 33.3021 32.6171 32.9062 32.0963C32.5104 31.5754 32.0208 31.2108 31.4375 31.0025L30.5 30.69H57C57.2917 30.69 57.5312 30.7838 57.7188 30.9713C57.9062 31.1588 58 31.3983 58 31.69C58 31.9817 57.9062 32.2213 57.7188 32.4088C57.5312 32.5963 57.2917 32.69 57 32.69H36.4375C36.1875 32.69 35.9583 32.7838 35.75 32.9713C35.5417 33.1588 35.4375 33.3983 35.4375 33.69C35.4375 33.9817 35.5417 34.2213 35.75 34.4088C35.9583 34.5963 36.1875 34.69 36.4375 34.69H53.875L53.25 39.0025C52.9583 39.1275 52.6875 39.2733 52.4375 39.44C52.1875 39.6067 51.9583 39.7733 51.75 39.94V39.815C51.75 39.7317 51.75 39.6692 51.75 39.6275C51.75 39.5858 51.75 39.5233 51.75 39.44C51.75 39.1067 51.6875 38.7838 51.5625 38.4713C51.4375 38.1588 51.2708 37.8775 51.0625 37.6275C50.8125 37.3358 50.5104 37.1171 50.1562 36.9713C49.8021 36.8254 49.4167 36.7525 49 36.7525C48.5833 36.7525 48.1979 36.8254 47.8438 36.9713C47.4896 37.1171 47.1875 37.3358 46.9375 37.6275C46.7292 37.8775 46.5625 38.1588 46.4375 38.4713C46.3125 38.7838 46.25 39.1067 46.25 39.44C46.25 39.5233 46.25 39.5963 46.25 39.6588C46.25 39.7213 46.25 39.7733 46.25 39.815L46.625 42.7525C46.5 42.7108 46.3854 42.69 46.2812 42.69C46.1771 42.69 46.0833 42.69 46 42.69C45.0417 42.69 44.1354 42.8463 43.2812 43.1588C42.4271 43.4713 41.6667 43.8983 41 44.44V43.69C41 42.8567 40.7083 42.1483 40.125 41.565C39.5417 40.9817 38.8333 40.69 38 40.69C37.1667 40.69 36.4583 40.9817 35.875 41.565C35.2917 42.1483 35 42.8567 35 43.69V55.69C35 56.5233 35.2917 57.2317 35.875 57.815C36.4583 58.3983 37.1667 58.69 38 58.69C38.375 58.69 38.7396 58.6171 39.0938 58.4713C39.4479 58.3254 39.7708 58.1275 40.0625 57.8775C40.3125 58.4192 40.6042 58.9192 40.9375 59.3775C41.2708 59.8358 41.625 60.2733 42 60.69H20C19.7083 60.69 19.4688 60.7838 19.2812 60.9713C19.0938 61.1588 19 61.3983 19 61.69C19 61.9817 19.0938 62.2213 19.2812 62.4088C19.4688 62.5963 19.7083 62.69 20 62.69H45.8125C45.8125 62.69 45.8333 62.69 45.875 62.69C45.9167 62.69 45.9479 62.69 45.9688 62.69C45.9896 62.69 46 62.69 46 62.69C46.5417 62.69 47.0729 62.6379 47.5938 62.5338C48.1146 62.4296 48.6042 62.2733 49.0625 62.065L49 62.1275C49.4583 62.2942 49.9375 62.4296 50.4375 62.5338C50.9375 62.6379 51.4583 62.69 52 62.69C52.9167 62.69 53.8021 62.3983 54.6562 61.815C55.5104 61.2317 56.3125 60.3983 57.0625 59.315C57.1458 59.2317 57.1979 59.1379 57.2188 59.0338C57.2396 58.9296 57.25 58.8358 57.25 58.7525C57.25 58.4608 57.1562 58.2213 56.9688 58.0338C56.7812 57.8463 56.5417 57.7525 56.25 57.7525C56.0833 57.7525 55.9271 57.7838 55.7812 57.8463C55.6354 57.9088 55.5208 58.0233 55.4375 58.19C54.8958 58.9817 54.3229 59.5963 53.7188 60.0338C53.1146 60.4713 52.5417 60.69 52 60.69C51.5417 60.69 51.0938 60.6379 50.6562 60.5338C50.2188 60.4296 49.7917 60.2733 49.375 60.065L49.4375 60.1275C49.3542 60.0858 49.2812 60.0546 49.2188 60.0338C49.1562 60.0129 49.0833 60.0025 49 60.0025C48.9167 60.0025 48.8438 60.0129 48.7812 60.0338C48.7188 60.0546 48.6458 60.0858 48.5625 60.1275C48.1875 60.2942 47.7812 60.4296 47.3438 60.5338C46.9062 60.6379 46.4583 60.69 46 60.69C46 60.69 45.9896 60.69 45.9688 60.69C45.9479 60.69 45.9375 60.69 45.9375 60.69C44.4375 60.6483 43.0729 59.4296 41.8438 57.0338C40.6146 54.6379 40 52.5233 40 50.69C40 49.0233 40.5833 47.6067 41.75 46.44C42.9167 45.2733 44.3333 44.69 46 44.69C46.1667 44.69 46.3229 44.7004 46.4688 44.7213C46.6146 44.7421 46.7708 44.7525 46.9375 44.7525H46.875V44.815C46.9583 45.3567 47.1979 45.8046 47.5938 46.1588C47.9896 46.5129 48.4583 46.69 49 46.69C49.5417 46.69 50.0104 46.5129 50.4062 46.1588C50.8021 45.8046 51.0417 45.3567 51.125 44.815V44.7525C51.25 44.7525 51.3854 44.7421 51.5312 44.7213C51.6771 44.7004 51.8333 44.69 52 44.69C53.6667 44.69 55.0833 45.2733 56.25 46.44C57.4167 47.6067 58 49.0233 58 50.69C57.9583 51.44 57.8646 52.1692 57.7188 52.8775C57.5729 53.5858 57.375 54.2525 57.125 54.8775V54.815C57.125 54.8567 57.1146 54.9088 57.0938 54.9713C57.0729 55.0338 57.0625 55.1067 57.0625 55.19C57.0625 55.4817 57.1562 55.7213 57.3438 55.9088C57.5312 56.0963 57.7708 56.19 58.0625 56.19C58.2708 56.19 58.4688 56.1275 58.6562 56.0025C58.8438 55.8775 58.9583 55.7108 59 55.5025C59.2917 54.7942 59.5208 54.0338 59.6875 53.2213C59.8542 52.4088 59.9583 51.565 60 50.69C60 49.19 59.625 47.8254 58.875 46.5963C58.125 45.3671 57.1458 44.4192 55.9375 43.7525ZM3 32.69C2.70833 32.69 2.46875 32.5963 2.28125 32.4088C2.09375 32.2213 2 31.9817 2 31.69C2 31.3983 2.09375 31.1588 2.28125 30.9713C2.46875 30.7838 2.70833 30.69 3 30.69H12.1875L17.9375 32.69H3ZM56 20.0025C56 19.9192 56.0104 19.8358 56.0312 19.7525C56.0521 19.6692 56.0833 19.5858 56.125 19.5025V19.44C56.375 19.315 56.6042 19.1796 56.8125 19.0338C57.0208 18.8879 57.2292 18.7317 57.4375 18.565C57.6042 18.7317 57.7396 18.94 57.8438 19.19C57.9479 19.44 58 19.7108 58 20.0025C58 20.4192 57.8646 20.8046 57.5938 21.1588C57.3229 21.5129 57 21.7525 56.625 21.8775H56.5625C56.3542 21.9608 56.1875 22.0858 56.0625 22.2525C55.9375 22.4192 55.875 22.6067 55.875 22.815C55.875 22.8567 55.875 22.8983 55.875 22.94C55.875 22.9817 55.8958 23.0233 55.9375 23.065C55.9375 23.1483 55.9479 23.2317 55.9688 23.315C55.9896 23.3983 56 23.5025 56 23.6275C56 23.7108 55.9896 23.7942 55.9688 23.8775C55.9479 23.9608 55.9375 24.0442 55.9375 24.1275V24.065C55.8125 24.5233 55.5729 24.8879 55.2188 25.1588C54.8646 25.4296 54.4583 25.565 54 25.565C53.9167 25.565 53.8229 25.565 53.7188 25.565C53.6146 25.565 53.5208 25.5442 53.4375 25.5025H53.5C53.2917 25.4608 53.0938 25.3775 52.9062 25.2525C52.7188 25.1275 52.5625 24.9817 52.4375 24.815L53.125 23.2525C53.25 23.2108 53.3542 23.1692 53.4375 23.1275C53.5208 23.0858 53.6042 23.0442 53.6875 23.0025C54.2292 22.6692 54.7083 22.2421 55.125 21.7213C55.5417 21.2004 55.8333 20.6275 56 20.0025ZM50.8125 23.6275L48.5625 28.69H42.25L42.5 27.815C42.5 27.815 42.5104 27.7838 42.5312 27.7213C42.5521 27.6588 42.5625 27.6067 42.5625 27.565C42.5625 27.565 42.5521 27.5442 42.5312 27.5025C42.5104 27.4608 42.5 27.4192 42.5 27.3775L40.9375 19.5025C41.0625 19.4608 41.1979 19.4192 41.3438 19.3775C41.4896 19.3358 41.625 19.2733 41.75 19.19L41.6875 19.2525C41.9792 19.5858 42.2917 19.8775 42.625 20.1275C42.9583 20.3775 43.3125 20.5858 43.6875 20.7525H43.75L44.9375 26.815C44.9792 27.0233 45.0833 27.2004 45.25 27.3463C45.4167 27.4921 45.6042 27.565 45.8125 27.565C45.8542 27.565 45.875 27.565 45.875 27.565C45.875 27.565 45.8958 27.565 45.9375 27.565C46.1458 27.565 46.3333 27.5129 46.5 27.4088C46.6667 27.3046 46.7708 27.1692 46.8125 27.0025H46.875L48.75 23.0025C49.0417 23.2108 49.3542 23.3671 49.6875 23.4713C50.0208 23.5754 50.375 23.6275 50.75 23.6275H50.8125ZM46.75 21.0025C46.8333 21.1275 46.9062 21.2421 46.9688 21.3463C47.0312 21.4504 47.1042 21.5442 47.1875 21.6275L46.3125 23.44L45.875 21.1275C46.0417 21.1275 46.1979 21.1171 46.3438 21.0963C46.4896 21.0754 46.6458 21.0442 46.8125 21.0025H46.75ZM38.875 19.5025L39.25 21.315C39.125 21.3567 39 21.3879 38.875 21.4088C38.75 21.4296 38.625 21.44 38.5 21.44C38.4167 21.44 38.3333 21.4296 38.25 21.4088C38.1667 21.3879 38.0833 21.3775 38 21.3775C37.5833 21.2525 37.2396 21.0129 36.9688 20.6588C36.6979 20.3046 36.5625 19.8983 36.5625 19.44C36.5625 19.3567 36.5625 19.2629 36.5625 19.1588C36.5625 19.0546 36.5833 18.9608 36.625 18.8775V18.94C36.625 18.8567 36.6458 18.7838 36.6875 18.7213C36.7292 18.6588 36.75 18.6067 36.75 18.565C37 18.7733 37.2708 18.9504 37.5625 19.0963C37.8542 19.2421 38.1667 19.3567 38.5 19.44H38.5625C38.6042 19.44 38.6562 19.4504 38.7188 19.4713C38.7812 19.4921 38.8333 19.5025 38.875 19.5025ZM37.5 23.315C37.6667 23.3567 37.8333 23.3879 38 23.4088C38.1667 23.4296 38.3542 23.44 38.5625 23.44C38.7292 23.44 38.9167 23.4192 39.125 23.3775C39.3333 23.3358 39.5208 23.2942 39.6875 23.2525H39.625L40.5 27.565L40.1875 28.69H40L37.5 23.315ZM37.8125 28.69H35.8125C35.8542 28.69 35.8958 28.6796 35.9375 28.6588C35.9792 28.6379 36.0208 28.6275 36.0625 28.6275L37.4375 27.815L37.8125 28.69ZM30.9375 15.3775L29.875 16.0025C29.75 16.0858 29.6354 16.2004 29.5312 16.3463C29.4271 16.4921 29.375 16.6692 29.375 16.8775C29.375 17.1275 29.4792 17.3567 29.6875 17.565C29.8958 17.7733 30.125 17.8775 30.375 17.8775C30.5 17.8775 30.6042 17.8567 30.6875 17.815C30.7708 17.7733 30.8542 17.7317 30.9375 17.69H30.875L32.25 16.94L33.5625 19.6275L32.375 20.315C32.25 20.3983 32.1354 20.5129 32.0312 20.6588C31.9271 20.8046 31.875 20.9817 31.875 21.19C31.875 21.44 31.9792 21.6692 32.1875 21.8775C32.3958 22.0858 32.625 22.19 32.875 22.19C33 22.19 33.1042 22.1796 33.1875 22.1588C33.2708 22.1379 33.3542 22.1067 33.4375 22.065H33.375L34.4375 21.44L36.5625 26.0025L35.0625 26.8775C34.8958 26.9608 34.7708 27.0754 34.6875 27.2213C34.6042 27.3671 34.5625 27.5442 34.5625 27.7525C34.5625 27.9608 34.625 28.1483 34.75 28.315C34.875 28.4817 35.0417 28.6067 35.25 28.69H31.75L30.625 27.1275L33.1875 25.6275C33.3125 25.5442 33.4271 25.4296 33.5312 25.2838C33.6354 25.1379 33.6875 24.9608 33.6875 24.7525C33.6875 24.5025 33.5833 24.2733 33.375 24.065C33.1667 23.8567 32.9375 23.7525 32.6875 23.7525C32.6042 23.7525 32.5104 23.7629 32.4062 23.7838C32.3021 23.8046 32.2292 23.8567 32.1875 23.94V23.8775L29.5 25.44L27.8125 23.0025L29.8125 21.815C29.9375 21.7317 30.0521 21.6171 30.1562 21.4713C30.2604 21.3254 30.3125 21.1483 30.3125 20.94C30.3125 20.69 30.2083 20.4608 30 20.2525C29.7917 20.0442 29.5625 19.94 29.3125 19.94C29.2292 19.94 29.1458 19.9504 29.0625 19.9713C28.9792 19.9921 28.8958 20.0233 28.8125 20.065L26.625 21.315L26 20.44C25.7917 20.1483 25.6354 19.8254 25.5312 19.4713C25.4271 19.1171 25.375 18.7525 25.375 18.3775C25.375 17.3775 25.7292 16.5233 26.4375 15.815C27.1458 15.1067 27.9792 14.7525 28.9375 14.7525C29.1458 14.7525 29.3438 14.7733 29.5312 14.815C29.7188 14.8567 29.8958 14.8983 30.0625 14.94C30.2292 14.9817 30.3854 15.0442 30.5312 15.1275C30.6771 15.2108 30.8125 15.2942 30.9375 15.3775ZM21.4375 12.44L22.75 11.1275L24.75 13.19L25.125 14.315C25.0833 14.3567 25.0312 14.4088 24.9688 14.4713C24.9062 14.5338 24.8542 14.5858 24.8125 14.6275L21.4375 12.44ZM15.6875 25.2525C15.9375 24.7108 16.3125 24.2525 16.8125 23.8775C17.3125 23.5025 17.875 23.315 18.5 23.315C18.5417 23.315 18.5625 23.315 18.5625 23.315L18.3125 24.1275C18.1458 24.5025 17.9062 24.8463 17.5938 25.1588C17.2812 25.4713 16.9167 25.69 16.5 25.815L15.625 25.565L15.6875 25.2525ZM18.9375 26.69C19.1875 26.44 19.4167 26.1588 19.625 25.8463C19.8333 25.5338 20 25.19 20.125 24.815H20.1875L20.3125 24.3775C20.3958 24.4608 20.4896 24.5233 20.5938 24.565C20.6979 24.6067 20.8125 24.6275 20.9375 24.6275C21.2292 24.6275 21.4688 24.5338 21.6562 24.3463C21.8438 24.1588 21.9375 23.9192 21.9375 23.6275C21.9375 23.5025 21.9167 23.3879 21.875 23.2838C21.8333 23.1796 21.7708 23.0858 21.6875 23.0025L20.8125 22.1275C21.2708 21.7942 21.7604 21.5129 22.2812 21.2838C22.8021 21.0546 23.3333 20.8983 23.875 20.815H23.9375C24.0208 20.94 24.0938 21.065 24.1562 21.19C24.2188 21.315 24.2917 21.44 24.375 21.565L29.3125 28.69H24.75L18.9375 26.69ZM39 55.69C39 55.9817 38.9062 56.2213 38.7188 56.4088C38.5312 56.5963 38.2917 56.69 38 56.69C37.7083 56.69 37.4688 56.5963 37.2812 56.4088C37.0938 56.2213 37 55.9817 37 55.69V43.69C37 43.3983 37.0938 43.1588 37.2812 42.9713C37.4688 42.7838 37.7083 42.69 38 42.69C38.2917 42.69 38.5312 42.7838 38.7188 42.9713C38.9062 43.1588 39 43.3983 39 43.69V46.815C38.6667 47.3983 38.4167 48.0129 38.25 48.6588C38.0833 49.3046 38 49.9817 38 50.69C38.0417 51.6067 38.1562 52.4921 38.3438 53.3463C38.5312 54.2004 38.7708 55.0233 39.0625 55.815V55.69H39ZM55 40.69H55.8125C55.6042 41.2733 55.25 41.7525 54.75 42.1275C54.25 42.5025 53.6667 42.69 53 42.69H52.1875C52.3958 42.1067 52.75 41.6275 53.25 41.2525C53.75 40.8775 54.3333 40.69 55 40.69ZM48.875 44.565L48.25 39.565C48.25 39.5233 48.25 39.5025 48.25 39.5025C48.25 39.5025 48.25 39.4817 48.25 39.44C48.25 39.2317 48.3229 39.0546 48.4688 38.9088C48.6146 38.7629 48.7917 38.69 49 38.69C49.2083 38.69 49.3854 38.7629 49.5312 38.9088C49.6771 39.0546 49.75 39.2317 49.75 39.44C49.75 39.4817 49.75 39.5025 49.75 39.5025C49.75 39.5025 49.75 39.5233 49.75 39.565L49.125 44.565C49.125 44.6067 49.1146 44.6379 49.0938 44.6588C49.0729 44.6796 49.0417 44.69 49 44.69C48.9583 44.69 48.9271 44.6796 48.9062 44.6588C48.8854 44.6379 48.875 44.6067 48.875 44.565ZM53.375 46.8775C53.3333 46.8358 53.2708 46.8046 53.1875 46.7838C53.1042 46.7629 53.0208 46.7525 52.9375 46.7525C52.6458 46.7525 52.4062 46.8567 52.2188 47.065C52.0312 47.2733 51.9375 47.5025 51.9375 47.7525C51.9375 47.9608 51.9896 48.1379 52.0938 48.2838C52.1979 48.4296 52.3125 48.5442 52.4375 48.6275C52.7708 48.7942 53.0417 49.0025 53.25 49.2525C53.4583 49.5025 53.625 49.7942 53.75 50.1275C53.8333 50.3358 53.9583 50.5025 54.125 50.6275C54.2917 50.7525 54.4792 50.815 54.6875 50.815C54.9792 50.815 55.2188 50.7213 55.4062 50.5338C55.5938 50.3463 55.6875 50.1067 55.6875 49.815C55.6875 49.7317 55.6875 49.6588 55.6875 49.5963C55.6875 49.5338 55.6667 49.4817 55.625 49.44C55.4167 48.8983 55.125 48.4088 54.75 47.9713C54.375 47.5338 53.9375 47.1692 53.4375 46.8775H53.375Z" fill="#EEC044"/>
</svg>
