<svg width="64" height="65" viewBox="0 0 64 65" fill="none" xmlns="http://www.w3.org/2000/svg">
<path d="M63.5625 35.315L58.3125 30.065C58.1042 29.8567 57.875 29.7525 57.625 29.7525C57.375 29.7525 57.1667 29.8567 57 30.065C56.7917 30.2317 56.6875 30.4504 56.6875 30.7213C56.6875 30.9921 56.7917 31.2108 57 31.3775L62 36.3775L60 38.3775L48.9375 27.315C49.1458 27.19 49.3333 27.0442 49.5 26.8775C49.6667 26.7108 49.8333 26.5442 50 26.3775C50.1667 26.2108 50.3333 26.0442 50.5 25.8775C50.6667 25.7108 50.8125 25.5233 50.9375 25.315L53.875 28.2525C54.0417 28.4608 54.2604 28.565 54.5312 28.565C54.8021 28.565 55.0208 28.4608 55.1875 28.2525C55.3542 28.0858 55.4375 27.8671 55.4375 27.5963C55.4375 27.3254 55.3542 27.1067 55.1875 26.94L52.0625 23.815C53.6042 21.19 54.2083 18.3254 53.875 15.2213C53.5417 12.1171 52.25 9.44 50 7.19C48.7083 5.94 47.2396 4.97125 45.5938 4.28375C43.9479 3.59625 42.2292 3.2525 40.4375 3.2525C38.6042 3.2525 36.8646 3.59625 35.2188 4.28375C33.5729 4.97125 32.1042 5.94 30.8125 7.19C29.4792 8.52334 28.5 10.0233 27.875 11.69C27.2083 13.3567 26.875 15.0546 26.875 16.7838C26.875 18.5129 27.2083 20.2108 27.875 21.8775C28.5 23.5442 29.4792 25.0442 30.8125 26.3775C32.1458 27.7108 33.6458 28.7108 35.3125 29.3775C36.9792 30.0442 38.6875 30.3775 40.4375 30.3775C41.6458 30.3775 42.8438 30.2108 44.0312 29.8775C45.2188 29.5442 46.3333 29.065 47.375 28.44L58.875 39.94C59.0417 40.1067 59.2188 40.2213 59.4062 40.2838C59.5938 40.3463 59.7917 40.3775 60 40.3775C60.2083 40.3775 60.4062 40.3463 60.5938 40.2838C60.7812 40.2213 60.9583 40.1067 61.125 39.94L63.5625 37.5025C63.8542 37.2108 64 36.8463 64 36.4088C64 35.9713 63.8542 35.6067 63.5625 35.315ZM40.4375 28.5025C38.9375 28.5025 37.4688 28.2108 36.0312 27.6275C34.5938 27.0442 33.2917 26.19 32.125 25.065C29.875 22.7733 28.75 20.0129 28.75 16.7838C28.75 13.5546 29.875 10.815 32.125 8.565C33.25 7.44 34.5208 6.58584 35.9375 6.0025C37.3542 5.41917 38.8542 5.1275 40.4375 5.1275C41.9792 5.1275 43.4583 5.41917 44.875 6.0025C46.2917 6.58584 47.5625 7.44 48.6875 8.565C50.9375 10.815 52.0625 13.5546 52.0625 16.7838C52.0625 20.0129 50.9375 22.7733 48.6875 25.065C47.5208 26.19 46.2188 27.0442 44.7812 27.6275C43.3438 28.2108 41.8958 28.5025 40.4375 28.5025ZM47.4375 9.815C46.4792 8.85667 45.3958 8.1275 44.1875 7.6275C42.9792 7.1275 41.7292 6.8775 40.4375 6.8775C39.1042 6.8775 37.8333 7.1275 36.625 7.6275C35.4167 8.1275 34.3333 8.85667 33.375 9.815C32.4583 10.7317 31.75 11.7942 31.25 13.0025C30.75 14.2108 30.5 15.4817 30.5 16.815C30.5 18.1483 30.75 19.4088 31.25 20.5963C31.75 21.7838 32.4583 22.8567 33.375 23.815C34.375 24.7733 35.4792 25.4921 36.6875 25.9713C37.8958 26.4504 39.1458 26.69 40.4375 26.69C41.6875 26.69 42.9271 26.4504 44.1562 25.9713C45.3854 25.4921 46.4792 24.7733 47.4375 23.815C48.3542 22.8567 49.0625 21.7838 49.5625 20.5963C50.0625 19.4088 50.3125 18.1483 50.3125 16.815C50.3125 15.4817 50.0625 14.2108 49.5625 13.0025C49.0625 11.7942 48.3542 10.7317 47.4375 9.815ZM46.0625 22.5025C45.3125 23.2942 44.4375 23.8775 43.4375 24.2525C42.4375 24.6275 41.4375 24.815 40.4375 24.815C39.3958 24.815 38.375 24.6171 37.375 24.2213C36.375 23.8254 35.5 23.2525 34.75 22.5025C33.9583 21.7108 33.3646 20.8358 32.9688 19.8775C32.5729 18.9192 32.375 17.8983 32.375 16.815C32.375 15.7317 32.5729 14.7004 32.9688 13.7213C33.3646 12.7421 33.9583 11.8775 34.75 11.1275C35.5 10.3775 36.3646 9.79417 37.3438 9.3775C38.3229 8.96084 39.3542 8.7525 40.4375 8.7525C41.4792 8.7525 42.4896 8.96084 43.4688 9.3775C44.4479 9.79417 45.3125 10.3775 46.0625 11.1275C46.8542 11.8775 47.4479 12.7421 47.8438 13.7213C48.2396 14.7004 48.4375 15.7317 48.4375 16.815C48.4375 17.8983 48.2396 18.9192 47.8438 19.8775C47.4479 20.8358 46.8542 21.7108 46.0625 22.5025ZM51.375 43.7525C51.2083 43.9608 51.1458 44.19 51.1875 44.44C51.2292 44.69 51.3542 44.8983 51.5625 45.065C51.7708 45.19 52 45.2421 52.25 45.2213C52.5 45.2004 52.7083 45.0858 52.875 44.8775C52.9167 44.8358 52.9479 44.7942 52.9688 44.7525C52.9896 44.7108 53.0208 44.6692 53.0625 44.6275C54.0208 43.2525 54.3646 41.8775 54.0938 40.5025C53.8229 39.1275 53.25 38.0025 52.375 37.1275C51.5 36.2108 50.375 35.6171 49 35.3463C47.625 35.0754 46.2292 35.44 44.8125 36.44C44.6042 36.6067 44.3854 36.7838 44.1562 36.9713C43.9271 37.1588 43.7083 37.3567 43.5 37.565C42.2083 38.815 41.3333 40.315 40.875 42.065C40.4167 43.815 40.3958 45.565 40.8125 47.315L38.3125 49.815L35.875 47.315C36.2917 45.565 36.2708 43.815 35.8125 42.065C35.3542 40.315 34.4792 38.815 33.1875 37.565C32.9792 37.3567 32.7604 37.1588 32.5312 36.9713C32.3021 36.7838 32.0833 36.6067 31.875 36.44C31.4167 36.1067 30.9688 35.8567 30.5312 35.69C30.0938 35.5233 29.6458 35.4192 29.1875 35.3775C28.1875 34.1275 27.0417 33.0546 25.75 32.1588C24.4583 31.2629 23.0625 30.5858 21.5625 30.1275V26.6275C21.5625 26.3775 21.4688 26.1588 21.2812 25.9713C21.0938 25.7838 20.875 25.69 20.625 25.69C20.375 25.69 20.1562 25.7838 19.9688 25.9713C19.7812 26.1588 19.6875 26.3775 19.6875 26.6275V30.315C19.6875 30.69 19.7917 31.0129 20 31.2838C20.2083 31.5546 20.4792 31.7317 20.8125 31.815C21.9375 32.19 23.0208 32.69 24.0625 33.315C25.1042 33.94 26.0417 34.69 26.875 35.565C26.375 35.7317 25.9062 35.94 25.4688 36.19C25.0312 36.44 24.6458 36.7525 24.3125 37.1275C24.1458 37.2525 24 37.3983 23.875 37.565C23.75 37.7317 23.625 37.9192 23.5 38.1275H7.0625C6.77083 38.1275 6.51042 38.19 6.28125 38.315C6.05208 38.44 5.85417 38.6275 5.6875 38.8775C5.0625 39.8775 4.57292 40.9608 4.21875 42.1275C3.86458 43.2942 3.6875 44.4817 3.6875 45.69C3.6875 47.44 4.02083 49.1067 4.6875 50.69C5.35417 52.2317 6.27083 53.5754 7.4375 54.7213C8.60417 55.8671 9.95833 56.7733 11.5 57.44C13.0417 58.1067 14.6875 58.44 16.4375 58.44C19.4792 58.44 22.1562 57.4921 24.4688 55.5963C26.7812 53.7004 28.25 51.315 28.875 48.44C29.1667 48.565 29.4583 48.6588 29.75 48.7213C30.0417 48.7838 30.3333 48.8358 30.625 48.8775C30.3333 50.2108 29.8542 51.4921 29.1875 52.7213C28.5208 53.9504 27.6667 55.065 26.625 56.065C25.25 57.44 23.6562 58.4921 21.8438 59.2213C20.0312 59.9504 18.1458 60.2942 16.1875 60.2525C14.3125 60.2525 12.5 59.8775 10.75 59.1275C9 58.3775 7.45833 57.315 6.125 55.94C4.79167 54.6067 3.75 53.065 3 51.315C2.25 49.565 1.875 47.7525 1.875 45.8775C1.875 44.2525 2.11458 42.7004 2.59375 41.2213C3.07292 39.7421 3.77083 38.3567 4.6875 37.065C5.60417 35.815 6.69792 34.7421 7.96875 33.8463C9.23958 32.9504 10.6042 32.2733 12.0625 31.815C12.3958 31.7317 12.6667 31.5546 12.875 31.2838C13.0833 31.0129 13.1875 30.69 13.1875 30.315V19.69H19.6875V22.19C19.6875 22.44 19.7812 22.6588 19.9688 22.8463C20.1562 23.0338 20.375 23.1275 20.625 23.1275C20.875 23.1275 21.0938 23.0338 21.2812 22.8463C21.4688 22.6588 21.5625 22.44 21.5625 22.19V19.69H22.375C23 19.69 23.5208 19.4817 23.9375 19.065C24.3542 18.6483 24.5625 18.1275 24.5625 17.5025V14.94C24.5625 14.3567 24.3542 13.8463 23.9375 13.4088C23.5208 12.9713 23 12.7525 22.375 12.7525H10.4375C9.85417 12.7525 9.34375 12.9713 8.90625 13.4088C8.46875 13.8463 8.25 14.3567 8.25 14.94V17.5025C8.25 18.1275 8.46875 18.6483 8.90625 19.065C9.34375 19.4817 9.85417 19.69 10.4375 19.69H11.3125V30.1275C9.6875 30.6275 8.1875 31.3879 6.8125 32.4088C5.4375 33.4296 4.22917 34.6067 3.1875 35.94C2.14583 37.3983 1.35417 38.9713 0.8125 40.6588C0.270833 42.3463 0 44.0858 0 45.8775C0.0416667 48.0025 0.46875 50.0546 1.28125 52.0338C2.09375 54.0129 3.27083 55.7733 4.8125 57.315C6.3125 58.815 8.04167 59.9817 10 60.815C11.9583 61.6483 14.0208 62.0858 16.1875 62.1275C16.2292 62.1275 16.2708 62.1275 16.3125 62.1275C16.3542 62.1275 16.3958 62.1275 16.4375 62.1275C17.6875 62.1275 18.9062 61.9921 20.0938 61.7213C21.2812 61.4504 22.4167 61.065 23.5 60.565H52.125C52.375 60.565 52.5938 60.4713 52.7812 60.2838C52.9688 60.0963 53.0625 59.8775 53.0625 59.6275C53.0625 59.3775 52.9688 59.1588 52.7812 58.9713C52.5938 58.7838 52.375 58.69 52.125 58.69H39.25V51.5025L42.125 48.6275C42.5417 48.7525 42.9583 48.8358 43.375 48.8775C43.7917 48.9192 44.2083 48.94 44.625 48.94C45.4167 48.94 46.1875 48.8567 46.9375 48.69C47.6875 48.5233 48.4167 48.2733 49.125 47.94C49.375 47.815 49.5417 47.6275 49.625 47.3775C49.7083 47.1275 49.6875 46.8983 49.5625 46.69C49.4792 46.44 49.3125 46.2733 49.0625 46.19C48.8125 46.1067 48.5625 46.1275 48.3125 46.2525C47.6042 46.5858 46.8646 46.8254 46.0938 46.9713C45.3229 47.1171 44.5417 47.1483 43.75 47.065L48.25 42.565C48.4167 42.3983 48.5 42.1796 48.5 41.9088C48.5 41.6379 48.4167 41.4192 48.25 41.2525C48.0417 41.0442 47.8125 40.94 47.5625 40.94C47.3125 40.94 47.0833 41.0442 46.875 41.2525L42.4375 45.69C42.3125 44.44 42.4583 43.2213 42.875 42.0338C43.2917 40.8463 43.9583 39.7942 44.875 38.8775C45.0417 38.7108 45.2083 38.5546 45.375 38.4088C45.5417 38.2629 45.7292 38.1067 45.9375 37.94C46.9375 37.2317 47.8958 36.9921 48.8125 37.2213C49.7292 37.4504 50.4792 37.8567 51.0625 38.44C51.6042 38.9817 51.9896 39.7213 52.2188 40.6588C52.4479 41.5963 52.2083 42.565 51.5 43.565C51.5 43.565 51.4896 43.5858 51.4688 43.6275C51.4479 43.6692 51.4167 43.7108 51.375 43.7525ZM10.4375 17.815C10.3542 17.815 10.2812 17.7838 10.2188 17.7213C10.1562 17.6588 10.125 17.5858 10.125 17.5025V14.94C10.125 14.8567 10.1562 14.7838 10.2188 14.7213C10.2812 14.6588 10.3542 14.6275 10.4375 14.6275H22.375C22.4583 14.6275 22.5312 14.6588 22.5938 14.7213C22.6562 14.7838 22.6875 14.8567 22.6875 14.94V17.5025C22.6875 17.5858 22.6562 17.6588 22.5938 17.7213C22.5312 17.7838 22.4583 17.815 22.375 17.815H10.4375ZM7.1875 40.0025H22.6875C22.6042 40.2942 22.5521 40.5963 22.5312 40.9088C22.5104 41.2213 22.5208 41.5442 22.5625 41.8775H6.3125C6.39583 41.5442 6.52083 41.2213 6.6875 40.9088C6.85417 40.5963 7.02083 40.2942 7.1875 40.0025ZM16.4375 56.565C13.4375 56.565 10.875 55.5025 8.75 53.3775C6.625 51.2525 5.5625 48.69 5.5625 45.69C5.5625 45.3567 5.58333 45.0233 5.625 44.69C5.66667 44.3567 5.70833 44.0442 5.75 43.7525H23.125C23.2083 43.8775 23.2917 44.0129 23.375 44.1588C23.4583 44.3046 23.5417 44.4608 23.625 44.6275C23.7917 44.8775 23.9688 45.1067 24.1562 45.315C24.3438 45.5233 24.5417 45.7317 24.75 45.94C25.125 46.2733 25.5104 46.5963 25.9062 46.9088C26.3021 47.2213 26.7083 47.4817 27.125 47.69C26.6667 50.2317 25.4375 52.3463 23.4375 54.0338C21.4375 55.7213 19.1042 56.565 16.4375 56.565ZM26.0625 44.6275C25.8958 44.4608 25.7396 44.2838 25.5938 44.0963C25.4479 43.9088 25.3125 43.7317 25.1875 43.565C24.4792 42.565 24.2396 41.5963 24.4688 40.6588C24.6979 39.7213 25.0833 38.9817 25.625 38.44C25.9583 38.1067 26.375 37.815 26.875 37.565C27.375 37.315 27.9167 37.19 28.5 37.19C28.875 37.19 29.25 37.2525 29.625 37.3775C30 37.5025 30.375 37.69 30.75 37.94C30.9583 38.1067 31.1458 38.2629 31.3125 38.4088C31.4792 38.5546 31.6458 38.7108 31.8125 38.8775C32.7292 39.7942 33.3958 40.8463 33.8125 42.0338C34.2292 43.2213 34.375 44.44 34.25 45.69L29.8125 41.2525C29.6042 41.0442 29.375 40.94 29.125 40.94C28.875 40.94 28.6458 41.0442 28.4375 41.2525C28.2708 41.4192 28.1875 41.6379 28.1875 41.9088C28.1875 42.1796 28.2708 42.3983 28.4375 42.565L32.9375 47.065C31.6875 47.19 30.4583 47.0442 29.25 46.6275C28.0417 46.2108 26.9792 45.5442 26.0625 44.6275ZM37.375 58.69H26.5C26.75 58.4817 27 58.2733 27.25 58.065C27.5 57.8567 27.7292 57.6483 27.9375 57.44C29.1458 56.2733 30.1354 54.9608 30.9062 53.5025C31.6771 52.0442 32.2292 50.5233 32.5625 48.94C32.8958 48.94 33.2292 48.9088 33.5625 48.8463C33.8958 48.7838 34.2292 48.7108 34.5625 48.6275L37.375 51.5025V58.69ZM14.1875 48.44C14.1875 48.69 14.0938 48.9088 13.9062 49.0963C13.7188 49.2838 13.5 49.3775 13.25 49.3775C13 49.3775 12.7812 49.2838 12.5938 49.0963C12.4062 48.9088 12.3125 48.69 12.3125 48.44C12.3125 48.19 12.4062 47.9713 12.5938 47.7838C12.7812 47.5963 13 47.5025 13.25 47.5025C13.5 47.5025 13.7188 47.5963 13.9062 47.7838C14.0938 47.9713 14.1875 48.19 14.1875 48.44ZM18.5625 52.565C18.5625 52.815 18.4688 53.0338 18.2812 53.2213C18.0938 53.4088 17.875 53.5025 17.625 53.5025C17.375 53.5025 17.1562 53.4088 16.9688 53.2213C16.7812 53.0338 16.6875 52.815 16.6875 52.565C16.6875 52.315 16.7812 52.0963 16.9688 51.9088C17.1562 51.7213 17.375 51.6275 17.625 51.6275C17.875 51.6275 18.0938 51.7213 18.2812 51.9088C18.4688 52.0963 18.5625 52.315 18.5625 52.565ZM20.3125 46.565C20.3125 46.815 20.2188 47.0338 20.0312 47.2213C19.8438 47.4088 19.625 47.5025 19.375 47.5025C19.125 47.5025 18.9062 47.4088 18.7188 47.2213C18.5312 47.0338 18.4375 46.815 18.4375 46.565C18.4375 46.315 18.5312 46.0963 18.7188 45.9088C18.9062 45.7213 19.125 45.6275 19.375 45.6275C19.625 45.6275 19.8438 45.7213 20.0312 45.9088C20.2188 46.0963 20.3125 46.315 20.3125 46.565Z" fill="#EEC044"/>
</svg>
